<?xml version="1.0" standalone="no"?>
<!DOCTYPE svg PUBLIC "-//W3C//DTD SVG 20010904//EN"
 "http://www.w3.org/TR/2001/REC-SVG-20010904/DTD/svg10.dtd">
<svg version="1.0" xmlns="http://www.w3.org/2000/svg"
 width="1280.000000pt" height="988.000000pt" viewBox="0 0 1280.000000 988.000000"
 preserveAspectRatio="xMidYMid meet">
<metadata>
Created by potrace 1.15, written by Peter Selinger 2001-2017
</metadata>
<g transform="translate(0.000000,988.000000) scale(0.100000,-0.100000)"
fill="#000000" stroke="none">
<path d="M2132 9865 c-54 -24 -77 -87 -76 -215 0 -116 22 -187 64 -210 31 -17
96 -15 125 4 49 33 60 69 60 211 0 118 -2 133 -23 167 -21 34 -64 59 -101 58
-9 -1 -31 -7 -49 -15z m105 -61 c19 -30 30 -172 19 -247 -13 -86 -87 -119
-125 -56 -40 65 -36 265 6 311 25 28 79 24 100 -8z"/>
<path d="M3773 9873 c-38 -7 -73 -59 -73 -107 0 -54 25 -88 88 -120 65 -33 87
-60 87 -106 0 -50 -19 -70 -65 -70 -39 0 -62 18 -74 58 -7 20 -35 30 -48 16
-12 -11 12 -69 37 -91 35 -31 121 -32 158 -3 77 61 49 179 -57 232 -63 31 -76
47 -76 89 0 73 82 90 112 24 7 -16 19 -25 35 -25 27 0 27 0 8 46 -10 23 -26
39 -49 49 -36 15 -43 16 -83 8z"/>
<path d="M6110 9726 l0 -156 -100 0 -100 0 0 135 0 135 -80 0 -79 0 -3 -132
-3 -133 -87 -3 -88 -3 0 146 0 145 -80 0 -80 0 0 -245 0 -245 430 0 430 0 0
244 0 244 -47 6 c-27 4 -63 10 -80 13 l-33 5 0 -156z"/>
<path d="M1470 9650 l0 -220 25 0 c25 0 25 0 25 94 l0 93 61 6 c44 4 67 11 85
28 59 55 49 170 -18 205 -16 8 -57 14 -103 14 l-75 0 0 -220z m157 165 c25
-18 34 -56 22 -100 -10 -36 -42 -55 -94 -55 l-35 0 0 85 0 85 43 0 c23 0 52
-7 64 -15z"/>
<path d="M1764 9857 c-2 -7 -3 -105 -2 -217 3 -204 3 -205 26 -208 22 -3 22
-1 22 97 l0 101 49 0 c65 0 75 -14 81 -114 5 -76 7 -81 29 -84 23 -4 23 -3 20
86 -3 76 -7 94 -26 114 l-22 23 25 24 c20 19 24 33 24 78 0 47 -4 59 -29 84
-28 27 -34 29 -111 29 -56 0 -82 -4 -86 -13z m158 -44 c23 -20 25 -95 3 -117
-18 -17 -78 -31 -100 -22 -12 4 -15 23 -15 81 l0 75 47 0 c29 0 53 -6 65 -17z"/>
<path d="M2350 9858 c1 -7 25 -105 53 -218 l53 -205 29 0 30 0 57 215 c31 118
57 216 58 218 0 2 -12 2 -26 0 -25 -3 -28 -10 -72 -188 l-45 -185 -13 50 c-7
28 -26 112 -44 188 -30 129 -33 137 -56 137 -13 0 -24 -6 -24 -12z"/>
<path d="M2680 9650 l0 -220 25 0 25 0 0 220 0 220 -25 0 -25 0 0 -220z"/>
<path d="M2820 9661 c0 -116 0 -214 0 -218 0 -5 28 -9 62 -11 122 -5 169 49
176 200 5 107 -9 166 -50 205 -26 25 -38 28 -109 32 l-79 3 0 -211z m143 149
c38 -30 50 -79 45 -181 -5 -104 -23 -138 -80 -153 -68 -17 -68 -16 -68 172 0
93 3 172 7 175 14 14 71 6 96 -13z"/>
<path d="M3132 9653 l3 -218 101 -3 c94 -2 102 -1 107 17 5 19 -1 20 -77 23
l-81 3 -3 83 -3 82 76 0 c73 0 76 1 73 23 -3 20 -9 22 -75 25 l-73 3 0 69 0
70 80 0 c73 0 80 2 80 20 0 19 -7 20 -105 20 l-105 0 2 -217z"/>
<path d="M3400 9651 l0 -221 25 0 25 0 0 101 0 100 52 -3 c66 -4 78 -23 78
-125 0 -72 0 -73 26 -73 l26 0 -3 84 c-3 67 -8 90 -25 113 l-22 29 25 29 c22
25 25 36 21 82 -7 83 -27 97 -138 101 l-90 4 0 -221z m160 159 c13 -13 20 -33
20 -58 0 -51 -26 -75 -83 -76 l-42 -1 -3 78 -3 77 46 0 c32 0 51 -6 65 -20z"/>
<path d="M1543 9279 c-80 -23 -112 -133 -57 -199 15 -17 45 -40 68 -52 62 -31
86 -57 86 -94 0 -75 -83 -87 -108 -16 -9 25 -13 27 -49 24 -40 -4 -40 -4 -33
-38 14 -63 60 -94 137 -94 60 0 91 16 120 59 43 64 22 149 -48 195 -21 14 -43
26 -48 26 -24 0 -71 53 -71 80 0 59 65 68 89 13 12 -28 20 -33 48 -33 41 0 49
16 29 63 -24 58 -93 86 -163 66z"/>
<path d="M3410 9280 c-44 -11 -85 -57 -101 -112 -7 -24 -12 -86 -12 -138 1
-156 40 -220 133 -220 35 0 52 5 66 21 l18 20 8 -21 c6 -16 15 -21 35 -18 l28
3 0 130 0 130 -70 0 -70 0 -3 -32 c-3 -31 -1 -33 27 -33 30 0 31 -1 31 -46 0
-60 -14 -84 -49 -84 -48 0 -63 28 -69 132 -5 110 8 171 43 194 23 15 27 15 50
0 14 -9 25 -25 25 -36 0 -17 7 -20 41 -20 l42 0 -6 38 c-7 41 -54 92 -86 92
-11 0 -25 2 -33 4 -7 2 -29 0 -48 -4z"/>
<path d="M1750 9245 l0 -35 50 0 50 0 2 -197 3 -198 37 -3 38 -3 2 198 3 198
48 3 c46 3 47 4 47 38 l0 34 -140 0 -140 0 0 -35z"/>
<path d="M2080 9045 l0 -235 40 0 40 0 0 100 0 100 39 0 c21 0 43 -6 48 -12 6
-7 13 -48 17 -91 3 -43 8 -83 12 -88 3 -5 21 -9 41 -9 l36 0 -5 91 c-4 69 -10
97 -26 118 l-20 27 24 27 c18 21 24 40 24 75 0 99 -45 132 -182 132 l-88 0 0
-235z m172 148 c10 -9 18 -30 18 -49 0 -40 -29 -64 -77 -64 l-33 0 0 65 0 65
37 0 c20 0 45 -7 55 -17z"/>
<path d="M2442 9053 c-29 -126 -53 -232 -52 -236 0 -5 17 -7 38 -5 36 3 37 4
52 61 l14 57 53 0 c49 0 53 -2 58 -27 18 -86 19 -88 54 -91 18 -2 37 0 41 5 7
6 -40 221 -94 436 -6 25 -10 27 -59 27 l-53 0 -52 -227z m123 53 c21 -107 21
-106 -20 -106 -19 0 -35 5 -35 11 0 20 33 179 37 176 2 -2 10 -39 18 -81z"/>
<path d="M2680 9246 c0 -34 1 -35 48 -38 l47 -3 3 -197 2 -198 40 0 40 0 0
200 0 200 50 0 50 0 0 35 0 35 -140 0 -140 0 0 -34z"/>
<path d="M3010 9045 l0 -236 118 3 117 3 3 38 3 37 -80 0 -81 0 0 65 0 65 75
0 75 0 0 35 0 35 -75 0 -75 0 0 60 0 60 75 0 75 0 0 35 0 35 -115 0 -115 0 0
-235z"/>
<path d="M3610 9271 c0 -4 23 -64 52 -132 48 -114 53 -132 58 -224 l5 -100 40
0 40 0 5 100 c5 93 9 109 58 222 28 68 52 128 52 133 0 7 -17 10 -42 8 l-41
-3 -31 -92 c-17 -50 -33 -94 -36 -97 -3 -2 -21 40 -40 95 l-34 99 -43 0 c-24
0 -43 -4 -43 -9z"/>
<path d="M5595 9236 c-134 -33 -197 -117 -197 -260 0 -100 18 -152 72 -207 73
-75 193 -109 385 -109 304 1 435 92 435 300 0 162 -94 269 -250 282 l-35 3 -3
-102 -3 -103 28 0 c38 0 95 -31 104 -56 4 -12 2 -31 -5 -45 -22 -45 -57 -53
-247 -57 -191 -4 -278 7 -310 39 -43 43 -11 107 59 116 l42 6 0 103 c0 115 5
110 -75 90z"/>
<path d="M11310 8950 l0 -60 125 0 125 0 0 -80 0 -79 -122 -3 -123 -3 -3 -62
-3 -63 321 0 320 0 0 65 0 65 -145 0 -145 0 0 80 0 80 145 0 145 0 0 60 0 60
-320 0 -320 0 0 -60z"/>
<path d="M7684 8741 c-22 -10 -49 -41 -87 -101 -27 -42 -70 -49 -75 -13 -3 17
3 24 22 29 22 5 26 12 26 45 0 35 -3 39 -24 39 -39 0 -83 -44 -91 -90 -15 -88
55 -152 140 -129 30 8 44 22 73 70 36 58 65 78 97 65 24 -9 18 -45 -10 -58
-20 -9 -25 -18 -25 -50 0 -34 3 -38 26 -38 15 0 38 12 55 29 25 26 29 37 29
85 0 47 -4 61 -27 86 -30 34 -89 48 -129 31z"/>
<path d="M6995 8729 c-62 -14 -105 -57 -165 -164 -60 -106 -83 -125 -150 -125
-58 0 -100 42 -100 98 0 49 23 79 75 96 36 13 40 18 43 50 3 34 1 36 -25 36
-45 0 -115 -41 -138 -80 -27 -48 -27 -141 1 -195 28 -54 83 -85 152 -85 99 0
143 34 212 162 55 103 86 128 155 128 94 0 131 -33 129 -117 -1 -53 -38 -97
-93 -110 -33 -8 -36 -12 -39 -46 -3 -35 -2 -37 28 -37 64 0 136 51 159 113 17
44 13 137 -8 183 -22 49 -62 80 -122 93 -51 12 -60 12 -114 0z"/>
<path d="M3659 8667 c-41 -27 -59 -60 -59 -108 0 -52 36 -98 105 -137 67 -37
85 -56 85 -88 0 -50 -74 -58 -86 -9 -6 23 -11 25 -60 25 -61 0 -65 -8 -37 -67
45 -96 238 -95 278 1 36 87 10 150 -86 207 -80 48 -92 60 -87 91 2 18 9 23 33
23 23 0 30 -5 35 -25 5 -22 12 -25 58 -28 47 -3 52 -1 52 18 0 39 -31 88 -65
104 -50 24 -125 21 -166 -7z"/>
<path d="M2052 8638 l3 -42 45 0 45 -1 3 -187 2 -188 55 0 55 0 2 188 3 187
43 0 42 0 0 43 0 42 -151 0 -150 0 3 -42z"/>
<path d="M2400 8450 l0 -230 55 0 55 0 0 95 c0 92 1 95 23 95 33 0 47 -18 47
-61 0 -20 3 -57 6 -83 l7 -46 52 0 53 0 -5 88 c-4 65 -10 94 -25 115 l-20 29
22 23 c30 32 37 101 16 143 -26 50 -61 62 -181 62 l-105 0 0 -230z m178 138
c31 -31 5 -98 -38 -98 -30 0 -30 1 -30 55 0 54 1 55 28 55 15 0 33 -5 40 -12z"/>
<path d="M2827 8673 c-3 -4 -24 -102 -47 -217 -23 -115 -44 -215 -47 -223 -4
-11 6 -13 53 -11 55 3 59 5 62 28 7 67 10 70 56 70 l44 0 7 -50 7 -50 59 0
c57 0 59 1 54 23 -3 12 -25 114 -48 227 l-43 205 -76 3 c-42 2 -78 -1 -81 -5z
m102 -245 c1 -13 -7 -18 -27 -18 l-28 0 12 78 c7 42 14 84 15 92 1 15 27 -121
28 -152z"/>
<path d="M3120 8450 l0 -230 55 0 55 0 0 230 0 230 -55 0 -55 0 0 -230z"/>
<path d="M3300 8450 l0 -231 128 3 127 3 3 43 3 42 -75 0 -76 0 0 185 0 185
-55 0 -55 0 0 -230z"/>
<path d="M1460 8635 l0 -25 173 0 172 -1 -172 -70 -173 -71 0 -34 0 -34 218 2
c209 3 217 4 217 23 0 19 -8 20 -177 25 l-176 5 170 70 c94 39 176 77 181 86
6 9 7 24 4 33 -6 14 -32 16 -222 16 l-215 0 0 -25z"/>
<path d="M11405 8506 c-60 -26 -105 -104 -105 -181 0 -93 57 -169 152 -201 74
-26 300 -27 374 -1 59 20 110 69 124 118 22 77 6 173 -38 223 -23 25 -90 56
-125 56 -28 0 -28 -1 -25 -56 3 -54 4 -57 37 -68 49 -16 76 -56 64 -92 -17
-52 -63 -69 -198 -73 -189 -5 -265 21 -265 94 0 39 37 75 76 75 23 0 24 4 24
60 l0 60 -32 0 c-18 -1 -47 -7 -63 -14z"/>
<path d="M5410 8410 l0 -100 430 0 430 0 0 100 0 100 -430 0 -430 0 0 -100z"/>
<path d="M7565 8471 c-81 -21 -105 -60 -105 -171 l0 -70 188 2 187 3 0 76 c-1
86 -16 118 -66 145 -35 18 -159 27 -204 15z m189 -101 c9 -7 16 -21 16 -31 0
-18 -9 -19 -121 -19 -119 0 -120 0 -117 22 5 36 44 49 130 45 43 -2 84 -9 92
-17z"/>
<path d="M1565 8321 c-95 -23 -140 -104 -100 -180 27 -53 90 -76 210 -76 56 0
116 6 137 13 55 19 88 64 88 117 0 59 -35 100 -103 120 -52 15 -179 19 -232 6z
m254 -65 c34 -18 50 -59 34 -85 -25 -40 -73 -55 -177 -55 -109 0 -155 15 -177
55 -24 46 7 84 81 100 55 12 204 3 239 -15z"/>
<path d="M7170 8136 l0 -136 -135 0 -134 0 -3 123 -3 122 -32 3 -33 3 0 -125
0 -126 -120 0 -120 0 0 130 0 130 -35 0 -35 0 0 -170 0 -170 360 0 360 0 -2
173 -3 172 -32 3 -33 3 0 -135z"/>
<path d="M5410 8097 l0 -104 193 -32 c105 -18 255 -43 332 -56 77 -12 137 -23
133 -24 -4 -1 -60 -8 -125 -16 -65 -9 -194 -29 -288 -46 -93 -16 -187 -32
-207 -35 l-38 -7 0 -108 c0 -60 3 -109 6 -109 4 0 195 43 425 95 230 52 421
95 424 95 3 0 5 58 5 129 0 115 -2 130 -17 135 -41 12 -814 186 -828 186 -12
0 -15 -18 -15 -103z"/>
<path d="M7510 8177 c-38 -19 -50 -54 -50 -145 l0 -82 188 2 187 3 0 40 0 40
-77 3 c-68 2 -78 5 -78 21 0 30 21 40 90 43 l65 3 0 40 0 40 -75 -3 c-49 -3
-81 -9 -92 -19 -15 -14 -20 -13 -44 6 -30 24 -77 27 -114 8z m98 -89 c7 -7 12
-20 12 -30 0 -15 -8 -18 -44 -18 -50 0 -62 10 -46 40 12 23 59 27 78 8z"/>
<path d="M2060 7925 c0 -122 2 -145 15 -145 12 0 15 14 15 65 l0 65 35 0 c46
0 85 37 85 80 0 49 -38 80 -100 80 l-50 0 0 -145z m110 90 c13 -33 -2 -71 -32
-78 -45 -13 -48 -9 -48 48 l0 55 35 0 c29 0 37 -5 45 -25z"/>
<path d="M2250 7924 c0 -112 3 -145 13 -142 7 3 13 29 15 72 l3 68 31 -6 c42
-8 42 -9 48 -73 3 -32 10 -58 18 -61 16 -5 17 100 1 130 -8 14 -8 23 0 31 6 6
11 30 11 52 0 57 -22 75 -88 75 l-52 0 0 -146z m108 76 c4 -38 -16 -60 -55
-60 -21 0 -23 4 -23 51 l0 50 38 -3 c34 -3 37 -6 40 -38z"/>
<path d="M2462 8046 c-42 -54 -40 -199 4 -243 31 -31 74 -30 105 3 21 22 24
37 27 107 4 111 -15 151 -74 155 -35 3 -45 -1 -62 -22z m82 -11 c21 -21 30
-76 23 -142 -6 -62 -20 -83 -52 -83 -31 0 -45 38 -45 123 0 100 32 144 74 102z"/>
<path d="M2650 7925 c0 -122 2 -145 15 -145 12 0 15 20 16 118 l1 117 25 -115
c13 -63 26 -117 28 -119 16 -16 34 22 55 120 l25 114 3 -117 c2 -96 5 -118 17
-118 13 0 15 24 15 145 0 145 0 145 -23 145 -21 0 -25 -9 -47 -102 -22 -98
-40 -144 -40 -104 0 9 -10 60 -22 112 -19 86 -23 94 -45 94 l-23 0 0 -145z"/>
<path d="M2923 8043 c-14 -21 -18 -48 -18 -119 0 -84 2 -95 24 -118 29 -30 69
-34 100 -8 50 40 53 208 5 257 -9 8 -33 15 -54 15 -32 0 -43 -5 -57 -27z m91
-15 c19 -26 22 -167 6 -199 -12 -22 -52 -25 -69 -5 -16 19 -26 114 -17 160 12
63 52 85 80 44z"/>
<path d="M3080 8055 c0 -10 10 -15 34 -15 l35 0 0 -127 c0 -100 2 -128 13
-128 10 0 14 30 16 128 l3 127 29 0 c20 0 30 5 30 15 0 12 -16 15 -80 15 -64
0 -80 -3 -80 -15z"/>
<path d="M3270 7925 c0 -122 2 -145 15 -145 13 0 15 23 15 145 0 122 -2 145
-15 145 -13 0 -15 -23 -15 -145z"/>
<path d="M3381 8049 c-39 -42 -41 -187 -4 -237 41 -56 114 -33 134 40 14 55 6
160 -15 193 -22 33 -86 35 -115 4z m85 -20 c15 -17 19 -36 18 -97 0 -93 -14
-125 -52 -120 -37 4 -56 61 -48 142 9 87 43 118 82 75z"/>
<path d="M3570 7924 c0 -112 3 -145 13 -141 9 3 11 35 9 122 -1 65 0 117 2
114 2 -2 25 -57 51 -122 36 -89 51 -117 64 -115 14 3 16 23 19 146 2 121 0
142 -12 142 -13 0 -16 -21 -18 -112 l-3 -113 -44 113 c-34 86 -48 112 -63 112
-17 0 -18 -11 -18 -146z"/>
<path d="M3796 8054 c-16 -16 -20 -33 -16 -69 3 -28 17 -43 62 -66 40 -20 55
-51 43 -89 -9 -30 -66 -24 -80 8 -12 27 -35 29 -35 2 0 -32 36 -60 75 -60 48
0 75 29 75 79 0 40 -9 51 -84 104 -29 20 -34 58 -11 77 19 15 52 4 60 -21 7
-21 35 -26 35 -6 0 7 -7 23 -16 35 -18 27 -84 31 -108 6z"/>
<path d="M8455 8051 c-67 -16 -107 -55 -156 -153 -40 -79 -60 -98 -107 -98
-91 0 -100 109 -11 127 28 5 29 8 29 59 0 52 -1 54 -27 54 -50 0 -110 -38
-132 -84 -56 -114 -1 -247 112 -272 92 -20 167 27 232 145 48 88 63 102 118
108 54 6 87 -19 87 -68 0 -44 -14 -65 -60 -83 -39 -16 -40 -17 -40 -67 l0 -52
46 6 c52 5 89 29 122 77 17 26 22 47 22 102 0 81 -16 124 -59 161 -49 41 -109
54 -176 38z"/>
<path d="M11620 7981 l-305 -77 -3 -81 -3 -80 321 -80 320 -81 0 63 0 62 -80
17 -80 17 0 79 c0 88 -7 81 98 101 l62 12 0 63 c0 45 -4 64 -12 63 -7 0 -150
-36 -318 -78z m70 -162 c0 -54 -2 -60 -17 -55 -10 4 -68 17 -130 29 -62 12
-113 24 -113 27 0 3 57 17 128 31 70 15 128 27 130 28 1 0 2 -26 2 -60z"/>
<path d="M1460 7965 l0 -25 218 2 c209 3 217 4 217 23 0 19 -8 20 -217 23
l-218 2 0 -25z"/>
<path d="M7575 7901 c-80 -14 -118 -51 -119 -114 -2 -87 46 -126 165 -135 143
-10 219 34 219 127 0 55 -20 88 -65 107 -41 17 -147 25 -200 15z m193 -108
c10 -14 9 -20 -3 -33 -24 -23 -208 -22 -231 2 -14 14 -15 20 -5 32 17 20 52
25 146 20 61 -3 83 -8 93 -21z"/>
<path d="M1460 7765 c0 -118 1 -125 20 -125 17 0 20 7 20 50 l0 50 198 2 c189
3 197 4 197 23 0 19 -8 20 -197 23 l-198 2 0 50 c0 43 -3 50 -20 50 -19 0 -20
-7 -20 -125z"/>
<path d="M6520 7741 l0 -40 298 -3 c317 -3 326 -5 353 -54 17 -33 14 -99 -5
-130 -33 -50 -61 -54 -366 -54 l-280 0 0 -41 0 -40 308 3 c302 3 308 3 345 27
53 32 77 85 77 166 0 36 -6 80 -14 98 -17 42 -66 83 -114 97 -21 6 -156 10
-319 10 l-283 0 0 -39z"/>
<path d="M2723 7633 c-30 -6 -70 -55 -83 -101 -13 -48 -13 -157 1 -206 13 -45
46 -82 84 -92 43 -11 103 13 125 49 30 49 26 67 -13 67 -27 0 -35 -5 -44 -30
-14 -37 -46 -40 -67 -7 -33 51 -32 206 3 248 22 27 58 18 67 -17 5 -20 12 -24
41 -24 34 0 35 1 29 32 -8 40 -23 58 -63 75 -33 13 -40 14 -80 6z"/>
<path d="M3803 7633 c-36 -7 -73 -59 -73 -102 0 -49 28 -84 91 -116 52 -27 72
-53 67 -87 -7 -48 -82 -50 -94 -3 -5 21 -12 25 -40 25 -40 0 -44 -18 -14 -67
25 -42 84 -61 138 -45 53 16 74 43 80 100 4 43 1 53 -24 81 -16 18 -51 44 -79
59 -34 19 -51 34 -53 50 -7 50 53 70 73 25 7 -17 18 -23 42 -23 37 0 42 14 18
59 -20 40 -69 56 -132 44z"/>
<path d="M2060 7435 l0 -195 35 0 35 0 0 85 0 85 50 0 50 0 0 -85 0 -85 35 0
35 0 0 195 0 195 -35 0 -35 0 0 -75 0 -75 -50 0 -50 0 0 75 0 75 -35 0 -35 0
0 -195z"/>
<path d="M2425 7618 c-8 -23 -85 -353 -85 -365 0 -8 13 -13 33 -13 32 0 34 2
43 48 l9 47 45 0 45 0 9 -47 c9 -47 10 -48 48 -48 33 0 38 3 34 18 -8 25 -86
356 -86 365 0 13 -90 8 -95 -5z m74 -205 c1 -8 -11 -13 -29 -13 -16 0 -30 4
-30 10 0 14 21 113 27 130 5 13 30 -88 32 -127z"/>
<path d="M2920 7435 l0 -195 35 0 35 0 0 66 c0 61 11 104 28 104 4 0 23 -38
41 -85 l34 -85 40 0 c21 0 37 4 35 8 -1 5 -25 58 -51 119 l-49 111 52 77 51
76 -42 -3 c-42 -3 -44 -5 -91 -83 l-48 -80 0 83 0 82 -35 0 -35 0 0 -195z"/>
<path d="M3200 7435 l0 -195 100 0 c80 0 100 3 100 14 0 8 3 21 6 30 5 14 -4
16 -65 16 l-71 0 0 55 0 55 60 0 60 0 0 30 0 30 -60 0 -60 0 0 50 0 50 65 0
65 0 0 30 0 30 -100 0 -100 0 0 -195z"/>
<path d="M3450 7436 l0 -196 35 0 35 0 0 85 c0 84 0 85 25 85 45 0 65 -32 65
-105 l0 -65 36 0 37 0 -5 74 c-3 43 -12 85 -20 98 -14 22 -14 26 3 47 28 34
25 102 -5 138 -23 26 -30 28 -115 31 l-91 4 0 -196z m148 122 c14 -14 16 -57
4 -76 -5 -7 -25 -15 -45 -19 l-37 -6 0 57 0 56 33 0 c18 0 38 -5 45 -12z"/>
<path d="M7462 7589 l3 -44 114 -12 c62 -6 115 -13 117 -16 2 -2 -40 -9 -94
-16 -147 -19 -144 -17 -140 -59 l3 -36 113 -17 c150 -23 152 -25 42 -33 -162
-11 -160 -11 -160 -63 0 -43 1 -44 28 -39 15 3 96 17 181 31 85 14 158 28 163
31 4 3 8 23 8 44 0 44 15 37 -140 65 -41 7 -73 14 -70 15 3 1 50 9 105 18
l100 17 3 42 c4 49 17 43 -183 78 -82 15 -160 29 -173 32 -22 5 -23 3 -20 -38z"/>
<path d="M1513 7595 c-42 -18 -67 -67 -60 -117 11 -83 76 -117 222 -118 122 0
166 11 199 51 48 57 29 151 -38 183 -47 22 -66 21 -66 -6 0 -17 10 -27 40 -40
74 -31 61 -106 -22 -129 -63 -17 -226 -8 -259 14 -52 35 -41 103 19 121 24 7
32 14 32 32 0 28 -19 30 -67 9z"/>
<path d="M8436 7600 c-43 -13 -94 -67 -128 -135 -55 -109 -107 -140 -166 -99
-45 31 -14 114 43 114 24 0 25 3 25 60 0 33 -4 60 -8 60 -5 0 -32 -7 -60 -15
-74 -22 -105 -66 -110 -154 -7 -123 54 -191 171 -191 93 0 139 35 197 150 36
71 70 100 119 100 55 0 81 -23 81 -70 0 -45 -25 -75 -71 -85 -28 -6 -29 -9
-29 -61 0 -52 1 -54 28 -54 64 1 137 55 156 118 16 50 8 142 -16 184 -40 73
-138 106 -232 78z"/>
<path d="M11850 7410 l0 -120 -90 0 -90 0 0 110 0 110 -50 0 -50 0 0 -110 0
-110 -80 0 -80 0 0 115 0 115 -50 0 -50 0 0 -175 0 -175 320 0 320 0 0 174 c0
192 2 186 -66 186 l-34 0 0 -120z"/>
<path d="M6110 7331 l0 -151 -100 0 -100 0 0 135 0 135 -80 0 -80 0 0 -135 0
-135 -90 0 -90 0 0 140 0 140 -80 0 -80 0 0 -245 0 -245 430 0 430 0 0 244 0
244 -23 6 c-13 3 -49 8 -80 12 l-57 7 0 -152z"/>
<path d="M1850 7225 l0 -86 -81 3 -81 3 -1 75 c-2 68 -4 75 -22 75 -18 0 -20
-8 -23 -77 l-3 -78 -69 0 -70 0 0 80 c0 73 -2 80 -20 80 -19 0 -20 -7 -20
-105 l0 -105 218 2 217 3 0 105 c0 101 -1 105 -22 108 -22 3 -23 1 -23 -83z"/>
<path d="M7009 7270 c-79 -14 -113 -48 -199 -200 -37 -67 -69 -90 -124 -90
-71 0 -106 35 -106 104 0 43 25 73 75 90 36 13 40 18 43 50 3 34 1 36 -25 36
-48 -1 -108 -35 -134 -76 -30 -50 -33 -141 -5 -197 28 -57 69 -81 147 -85 104
-6 148 26 221 163 53 98 88 125 164 125 67 0 109 -31 119 -90 12 -68 -29 -125
-100 -140 -27 -5 -30 -9 -30 -45 0 -38 1 -40 30 -37 57 6 117 44 142 91 31 60
32 149 1 211 -36 70 -124 107 -219 90z"/>
<path d="M7512 7215 c-99 -43 -63 -215 45 -215 49 0 75 19 117 85 38 59 69 76
93 52 19 -19 10 -47 -17 -54 -16 -4 -20 -14 -20 -49 0 -43 1 -44 28 -38 15 3
39 19 55 35 23 25 27 38 27 85 0 48 -4 59 -29 85 -25 24 -38 29 -78 29 -61 0
-85 -17 -124 -86 -26 -46 -35 -54 -60 -54 -38 0 -41 36 -3 50 22 9 25 15 22
47 -4 43 -12 47 -56 28z"/>
<path d="M8587 7164 c-4 -4 -7 -56 -7 -116 l0 -108 -90 0 -89 0 -3 103 -3 102
-47 3 -48 3 0 -105 0 -106 -80 0 -79 0 -3 108 -3 107 -47 3 -48 3 0 -165 0
-166 320 0 320 0 0 165 c0 133 -3 165 -14 165 -7 0 -26 3 -42 6 -16 3 -32 2
-37 -2z"/>
<path d="M4894 7086 c-57 -18 -89 -43 -123 -96 -55 -84 -66 -145 -65 -345 0
-154 3 -189 21 -241 41 -125 112 -178 237 -177 78 1 114 11 165 50 37 29 77
106 87 171 l7 43 -73 -3 -73 -3 -14 -47 c-22 -76 -87 -110 -140 -73 -46 32
-58 94 -58 305 0 183 1 198 23 237 25 48 47 63 92 63 41 0 78 -38 86 -89 l7
-41 73 0 c71 0 74 1 74 23 0 41 -27 116 -55 153 -14 19 -44 43 -66 55 -51 25
-151 33 -205 15z"/>
<path d="M2047 7083 c-4 -3 -7 -195 -7 -425 l0 -418 75 0 75 0 0 169 0 168 88
5 c48 3 105 13 127 22 96 41 141 125 133 251 -9 132 -75 207 -198 225 -75 11
-283 13 -293 3z m287 -134 c52 -24 72 -122 38 -189 -20 -41 -72 -63 -137 -58
l-40 3 -3 128 -3 127 60 0 c33 0 71 -5 85 -11z"/>
<path d="M2640 6760 c0 -208 4 -347 11 -375 6 -24 26 -62 45 -83 46 -55 100
-74 202 -75 72 0 90 4 139 29 50 25 62 38 88 88 l30 60 0 340 0 341 -72 3 -72
3 -3 -335 c-3 -322 -4 -336 -24 -363 -41 -55 -127 -55 -168 0 -20 27 -21 43
-26 360 l-5 332 -72 3 -73 3 0 -331z"/>
<path d="M3298 7084 c-5 -4 -8 -196 -8 -426 l0 -420 173 4 c154 3 176 5 213
25 86 46 124 115 124 228 0 74 -25 133 -73 170 l-35 28 33 33 c73 73 70 230
-7 301 -48 45 -94 56 -258 61 -85 2 -158 1 -162 -4z m307 -149 c20 -20 25 -34
25 -78 0 -83 -19 -101 -114 -105 l-76 -4 0 106 0 106 70 0 c62 0 74 -3 95 -25z
m-19 -320 c59 -24 84 -126 49 -200 -21 -42 -51 -55 -130 -55 l-65 0 0 135 0
135 55 0 c31 0 71 -7 91 -15z"/>
<path d="M3910 6665 l0 -425 209 0 c116 0 212 3 214 8 3 4 8 33 11 65 l7 57
-145 0 -146 0 0 360 0 360 -75 0 -75 0 0 -425z"/>
<path d="M4430 6665 l0 -425 75 0 75 0 -2 423 -3 422 -72 3 -73 3 0 -426z"/>
<path d="M11390 7047 c-64 -42 -75 -75 -78 -234 l-4 -143 321 0 321 0 0 60 0
60 -135 0 -135 0 0 50 c0 41 5 56 25 75 21 22 33 25 103 25 44 0 94 3 111 6
30 6 31 8 31 65 l0 58 -107 -5 c-127 -7 -166 -17 -192 -50 l-20 -25 -16 25
c-38 57 -162 76 -225 33z m164 -118 c23 -18 26 -28 26 -80 l0 -59 -90 0 -90 0
0 39 c0 48 15 92 37 109 26 19 87 15 117 -9z"/>
<path d="M1460 6920 c0 -123 1 -130 20 -130 17 0 20 7 20 50 l0 50 197 2 c195
3 196 3 199 26 l4 22 -200 0 -200 0 0 55 c0 48 -2 55 -20 55 -19 0 -20 -7 -20
-130z"/>
<path d="M7512 6945 c-99 -43 -63 -215 45 -215 49 0 75 19 117 85 38 59 69 76
93 52 19 -19 10 -47 -17 -54 -16 -4 -20 -14 -20 -49 0 -49 6 -52 55 -29 40 20
55 51 55 116 0 42 -5 55 -29 80 -25 24 -38 29 -78 29 -61 0 -85 -17 -124 -86
-26 -46 -35 -54 -60 -54 -38 0 -41 36 -3 50 22 9 25 15 22 47 -4 43 -12 47
-56 28z"/>
<path d="M9512 6949 c-50 -15 -116 -85 -143 -154 -21 -55 -23 -76 -24 -230 0
-138 3 -180 18 -221 48 -137 115 -188 247 -189 88 0 139 16 186 58 73 63 99
156 99 352 0 118 -4 152 -23 213 -27 87 -82 150 -148 170 -48 14 -164 15 -212
1z m162 -162 c20 -27 21 -41 21 -220 0 -208 -8 -251 -52 -268 -46 -17 -71 4
-97 85 -11 32 -7 324 4 366 6 21 18 46 27 55 24 24 72 15 97 -18z"/>
<path d="M10155 6944 c-74 -27 -126 -94 -156 -199 -19 -66 -19 -320 0 -395 17
-69 53 -133 90 -159 73 -52 205 -49 262 5 l26 25 7 -25 c6 -25 10 -26 76 -26
l70 0 -2 223 -3 222 -132 3 -133 3 0 -76 0 -77 38 4 37 3 -1 -50 c0 -70 -11
-102 -38 -120 -33 -22 -73 -10 -93 29 -13 23 -18 67 -21 181 -6 225 16 305 87
305 34 0 61 -30 61 -67 0 -22 3 -23 95 -23 l95 0 0 33 c-1 75 -72 165 -147
186 -53 15 -171 12 -218 -5z"/>
<path d="M10757 6945 c-83 -29 -130 -103 -130 -205 0 -40 6 -77 16 -96 22 -42
86 -98 149 -130 95 -48 129 -74 144 -110 17 -41 5 -98 -22 -108 -53 -20 -114
10 -114 57 0 37 -12 42 -104 42 l-88 0 6 -49 c9 -76 46 -130 113 -163 50 -24
70 -28 143 -28 150 1 237 61 259 180 25 139 -30 226 -198 310 -40 20 -84 47
-97 60 -44 44 -21 125 35 125 34 0 59 -25 67 -68 l7 -32 90 0 90 0 -7 47 c-10
72 -47 127 -108 157 -43 22 -65 26 -132 26 -45 -1 -98 -7 -119 -15z"/>
<path d="M8860 6560 l0 -390 219 0 218 0 7 53 c11 94 22 86 -121 89 l-128 3
-3 318 -2 317 -95 0 -95 0 0 -390z"/>
<path d="M5690 6819 c-96 -14 -187 -63 -227 -121 -43 -65 -53 -123 -53 -303
l0 -155 430 0 430 0 0 170 c0 145 -3 177 -20 223 -32 85 -105 144 -215 174
-65 17 -263 24 -345 12z m361 -231 c47 -20 69 -53 69 -100 l0 -38 -280 0 -280
0 0 29 c0 65 33 104 103 122 57 14 347 5 388 -13z"/>
<path d="M6976 6785 c-55 -19 -96 -63 -145 -155 -53 -100 -87 -130 -148 -130
-124 0 -144 168 -23 198 31 7 35 12 38 45 3 35 2 37 -28 37 -107 0 -176 -100
-151 -219 18 -89 83 -141 175 -141 91 0 137 35 197 151 47 90 83 128 135 139
77 18 138 -11 154 -72 20 -71 -12 -127 -87 -153 -33 -11 -38 -17 -41 -49 -3
-34 -1 -36 25 -36 63 1 140 55 162 113 28 72 3 196 -47 240 -49 44 -144 58
-216 32z"/>
<path d="M1850 6675 l0 -86 -81 3 -82 3 -1 75 c-1 70 -3 75 -23 78 -22 3 -23
1 -23 -77 l0 -81 -70 0 -70 0 0 80 c0 73 -2 80 -20 80 -19 0 -20 -7 -20 -105
l0 -105 218 2 217 3 0 105 c0 101 -1 105 -22 108 -22 3 -23 1 -23 -83z"/>
<path d="M8040 6670 l0 -50 217 -2 217 -3 -217 -80 -217 -79 0 -63 0 -63 320
0 320 0 0 51 0 50 -229 -3 c-126 -2 -228 -2 -227 -1 3 3 447 163 452 163 2 0
4 29 4 65 l0 65 -320 0 -320 0 0 -50z"/>
<path d="M7633 6663 l-173 -36 0 -61 0 -62 173 -33 c94 -18 179 -33 187 -34
11 -2 15 8 15 38 0 37 -2 40 -37 48 -35 8 -38 12 -38 42 0 31 3 34 40 40 40 7
40 7 40 51 0 36 -3 44 -17 43 -10 -1 -96 -17 -190 -36z m45 -118 c-2 -1 -34 2
-73 8 l-70 11 70 11 c65 10 70 9 73 -8 2 -10 2 -20 0 -22z"/>
<path d="M11683 6565 c-17 -7 -41 -27 -54 -44 -22 -30 -23 -30 -37 -10 -34 48
-135 63 -200 30 -65 -34 -77 -66 -80 -228 l-4 -143 321 0 321 0 0 123 c0 67
-5 139 -10 159 -14 48 -55 97 -97 114 -41 18 -119 17 -160 -1z m154 -140 c18
-20 23 -39 23 -81 l0 -54 -100 0 -100 0 0 53 c0 84 37 121 115 112 27 -2 47
-12 62 -30z m-293 -4 c10 -11 20 -43 23 -75 l6 -56 -88 0 -87 0 4 55 c6 71 27
95 83 95 28 0 47 -6 59 -19z"/>
<path d="M1556 6456 c-22 -8 -51 -26 -65 -41 -23 -23 -26 -35 -30 -110 l-3
-85 218 2 219 3 -3 75 c-3 84 -17 112 -72 144 -44 26 -207 33 -264 12z m213
-46 c55 -16 81 -47 81 -97 l0 -43 -175 0 -175 0 0 39 c0 47 29 87 73 100 43
12 154 13 196 1z"/>
<path d="M7525 6431 c-47 -21 -60 -49 -64 -142 l-3 -89 188 2 189 3 3 43 3 42
-74 0 -74 0 -6 46 c-7 62 -39 95 -98 100 -24 2 -53 0 -64 -5z m93 -113 c3 -27
2 -28 -42 -28 -42 0 -46 2 -46 23 0 32 9 38 50 35 30 -3 35 -7 38 -30z"/>
<path d="M6522 6253 l3 -38 358 -3 357 -2 0 40 0 40 -361 0 -360 0 3 -37z"/>
<path d="M8040 6155 l0 -55 320 0 320 0 0 55 0 55 -320 0 -320 0 0 -55z"/>
<path d="M97 6040 c-90 -49 -112 -179 -46 -264 11 -14 52 -44 90 -66 87 -51
109 -75 109 -117 0 -24 -7 -37 -25 -49 -37 -24 -72 -6 -81 41 l-6 35 -70 0
-71 0 7 -42 c9 -55 36 -98 78 -123 48 -29 179 -28 228 1 49 28 80 87 80 151 0
97 -32 141 -148 205 -77 43 -99 70 -88 111 12 51 68 45 86 -8 l12 -35 65 0 66
0 -6 42 c-6 45 -28 81 -71 112 -40 31 -157 34 -209 6z"/>
<path d="M2629 6037 c-90 -47 -132 -199 -109 -388 13 -107 37 -161 90 -197 46
-31 137 -28 174 7 23 22 23 22 29 2 4 -18 13 -21 56 -21 l51 0 0 175 0 175
-100 0 -100 0 0 -55 c0 -54 0 -55 30 -55 29 0 30 -2 30 -42 0 -58 -19 -92 -52
-96 -20 -2 -31 4 -45 24 -15 24 -18 50 -18 174 0 170 10 205 60 205 24 0 33
-6 44 -32 14 -33 15 -33 84 -33 l69 0 -7 33 c-20 96 -84 147 -185 147 -40 0
-70 -7 -101 -23z"/>
<path d="M420 5995 l0 -55 60 0 60 0 0 -250 0 -250 70 0 70 0 2 248 3 247 58
3 57 3 0 54 0 55 -190 0 -190 0 0 -55z"/>
<path d="M860 5745 l0 -306 68 3 67 3 2 120 2 120 29 3 c45 5 62 -19 62 -86 0
-31 3 -81 6 -109 l7 -53 67 0 67 0 -4 103 c-5 128 -7 139 -38 176 -25 29 -25
30 -7 40 49 26 68 146 34 211 -12 22 -35 44 -62 58 -39 19 -59 22 -172 22
l-128 0 0 -305z m227 178 c18 -24 16 -88 -3 -107 -8 -9 -32 -16 -52 -16 l-37
0 2 72 c1 40 2 75 3 77 1 11 77 -11 87 -26z"/>
<path d="M1392 6003 c-6 -27 -31 -156 -57 -288 -25 -132 -48 -248 -51 -257 -5
-16 3 -18 65 -18 77 0 69 -9 87 93 l6 38 57 -3 56 -3 9 -62 9 -63 73 0 74 0
-7 33 c-3 17 -30 153 -59 301 -30 149 -54 271 -54 273 0 2 -45 3 -99 3 l-99 0
-10 -47z m123 -178 c21 -138 22 -135 -21 -135 -32 0 -36 2 -31 23 3 12 11 66
18 119 7 53 15 96 16 94 2 -2 10 -47 18 -101z"/>
<path d="M1690 5995 l0 -54 58 -3 57 -3 3 -247 2 -248 70 0 70 0 0 250 0 250
60 0 60 0 0 55 0 55 -190 0 -190 0 0 -55z"/>
<path d="M2120 5745 l0 -305 165 0 c124 0 167 3 169 13 3 6 7 31 10 55 l6 42
-105 0 -105 0 0 75 0 74 93 3 92 3 3 53 3 52 -95 0 -96 0 0 65 0 65 95 0 95 0
0 55 0 55 -165 0 -165 0 0 -305z"/>
<path d="M2940 6047 c0 -3 32 -90 71 -193 71 -186 72 -191 77 -302 l4 -113 67
3 66 3 6 125 c6 123 7 128 66 280 87 225 87 200 4 200 l-70 0 -10 -37 c-6 -21
-21 -77 -33 -125 -13 -49 -25 -88 -28 -88 -3 0 -19 55 -35 123 l-31 122 -77 3
c-42 2 -77 1 -77 -1z"/>
<path d="M3814 6040 c-103 -22 -197 -97 -249 -200 -63 -123 -92 -358 -75 -602
15 -229 56 -347 150 -431 68 -61 129 -81 250 -82 120 0 181 20 250 82 76 68
113 143 135 276 l6 37 -115 0 -114 0 -7 -42 c-9 -58 -40 -119 -72 -142 -32
-23 -100 -26 -137 -6 -37 19 -72 81 -91 160 -21 89 -30 341 -17 470 15 144 35
206 82 252 34 35 42 38 93 38 45 0 61 -5 86 -26 30 -25 61 -101 61 -151 0 -23
2 -23 109 -23 61 0 112 4 115 9 12 19 -17 141 -49 208 -40 81 -86 124 -166
154 -59 23 -185 32 -245 19z"/>
<path d="M4330 6024 c0 -3 73 -182 163 -397 l162 -392 3 -248 3 -248 112 3
112 3 3 239 2 238 165 399 c91 219 165 401 165 404 0 3 -53 5 -119 5 l-119 0
-46 -132 c-26 -73 -71 -205 -101 -293 -30 -88 -54 -157 -54 -154 -1 8 -176
517 -189 552 l-12 27 -125 0 c-69 0 -125 -3 -125 -6z"/>
<path d="M5292 5388 l3 -643 195 -3 c287 -4 373 15 466 100 156 144 150 445
-12 558 l-51 35 37 27 c56 39 92 121 98 217 9 151 -43 250 -162 311 l-69 35
-254 3 -253 4 2 -644z m447 434 c46 -23 71 -73 71 -142 0 -120 -50 -160 -197
-160 l-93 0 0 158 c0 87 3 162 8 166 12 14 174 -3 211 -22z m10 -511 c61 -32
85 -85 85 -186 0 -86 -13 -122 -56 -163 -34 -31 -79 -42 -175 -42 l-83 0 0
211 0 212 94 -6 c67 -4 105 -11 135 -26z"/>
<path d="M6230 5385 l0 -645 330 0 c182 0 330 3 330 8 0 8 17 120 25 164 l4
28 -232 2 -232 3 0 185 0 185 208 3 208 2 -3 98 -3 97 -208 3 -208 2 3 153 3
152 218 3 217 2 0 100 0 100 -330 0 -330 0 0 -645z"/>
<path d="M7060 5386 l0 -647 113 3 112 3 3 273 2 272 83 0 c97 0 141 -18 171
-70 18 -30 21 -60 27 -236 4 -121 11 -209 18 -222 11 -20 19 -22 116 -22 l105
0 -5 123 c-3 67 -7 170 -10 228 -6 137 -29 203 -90 257 l-44 39 43 30 c32 23
53 50 77 99 31 63 34 75 33 164 -1 165 -65 271 -192 321 -53 21 -76 23 -309
27 l-253 4 0 -646z m445 440 c66 -28 98 -122 76 -221 -21 -93 -75 -125 -213
-125 l-78 0 0 180 0 180 90 0 c56 0 104 -5 125 -14z"/>
<path d="M8425 6002 c-49 -23 -86 -66 -126 -143 -38 -76 -63 -99 -109 -99 -86
0 -98 110 -15 126 35 6 35 6 35 60 0 53 0 54 -30 54 -86 0 -150 -74 -150 -172
1 -132 98 -209 224 -177 55 14 102 61 145 148 37 72 71 101 120 101 53 0 81
-23 81 -66 0 -51 -15 -72 -60 -85 l-40 -12 0 -54 c0 -51 1 -53 28 -53 34 0
101 31 124 56 27 31 39 74 39 141 0 115 -59 181 -169 189 -42 4 -67 0 -97 -14z"/>
<path d="M8987 5996 c-89 -25 -137 -92 -137 -191 0 -101 41 -150 186 -223 81
-41 114 -80 114 -135 -1 -49 -15 -72 -55 -87 -58 -22 -115 14 -130 80 -6 29
-8 30 -71 30 l-64 0 0 -32 c1 -48 33 -112 71 -140 51 -38 103 -51 181 -46 124
9 196 77 206 195 9 110 -43 180 -187 252 -110 56 -142 103 -110 164 16 30 28
37 70 37 42 0 66 -22 75 -68 l7 -32 65 0 65 0 -5 44 c-14 123 -141 191 -281
152z"/>
<path d="M10031 5998 c-64 -14 -124 -78 -149 -160 -45 -143 -37 -373 16 -478
23 -45 36 -59 82 -83 50 -26 62 -28 128 -24 60 3 80 9 115 33 44 31 82 95 93
157 l6 38 -68 -3 c-67 -3 -68 -4 -74 -33 -10 -48 -29 -74 -57 -81 -38 -10 -74
7 -96 43 -28 50 -43 203 -30 317 13 109 30 148 73 166 55 23 100 -12 112 -85
3 -17 12 -20 72 -23 l68 -3 -7 43 c-16 97 -71 159 -155 177 -58 13 -69 12
-129 -1z"/>
<path d="M9385 5987 c-3 -6 -4 -172 -3 -367 l3 -355 192 -3 193 -2 5 22 c3 13
6 39 8 58 l2 35 -132 3 -133 3 0 104 0 105 120 0 120 0 0 55 0 55 -120 0 -120
0 0 90 0 90 125 0 125 0 0 60 0 60 -190 0 c-144 0 -192 -3 -195 -13z"/>
<path d="M10410 5703 c0 -331 4 -351 69 -406 82 -69 255 -63 330 12 57 57 61
84 61 405 l0 286 -65 0 -65 0 0 -267 c0 -154 -5 -284 -10 -305 -13 -45 -43
-68 -88 -68 -46 0 -80 25 -92 69 -5 20 -10 154 -10 304 l0 267 -65 0 -65 0 0
-297z"/>
<path d="M10997 5993 c-4 -3 -7 -170 -7 -370 l0 -364 68 3 67 3 3 159 3 159
57 -7 c88 -10 97 -25 105 -177 4 -68 11 -127 16 -132 4 -4 34 -7 66 -5 l58 3
-2 105 c-3 138 -16 197 -52 231 l-29 27 39 38 c78 79 64 228 -29 295 -14 11
-49 23 -79 29 -60 11 -274 14 -284 3z m284 -132 c13 -16 19 -39 19 -75 0 -72
-27 -98 -110 -104 l-60 -4 0 107 0 107 66 -4 c55 -3 70 -8 85 -27z"/>
<path d="M11547 5993 c-4 -3 -7 -170 -7 -370 l0 -363 195 0 194 0 5 33 c3 17
7 43 8 57 l3 25 -138 3 -138 3 3 102 3 102 123 3 122 3 0 54 0 54 -122 3 -123
3 -3 88 -3 87 131 0 130 0 0 60 0 60 -188 0 c-104 0 -192 -3 -195 -7z"/>
<path d="M8040 5506 l0 -56 213 -1 c116 0 234 -4 261 -8 85 -14 112 -77 57
-132 l-29 -29 -251 0 -251 0 0 -61 0 -61 258 4 c243 3 260 4 303 26 64 31 90
80 90 172 0 88 -27 143 -86 174 -37 19 -59 21 -302 24 l-263 3 0 -55z"/>
<path d="M2373 5289 c-87 -18 -131 -95 -140 -242 -9 -157 23 -266 88 -300 50
-26 140 -19 175 14 33 31 54 71 54 104 0 24 -3 26 -32 23 -26 -2 -33 -9 -40
-34 -12 -46 -39 -66 -85 -62 -34 3 -40 8 -61 50 -21 42 -24 62 -24 167 0 107
2 126 23 168 22 44 27 48 64 51 51 3 63 -6 80 -54 11 -33 18 -40 44 -42 29 -3
31 -1 31 28 0 35 -19 77 -47 102 -24 22 -90 36 -130 27z"/>
<path d="M935 5268 c-3 -13 -32 -132 -65 -266 -33 -133 -60 -247 -60 -252 0
-6 15 -10 33 -10 32 0 32 0 50 80 l18 80 74 0 73 0 18 -80 17 -80 39 0 c33 0
38 3 34 18 -3 9 -30 116 -61 237 -31 121 -61 237 -66 258 -9 36 -11 37 -54 37
-38 0 -45 -3 -50 -22z m105 -295 c0 -9 -17 -13 -55 -13 -30 0 -55 5 -55 10 0
10 34 173 47 220 4 19 13 -3 34 -90 16 -63 28 -121 29 -127z"/>
<path d="M1150 5260 l0 -30 60 0 60 0 0 -245 0 -245 35 0 35 0 0 245 0 245 66
0 65 0 -3 28 -3 27 -157 3 -158 3 0 -31z"/>
<path d="M1517 5283 c-4 -3 -7 -17 -7 -30 0 -22 4 -23 65 -23 l65 0 0 -245 0
-245 35 0 35 0 0 245 0 245 60 0 60 0 0 30 0 30 -153 0 c-85 0 -157 -3 -160
-7z"/>
<path d="M1941 5253 c-6 -21 -37 -145 -69 -276 l-60 -238 36 3 c33 3 37 6 45
43 5 22 13 57 18 78 l10 37 73 0 73 0 17 -80 18 -80 38 0 38 0 -69 270 c-38
148 -69 272 -69 275 0 3 -20 5 -45 5 -43 0 -45 -1 -54 -37z m109 -285 c0 -5
-25 -8 -55 -8 -42 0 -55 4 -55 15 0 17 39 202 47 225 4 12 61 -199 63 -232z"/>
<path d="M2647 5283 c-4 -3 -7 -127 -7 -275 l0 -268 35 0 35 0 0 98 c1 94 2
98 31 132 21 24 32 31 36 21 3 -7 32 -67 64 -132 l58 -119 41 0 40 0 -82 164
-82 164 77 105 c42 58 77 108 77 112 0 3 -17 5 -37 3 -36 -3 -42 -9 -128 -133
l-90 -130 -3 133 -3 132 -28 0 c-15 0 -31 -3 -34 -7z"/>
<path d="M3099 5273 c-39 -24 -59 -65 -59 -120 0 -68 24 -101 108 -147 95 -52
115 -74 116 -130 2 -104 -122 -132 -162 -36 -15 35 -21 40 -49 40 -37 0 -41
-12 -19 -63 24 -56 59 -80 126 -85 35 -3 72 1 90 8 99 41 118 186 34 259 -19
17 -57 42 -85 56 -71 36 -89 58 -89 105 0 93 111 113 140 25 10 -31 16 -35 46
-35 39 0 41 8 15 67 -12 25 -32 48 -50 57 -39 21 -128 20 -162 -1z"/>
<path d="M8830 5113 c1 -4 25 -93 54 -198 l52 -190 47 -3 46 -3 15 53 c8 29
31 112 51 183 20 72 38 138 41 148 4 14 -1 17 -36 17 -24 0 -42 -5 -44 -12 -3
-7 -19 -78 -38 -157 l-33 -144 -35 154 -35 154 -42 3 c-24 2 -43 0 -43 -5z"/>
<path d="M9184 5105 c-4 -8 -5 -82 -3 -163 5 -167 13 -192 77 -219 44 -18 116
-11 152 15 39 29 49 74 49 235 l1 147 -40 0 -40 0 0 -144 c0 -80 -4 -156 -9
-169 -11 -28 -41 -42 -69 -32 -34 10 -42 50 -42 200 l0 145 -35 0 c-23 0 -38
-6 -41 -15z"/>
<path d="M9530 4920 l0 -200 115 0 115 0 0 30 0 30 -75 0 -75 0 0 170 0 170
-40 0 -40 0 0 -200z"/>
<path d="M9810 4921 l0 -201 35 0 35 0 0 143 1 142 56 -142 56 -143 44 0 43 0
0 200 0 200 -35 0 -34 0 -3 -132 -3 -132 -51 129 -52 130 -46 3 -46 3 0 -200z"/>
<path d="M10160 4920 l0 -200 114 0 c109 0 114 1 120 23 3 12 6 25 6 30 0 4
-36 7 -80 7 l-80 0 0 60 0 60 70 0 70 0 0 30 0 30 -70 0 -70 0 0 50 0 50 75 0
75 0 0 30 0 30 -115 0 -115 0 0 -200z"/>
<path d="M10454 5107 c-2 -7 -3 -96 -2 -197 l3 -185 38 -3 37 -3 0 85 0 86 33
0 c53 0 61 -12 67 -92 l5 -73 39 -3 38 -3 -3 79 c-3 61 -9 85 -23 101 -19 21
-19 22 3 45 15 16 22 37 23 63 1 85 -40 113 -167 113 -60 0 -87 -4 -91 -13z
m173 -73 c15 -24 15 -29 2 -53 -12 -21 -23 -27 -57 -29 l-42 -3 0 55 0 56 40
0 c32 0 43 -5 57 -26z"/>
<path d="M10807 4932 c-26 -103 -47 -193 -47 -200 0 -9 12 -12 37 -10 37 3 38
5 47 51 l8 47 53 0 53 0 8 -47 c9 -48 9 -48 52 -51 38 -3 43 -1 38 15 -2 10
-26 100 -52 201 l-47 182 -51 0 -51 0 -48 -188z m113 51 c6 -32 14 -68 17 -80
5 -21 1 -23 -31 -23 -20 0 -36 4 -36 9 0 14 32 151 35 151 2 0 9 -26 15 -57z"/>
<path d="M11105 5108 c-3 -7 -4 -97 -3 -198 l3 -185 75 -3 c98 -4 145 10 170
51 30 49 26 102 -9 138 -16 16 -25 29 -20 29 17 0 41 70 34 100 -3 15 -17 38
-31 51 -23 21 -37 24 -120 27 -73 3 -95 1 -99 -10z m163 -60 c7 -7 12 -24 12
-40 0 -32 -24 -48 -69 -48 -30 0 -31 1 -31 50 l0 50 38 0 c21 0 43 -5 50 -12z
m6 -164 c18 -18 21 -56 6 -85 -8 -14 -21 -19 -55 -19 l-45 0 0 60 0 60 39 0
c23 0 46 -7 55 -16z"/>
<path d="M11430 4920 l0 -201 113 3 112 3 3 28 3 27 -75 0 -76 0 0 170 0 170
-40 0 -40 0 0 -200z"/>
<path d="M11710 4920 l0 -201 113 3 112 3 3 28 3 27 -75 0 -76 0 0 60 0 60 70
0 70 0 0 30 0 30 -70 0 -70 0 0 50 0 50 70 0 70 0 0 30 0 30 -110 0 -110 0 0
-200z"/>
<path d="M8423 5079 c-18 -5 -45 -25 -60 -43 l-27 -34 -18 23 c-38 49 -160 59
-216 18 -51 -37 -62 -75 -62 -215 l0 -128 320 0 320 0 0 127 c0 147 -16 197
-76 234 -40 24 -132 34 -181 18z m145 -129 c17 -17 22 -32 22 -75 l0 -55 -100
0 -100 0 0 50 c0 72 29 100 103 100 40 0 59 -5 75 -20z m-300 -7 c13 -12 23
-36 27 -70 l7 -53 -86 0 -86 0 0 44 c0 61 29 96 80 96 22 0 46 -7 58 -17z"/>
<path d="M2203 4545 c-47 -20 -73 -68 -73 -134 0 -74 25 -110 102 -151 86 -46
108 -70 108 -119 0 -30 -6 -44 -22 -55 -45 -31 -84 -14 -107 47 -9 24 -15 27
-57 27 l-47 0 6 -37 c7 -42 30 -77 71 -107 21 -16 42 -21 89 -21 107 0 167 58
167 160 0 78 -31 119 -135 177 -71 40 -94 73 -79 115 8 24 15 28 49 28 36 0
41 -3 50 -32 9 -31 12 -33 57 -33 56 0 59 9 29 76 -31 67 -127 95 -208 59z"/>
<path d="M2980 4542 c-76 -38 -106 -131 -97 -304 8 -173 56 -243 167 -243 100
1 148 51 171 179 13 77 7 210 -12 266 -36 106 -135 150 -229 102z m107 -77
c32 -22 47 -104 41 -222 -6 -125 -23 -163 -73 -163 -50 0 -68 39 -73 162 -5
120 3 179 29 212 23 30 45 33 76 11z"/>
<path d="M3794 4546 c-72 -31 -101 -120 -66 -198 16 -38 32 -53 98 -93 91 -55
103 -68 104 -112 1 -89 -109 -97 -130 -10 -5 18 -14 23 -53 25 -42 3 -47 1
-47 -17 0 -43 32 -101 69 -123 48 -30 141 -32 189 -3 61 37 89 135 58 208 -16
39 -51 69 -135 116 -66 37 -81 63 -65 110 18 50 104 34 104 -20 0 -16 7 -19
51 -19 l51 0 -7 33 c-20 97 -124 145 -221 103z"/>
<path d="M1150 4481 l0 -71 -177 -2 -178 -3 0 -50 0 -50 223 -3 223 -2 -3 122
-3 123 -42 3 -43 3 0 -70z"/>
<path d="M1390 4275 l0 -275 45 0 44 0 3 118 3 117 44 -1 c54 -1 71 -21 71
-83 0 -25 3 -70 7 -99 l6 -53 45 3 45 3 -2 85 c-2 104 -15 155 -42 174 -21 14
-21 14 -1 25 23 12 52 79 52 119 0 15 -9 45 -19 68 -27 60 -65 74 -195 74
l-106 0 0 -275z m204 173 c22 -31 20 -84 -4 -108 -14 -14 -33 -20 -65 -20
l-45 0 0 75 0 75 49 0 c40 0 53 -4 65 -22z"/>
<path d="M1780 4275 l0 -275 140 0 c112 0 140 3 140 14 0 7 3 28 6 45 l7 31
-97 0 -96 0 0 80 0 80 85 0 85 0 0 40 0 40 -85 0 -85 0 0 70 0 70 90 0 90 0 0
40 0 40 -140 0 -140 0 0 -275z"/>
<path d="M2510 4274 l0 -275 48 3 47 3 3 113 3 112 57 0 c102 0 156 55 156
160 1 68 -25 118 -74 142 -27 14 -60 18 -137 18 l-103 0 0 -276z m200 176 c25
-25 27 -90 3 -119 -11 -12 -36 -23 -60 -27 l-43 -7 0 87 0 86 40 0 c27 0 47
-7 60 -20z"/>
<path d="M3302 4278 l3 -273 43 -3 42 -3 0 198 1 198 32 -90 c18 -49 50 -139
71 -198 l39 -108 51 3 51 3 3 273 2 272 -45 0 -45 0 0 -182 -1 -183 -67 182
-67 183 -58 0 -57 0 2 -272z"/>
<path d="M4100 4275 l0 -275 134 0 c74 0 137 3 139 8 3 4 7 23 9 42 l3 35 -97
3 -98 3 0 79 0 80 90 0 90 0 0 40 0 40 -90 0 -91 0 3 68 3 67 88 3 87 3 0 39
0 40 -135 0 -135 0 0 -275z"/>
<path d="M4760 4475 l0 -75 40 0 c34 0 40 3 40 21 0 18 5 20 48 17 42 -3 47
-6 50 -29 3 -22 -2 -29 -29 -38 -41 -14 -186 -14 -227 0 -50 17 -53 52 -6 69
20 8 24 16 24 55 0 42 -2 45 -26 45 -64 0 -110 -57 -108 -135 2 -98 57 -138
202 -143 135 -6 179 3 219 43 27 27 33 41 33 77 0 24 -7 54 -16 66 -8 12 -10
22 -5 22 6 0 11 18 11 40 l0 40 -125 0 -125 0 0 -75z"/>
<path d="M5453 4535 c-145 -40 -215 -138 -216 -300 -1 -144 64 -235 231 -326
132 -71 171 -101 193 -147 16 -33 20 -53 15 -85 -10 -61 -39 -87 -97 -87 -40
0 -51 4 -73 30 -14 17 -28 49 -32 75 l-6 45 -130 0 -131 0 7 -46 c18 -134 62
-203 161 -254 67 -35 69 -35 199 -35 120 0 136 2 187 26 66 31 119 83 150 147
20 40 23 63 23 152 0 88 -3 112 -22 150 -41 84 -108 140 -267 224 -49 26 -102
59 -117 74 -67 63 -38 182 45 182 50 0 74 -23 88 -85 l12 -55 125 0 125 0 -7
56 c-14 117 -73 202 -171 245 -65 29 -215 36 -292 14z"/>
<path d="M7133 4540 c-140 -30 -228 -139 -270 -335 -20 -95 -20 -382 1 -488
42 -217 138 -306 337 -315 230 -10 348 90 384 326 l7 42 -131 0 -130 0 -6 -37
c-11 -70 -15 -80 -36 -106 -29 -38 -89 -38 -118 -1 -35 45 -43 93 -48 294 -8
301 15 406 90 424 31 8 42 6 65 -11 28 -21 37 -42 47 -105 l6 -38 129 0 c98 0
130 3 130 13 -1 34 -31 150 -49 185 -51 100 -145 153 -280 158 -47 2 -105 -1
-128 -6z"/>
<path d="M6090 3975 l0 -555 308 0 309 0 14 98 14 97 -192 3 -193 2 0 135 0
135 170 0 170 0 0 105 0 105 -170 0 -170 0 0 110 0 110 180 0 180 0 0 105 0
105 -310 0 -310 0 0 -555z"/>
<path d="M7732 4083 c4 -486 4 -491 61 -565 69 -90 131 -113 308 -113 124 0
127 0 195 35 78 40 124 93 151 173 14 45 17 112 21 485 l4 432 -136 0 -136 0
0 -420 c0 -448 -3 -475 -48 -499 -30 -16 -84 -13 -111 5 -49 35 -51 53 -51
499 l0 415 -130 0 -131 0 3 -447z"/>
<path d="M8650 3975 l0 -555 130 0 130 0 0 225 0 225 49 0 c62 0 96 -13 112
-42 9 -15 15 -88 19 -204 4 -99 10 -186 14 -192 5 -8 46 -12 130 -12 l123 0
-3 88 c-2 48 -5 137 -8 198 -4 129 -22 181 -81 233 -36 31 -37 34 -19 44 38
21 83 78 99 128 13 38 16 74 13 138 -5 106 -38 176 -104 222 -73 50 -133 59
-381 59 l-223 0 0 -555z m399 351 c36 -19 51 -55 51 -122 0 -60 -19 -107 -49
-124 -11 -5 -47 -10 -80 -10 l-61 0 0 135 0 135 55 0 c31 0 68 -6 84 -14z"/>
<path d="M9520 3975 l0 -555 130 0 130 0 0 555 0 555 -130 0 -130 0 0 -555z"/>
<path d="M9910 4425 l0 -105 110 0 110 0 0 -450 0 -450 130 0 130 0 0 450 0
450 110 0 110 0 0 105 0 105 -350 0 -350 0 0 -105z"/>
<path d="M10700 4526 c0 -3 61 -165 135 -361 l135 -356 0 -195 0 -194 129 0
130 0 3 198 3 197 134 345 c73 190 136 351 138 358 4 9 -26 12 -130 12 l-134
0 -46 -172 c-25 -95 -54 -204 -63 -242 -13 -54 -19 -65 -25 -50 -5 10 -34 119
-65 242 l-58 222 -143 0 c-79 0 -143 -2 -143 -4z"/>
<path d="M12554 4511 c-30 -19 -54 -64 -54 -103 0 -38 31 -85 75 -112 61 -39
77 -59 73 -93 -2 -20 -9 -29 -26 -31 -18 -3 -25 3 -33 27 -10 27 -16 31 -48
31 -21 0 -40 -2 -43 -5 -3 -3 -1 -24 4 -46 14 -54 48 -79 110 -79 91 0 128 38
128 129 0 57 -21 89 -85 126 -57 34 -69 49 -61 81 9 33 36 29 54 -9 10 -21 20
-27 47 -27 42 0 47 7 34 54 -19 68 -109 97 -175 57z"/>
<path d="M11705 4498 c-17 -71 -71 -389 -67 -393 3 -3 22 -5 43 -5 38 0 49 14
49 68 0 19 5 22 40 22 35 0 40 -3 40 -22 0 -57 10 -68 56 -68 24 0 44 3 44 8
0 4 -17 98 -37 210 l-38 202 -62 0 c-57 0 -63 -2 -68 -22z m84 -200 c1 -22 -4
-28 -20 -28 -19 0 -20 4 -14 68 4 37 10 72 14 77 6 10 18 -63 20 -117z"/>
<path d="M11942 4313 l3 -208 43 -3 42 -3 0 85 0 86 34 0 c81 0 119 39 119
123 0 99 -36 127 -163 127 l-80 0 2 -207z m150 106 c13 -39 -6 -79 -37 -79
-24 0 -25 3 -25 56 0 54 1 55 27 52 18 -2 29 -11 35 -29z"/>
<path d="M12222 4313 l3 -208 42 -3 42 -3 3 83 3 83 47 5 c56 7 84 30 99 81
16 51 3 106 -31 141 -27 27 -33 28 -119 28 l-91 0 2 -207z m152 105 c14 -39
-6 -78 -39 -78 -24 0 -25 3 -25 56 0 54 0 55 27 52 20 -2 30 -11 37 -30z"/>
<path d="M1160 4176 l0 -76 -55 0 -55 0 0 70 0 70 -40 0 -40 0 0 -70 0 -70
-45 0 -45 0 0 70 0 70 -45 0 -46 0 3 -122 3 -123 223 -3 223 -2 -3 127 -3 128
-37 3 -38 3 0 -75z"/>
<path d="M4570 4144 l0 -47 130 5 c72 3 129 3 127 2 -2 -2 -59 -21 -128 -42
l-124 -39 -3 -56 -3 -57 221 0 220 0 0 45 0 44 -131 3 -132 3 132 39 131 39 0
53 0 54 -220 0 -220 0 0 -46z"/>
<path d="M11982 3985 c-30 -13 -33 -18 -30 -52 3 -32 9 -40 48 -63 34 -20 45
-32 45 -51 0 -32 -39 -39 -55 -10 -12 24 -50 28 -50 6 0 -29 38 -55 80 -55 63
0 98 48 71 99 -6 10 -28 26 -50 35 -39 18 -56 39 -45 57 9 15 44 10 50 -6 9
-22 44 -19 44 4 0 38 -57 57 -108 36z"/>
<path d="M11652 3878 c3 -109 4 -113 26 -116 22 -3 22 -2 22 112 l0 116 -25 0
-26 0 3 -112z"/>
<path d="M11750 3876 c0 -109 1 -116 20 -116 17 0 19 8 22 77 l3 76 31 -74
c26 -64 34 -74 57 -77 l27 -3 0 115 c0 109 -1 116 -20 116 -17 0 -19 -8 -22
-77 l-3 -76 -31 74 c-26 64 -34 74 -57 77 l-27 3 0 -115z"/>
<path d="M12132 3878 c3 -109 4 -113 26 -116 22 -3 22 -2 22 112 l0 116 -25 0
-26 0 3 -112z"/>
<path d="M12230 3875 l0 -115 39 0 c56 0 88 15 106 49 29 57 12 159 -30 175
-9 3 -39 6 -66 6 l-49 0 0 -115z m94 69 c18 -18 22 -95 6 -125 -6 -11 -21 -19
-35 -19 -24 0 -25 2 -25 73 0 41 3 77 7 80 11 12 31 8 47 -9z"/>
<path d="M12430 3875 l0 -115 64 0 c60 0 76 8 76 36 0 2 -22 4 -50 4 -49 0
-50 1 -50 29 0 28 3 30 42 33 31 2 44 8 46 21 3 14 -4 17 -43 17 -45 0 -46 1
-43 28 3 24 7 27 46 30 28 2 42 8 42 18 0 11 -15 14 -65 14 l-65 0 0 -115z"/>
<path d="M12600 3875 c0 -108 1 -115 20 -115 17 0 20 7 20 51 0 49 1 50 28 47
24 -3 28 -8 32 -48 4 -37 9 -46 28 -48 20 -3 22 1 22 42 0 26 -6 51 -15 59
-13 13 -13 16 0 27 21 17 19 64 -3 83 -13 12 -37 17 -75 17 l-57 0 0 -115z
m100 66 c7 -15 6 -24 -6 -36 -25 -25 -49 -15 -52 23 -3 28 0 32 22 32 15 0 30
-8 36 -19z"/>
<path d="M895 3920 c-72 -22 -110 -108 -103 -233 l3 -52 224 -3 224 -2 -5 100
c-6 112 -17 139 -79 175 -27 15 -55 20 -134 22 -55 1 -114 -2 -130 -7z m228
-111 c27 -14 37 -28 37 -51 0 -16 -14 -18 -145 -18 -131 0 -145 2 -145 18 1
45 37 61 143 62 49 0 98 -5 110 -11z"/>
<path d="M4577 3833 c-4 -3 -7 -26 -7 -50 l0 -43 220 0 220 0 0 50 0 50 -213
0 c-118 0 -217 -3 -220 -7z"/>
<path d="M1982 3815 c-47 -21 -66 -70 -66 -175 0 -107 19 -155 69 -176 63 -26
126 7 145 75 16 57 12 175 -7 222 -11 30 -25 45 -49 55 -41 17 -50 17 -92 -1z
m93 -49 c38 -57 26 -244 -17 -267 -33 -18 -62 -6 -81 31 -26 50 -21 208 7 239
26 29 71 28 91 -3z"/>
<path d="M2714 3814 c-48 -23 -68 -79 -68 -183 1 -61 6 -96 18 -119 21 -40 72
-64 116 -56 55 11 110 104 61 104 -11 0 -23 -12 -31 -30 -13 -31 -47 -47 -75
-36 -44 16 -62 187 -27 256 15 30 22 35 52 35 30 0 37 -5 49 -32 9 -20 22 -33
33 -33 41 0 5 82 -43 99 -41 14 -48 14 -85 -5z"/>
<path d="M3323 3815 c-43 -18 -65 -66 -71 -150 -5 -82 9 -144 42 -182 31 -36
104 -38 140 -4 60 57 63 264 4 318 -31 28 -76 35 -115 18z m73 -33 c26 -17 38
-60 38 -142 0 -82 -12 -125 -38 -142 -20 -14 -53 -8 -70 11 -38 42 -38 220 0
262 17 19 50 25 70 11z"/>
<path d="M1400 3640 l0 -180 25 0 c25 0 25 1 25 80 l0 80 49 0 c88 0 134 69
97 146 -20 42 -48 54 -132 54 l-64 0 0 -180z m138 134 c16 -11 22 -25 22 -51
0 -49 -24 -73 -72 -73 l-38 0 0 70 0 70 33 0 c18 0 43 -7 55 -16z"/>
<path d="M1660 3641 c0 -173 1 -181 20 -181 17 0 19 8 22 83 l3 82 37 -1 c53
-2 68 -18 68 -73 0 -65 9 -91 31 -91 16 0 19 8 19 58 0 36 -7 71 -18 93 -18
35 -18 37 0 59 24 29 23 91 -1 121 -17 21 -30 24 -100 27 l-81 4 0 -181z m140
129 c45 -45 10 -110 -60 -110 l-40 0 0 58 c0 32 3 62 7 65 14 15 74 6 93 -13z"/>
<path d="M2160 3806 c0 -10 14 -16 43 -18 l42 -3 3 -162 c2 -154 4 -163 22
-163 18 0 20 9 22 163 l3 162 43 3 c28 2 42 8 42 18 0 11 -21 14 -110 14 -89
0 -110 -3 -110 -14z"/>
<path d="M2420 3640 l0 -180 89 0 c69 0 90 3 94 15 5 11 -8 15 -66 17 l-72 3
-3 68 -3 67 66 0 c58 0 65 2 65 20 0 18 -7 20 -65 20 l-66 0 3 58 3 57 68 3
c51 2 67 6 67 17 0 12 -18 15 -90 15 l-90 0 0 -180z"/>
<path d="M2890 3805 c0 -11 11 -15 40 -15 l40 0 0 -165 0 -165 25 0 25 0 0
165 0 165 40 0 c29 0 40 4 40 15 0 12 -18 15 -105 15 -87 0 -105 -3 -105 -15z"/>
<path d="M3144 3807 c-2 -7 -3 -87 -2 -177 3 -163 3 -165 26 -168 l22 -3 0
180 c0 175 -1 181 -20 181 -11 0 -23 -6 -26 -13z"/>
<path d="M3540 3640 c0 -173 1 -180 20 -180 19 0 20 7 20 153 l1 152 65 -152
c59 -136 69 -153 90 -153 l24 0 0 180 c0 175 -1 180 -21 180 -19 0 -20 -4 -17
-140 2 -77 1 -140 -2 -140 -3 0 -31 63 -63 140 -57 134 -60 140 -88 140 l-29
0 0 -180z"/>
<path d="M3989 3781 c-28 -28 -29 -33 -29 -120 l0 -91 216 0 215 0 -3 33 -3
32 -92 3 -93 3 0 29 c0 44 23 60 85 60 78 0 105 13 105 50 l0 30 -73 0 c-53 0
-83 -5 -111 -20 -39 -19 -39 -19 -64 0 -17 14 -40 20 -74 20 -41 0 -54 -5 -79
-29z m133 -58 c10 -9 18 -30 18 -50 l0 -33 -60 0 -60 0 0 34 c0 19 7 42 16 50
20 21 63 20 86 -1z"/>
<path d="M4570 3555 l0 -135 40 0 40 0 0 40 0 40 180 0 180 0 0 50 0 50 -177
2 -178 3 -3 43 c-3 42 -3 42 -43 42 l-39 0 0 -135z"/>
<path d="M11630 3646 c0 -19 6 -25 28 -28 l27 -3 3 -102 3 -103 29 0 30 0 0
105 0 105 31 0 c26 0 30 3 27 23 -3 21 -8 22 -90 25 -88 3 -88 3 -88 -22z"/>
<path d="M11837 3663 c-4 -3 -7 -62 -7 -130 l0 -123 35 0 35 0 0 50 c0 42 3
50 19 50 15 0 20 -10 25 -50 6 -47 8 -50 36 -50 29 0 30 1 30 49 0 31 -5 53
-15 61 -14 12 -14 15 0 30 16 17 20 67 7 87 -4 6 -20 17 -35 22 -31 12 -120
15 -130 4z m108 -73 c0 -18 -6 -26 -22 -28 -20 -3 -23 1 -23 28 0 27 3 31 23
28 16 -2 22 -10 22 -28z"/>
<path d="M12085 3648 c-3 -13 -16 -71 -29 -130 l-23 -108 32 0 c27 0 34 5 39
25 5 18 13 25 31 25 18 0 26 -7 31 -25 5 -21 12 -25 41 -25 28 0 33 3 29 18
-3 9 -15 60 -26 112 -30 139 -25 130 -75 130 -38 0 -45 -3 -50 -22z m64 -115
c1 -14 -5 -23 -14 -23 -17 0 -18 12 -8 61 7 33 7 33 14 9 4 -14 7 -35 8 -47z"/>
<path d="M12260 3541 l0 -131 35 0 36 0 -3 128 -3 127 -32 3 -33 3 0 -130z"/>
<path d="M12370 3541 l0 -131 74 0 c58 0 75 3 80 16 10 25 -2 34 -44 34 l-39
0 -3 103 -3 102 -32 3 -33 3 0 -130z"/>
<path d="M12572 3647 c-24 -26 -29 -65 -9 -89 6 -9 31 -28 55 -42 26 -17 42
-34 42 -46 0 -24 -38 -28 -46 -5 -4 9 -19 15 -40 15 -32 0 -33 -1 -23 -29 17
-48 82 -65 138 -36 69 35 47 119 -39 155 -34 14 -44 34 -25 50 16 14 35 5 35
-16 0 -9 11 -14 30 -14 23 0 30 4 30 20 0 58 -104 84 -148 37z"/>
<path d="M887 3556 c-75 -27 -101 -71 -95 -157 5 -67 22 -92 83 -120 47 -22
210 -26 266 -8 144 48 138 248 -8 288 -53 15 -200 13 -246 -3z m246 -105 c31
-12 39 -34 22 -58 -11 -15 -30 -19 -122 -21 -126 -4 -163 6 -163 43 0 17 7 29
23 35 29 12 209 12 240 1z"/>
<path d="M4320 3445 l0 -75 -66 0 -66 0 4 65 3 65 -32 0 -33 0 0 -65 0 -65
-55 0 -55 0 0 70 0 70 -30 0 -30 0 0 -105 0 -105 215 0 215 0 0 104 c0 99 -1
104 -22 110 -46 12 -48 10 -48 -69z"/>
<path d="M4570 3320 l0 -50 176 -2 c156 -3 178 -5 188 -20 8 -13 8 -23 0 -35
-10 -16 -32 -18 -188 -21 l-176 -2 0 -50 0 -50 180 0 c200 0 227 6 255 60 20
38 19 123 -1 161 -26 51 -62 59 -259 59 l-175 0 0 -50z"/>
<path d="M3174 3326 c-73 -32 -99 -100 -99 -261 0 -109 2 -125 25 -169 30 -58
75 -86 138 -86 79 0 137 40 161 109 19 58 17 61 -47 61 -56 0 -58 -1 -67 -32
-14 -43 -39 -58 -62 -35 -16 15 -18 37 -18 162 0 120 3 147 16 161 24 23 58 9
66 -27 5 -28 7 -29 65 -29 l60 0 -7 33 c-11 50 -37 88 -75 108 -41 22 -111 24
-156 5z"/>
<path d="M1400 3075 l0 -255 60 0 60 0 0 100 0 100 48 0 c56 0 108 24 136 63
30 40 30 144 0 184 -37 50 -77 63 -196 63 l-108 0 0 -255z m200 146 c15 -29
12 -77 -6 -95 -8 -9 -29 -16 -45 -16 l-29 0 0 65 0 65 35 0 c24 0 37 -6 45
-19z"/>
<path d="M1780 3075 l0 -255 60 0 60 0 0 105 c0 105 0 105 24 105 43 0 56 -24
56 -105 0 -102 2 -105 66 -105 l54 0 0 74 c0 96 -8 132 -34 157 l-22 21 28 28
c24 25 28 36 28 85 0 116 -41 145 -209 145 l-111 0 0 -255z m204 128 c12 -45
-13 -83 -54 -83 -30 0 -30 0 -30 61 l0 60 37 -3 c32 -3 39 -7 47 -35z"/>
<path d="M2170 3075 l0 -255 55 0 55 0 0 255 0 255 -55 0 -55 0 0 -255z"/>
<path d="M2377 3088 c29 -134 55 -249 58 -255 3 -9 28 -13 75 -13 47 0 72 4
75 13 3 6 29 121 58 255 l54 242 -62 0 -61 0 -28 -177 c-15 -98 -29 -185 -30
-193 -4 -21 -11 14 -36 180 -31 210 -21 190 -94 190 l-63 0 54 -242z"/>
<path d="M2724 3075 l-51 -255 58 0 c63 0 61 -2 74 73 l6 38 47 -3 47 -3 8
-52 9 -53 59 0 c50 0 59 3 59 18 -1 9 -22 123 -48 252 l-48 235 -85 3 -84 3
-51 -256z m146 69 c6 -43 13 -87 16 -96 4 -14 -1 -18 -25 -18 -17 0 -31 5 -31
11 0 24 24 189 27 186 1 -2 7 -39 13 -83z"/>
<path d="M3430 3321 c0 -5 27 -80 60 -167 57 -150 60 -164 60 -246 l0 -88 60
0 60 0 0 93 c0 88 3 100 54 232 79 207 78 185 7 185 l-60 0 -10 -37 c-6 -21
-18 -69 -27 -107 -10 -41 -20 -63 -24 -55 -4 8 -18 56 -31 107 l-24 92 -62 0
c-35 0 -63 -4 -63 -9z"/>
<path d="M8140 2810 l0 -450 71 0 71 0 -4 379 c-1 209 -2 379 -1 378 1 -1 27
-157 57 -347 31 -190 58 -360 61 -377 l6 -33 73 0 73 0 17 93 c9 50 39 218 66
372 28 154 52 284 53 289 2 5 1 -162 -1 -372 l-5 -382 79 0 79 0 -2 447 -3
448 -115 3 c-63 1 -115 0 -115 -3 0 -2 -25 -131 -55 -286 -30 -154 -55 -290
-55 -300 0 -10 -4 -19 -10 -19 -5 0 -10 12 -10 28 0 27 -86 546 -95 570 -3 9
-37 12 -120 12 l-115 0 0 -450z"/>
<path d="M9125 3248 c-4 -11 -205 -878 -205 -885 0 -2 36 -3 79 -3 l79 0 10
48 c6 26 16 75 22 110 l13 62 103 0 c118 0 104 13 129 -127 l17 -93 84 0 c46
0 84 1 84 3 0 1 -47 202 -103 447 l-103 445 -102 3 c-76 2 -104 -1 -107 -10z
m139 -335 c20 -100 36 -184 36 -187 0 -4 -34 -6 -76 -6 -76 0 -76 0 -70 25 8
31 51 255 61 313 4 24 8 42 10 40 2 -2 19 -85 39 -185z"/>
<path d="M9620 2810 l0 -450 224 0 223 0 7 38 c3 20 6 49 6 65 l0 27 -150 0
-150 0 0 385 0 385 -80 0 -80 0 0 -450z"/>
<path d="M10030 3248 c1 -7 38 -209 83 -448 l82 -435 81 -3 82 -3 46 238 c25
131 51 270 58 310 7 40 13 71 15 69 2 -2 14 -63 27 -137 13 -74 39 -212 57
-307 l33 -173 80 3 81 3 87 430 c48 237 87 438 88 448 0 16 -8 18 -77 15 l-77
-3 -42 -280 c-23 -154 -45 -302 -49 -330 -7 -48 -9 -42 -35 110 -15 88 -43
238 -61 333 l-33 172 -71 0 -71 0 -28 -147 c-15 -82 -42 -225 -60 -320 -17
-95 -34 -175 -37 -178 -4 -3 -9 29 -13 72 -4 43 -23 188 -42 323 -18 135 -34
246 -34 248 0 1 -38 2 -85 2 -62 0 -85 -3 -85 -12z"/>
<path d="M11115 3248 c-3 -7 -47 -200 -100 -428 -52 -228 -97 -425 -100 -437
-5 -22 -3 -23 74 -23 l79 0 10 48 c6 26 16 75 22 110 l13 62 102 0 c73 0 104
-4 108 -12 2 -7 12 -57 22 -110 l17 -98 84 0 c46 0 84 3 83 8 0 4 -46 205
-102 447 l-103 440 -102 3 c-76 2 -104 -1 -107 -10z m139 -334 c20 -99 36
-183 36 -187 0 -4 -34 -7 -76 -7 -57 0 -75 3 -71 13 2 6 19 92 38 189 18 98
34 176 35 175 2 -1 19 -84 38 -183z"/>
<path d="M11610 2810 l0 -450 80 0 80 0 0 191 0 191 69 -4 c49 -2 75 -9 90
-22 27 -25 41 -98 41 -221 0 -57 3 -110 6 -119 5 -13 22 -16 80 -16 l74 0 -6
153 c-7 184 -15 217 -59 262 l-35 34 30 21 c52 37 74 93 74 185 -1 91 -21 144
-74 188 -53 45 -116 57 -292 57 l-158 0 0 -450z m306 305 c62 -26 83 -134 39
-201 -17 -27 -71 -44 -137 -44 l-48 0 0 130 0 130 55 0 c31 0 71 -7 91 -15z"/>
<path d="M12260 2810 l0 -450 229 0 230 0 6 48 c14 96 30 87 -147 90 l-158 3
0 129 0 130 140 0 140 0 0 70 0 70 -140 0 -140 0 0 110 0 110 150 0 150 0 0
70 0 70 -230 0 -230 0 0 -450z"/>
<path d="M4195 3221 c-18 -10 -45 -44 -63 -79 -35 -66 -63 -83 -101 -62 -12 6
-21 19 -21 30 0 22 25 50 46 50 9 0 14 11 14 35 0 29 -4 35 -20 35 -95 0 -135
-136 -60 -202 24 -22 40 -28 79 -28 56 0 87 23 120 88 28 54 68 85 100 77 51
-13 57 -67 11 -93 -24 -13 -30 -24 -30 -49 0 -29 3 -33 26 -33 16 0 39 13 60
34 31 31 34 40 34 91 0 51 -3 60 -34 91 -29 29 -41 34 -82 34 -30 0 -61 -7
-79 -19z"/>
<path d="M5264 3219 c-37 -18 -57 -68 -62 -150 -9 -154 23 -229 97 -229 20 0
47 7 59 16 20 14 22 14 22 -1 0 -10 7 -15 18 -13 15 3 17 17 20 106 l3 102
-56 0 c-48 0 -55 -2 -55 -20 0 -16 7 -20 31 -20 l32 0 -5 -50 c-6 -59 -21 -80
-59 -80 -47 0 -61 42 -57 165 3 112 18 145 63 145 23 0 55 -28 55 -48 0 -7 11
-12 24 -12 23 0 24 2 15 33 -5 17 -18 40 -30 50 -23 19 -81 22 -115 6z"/>
<path d="M5537 3219 c-36 -21 -57 -87 -57 -184 0 -138 33 -195 112 -195 77 0
109 57 109 195 0 103 -14 152 -52 179 -27 18 -85 21 -112 5z m102 -64 c10 -20
15 -61 15 -120 -1 -128 -20 -166 -78 -151 -33 8 -46 52 -46 158 0 115 17 151
70 146 16 -2 30 -13 39 -33z"/>
<path d="M5740 3221 c0 -6 20 -92 45 -192 25 -100 45 -183 45 -185 0 -7 49 -4
53 4 7 10 97 359 97 373 0 6 -10 9 -22 7 -21 -3 -26 -18 -56 -148 -19 -80 -36
-152 -39 -160 -3 -8 -13 23 -23 70 -44 206 -54 235 -77 238 -13 2 -23 -1 -23
-7z"/>
<path d="M6030 3035 l0 -195 90 0 c83 0 90 2 90 20 0 17 -8 19 -67 22 l-68 3
-3 68 -3 67 66 0 c63 0 65 1 65 25 0 24 -2 25 -65 25 l-65 0 0 55 0 54 68 3
c59 3 67 5 67 23 0 18 -8 20 -87 23 l-88 3 0 -196z"/>
<path d="M6270 3035 c0 -188 1 -195 20 -195 19 0 20 7 20 90 l0 90 33 0 c57 0
69 -17 75 -104 4 -71 6 -77 26 -74 11 2 20 6 19 11 -2 4 -3 39 -3 77 0 56 -4
74 -19 89 -19 19 -19 20 -1 36 26 24 34 68 20 111 -15 44 -56 64 -135 64 l-55
0 0 -195z m130 135 c24 -24 26 -72 4 -94 -9 -9 -32 -16 -55 -16 l-39 0 0 58
c0 32 3 62 7 65 14 14 64 6 83 -13z"/>
<path d="M6534 3217 c-2 -7 -3 -94 -2 -192 3 -172 4 -180 23 -180 19 0 20 6
17 155 -2 85 -1 152 2 149 3 -2 28 -65 56 -139 65 -170 66 -172 93 -168 22 3
22 5 22 193 0 172 -2 190 -17 193 -16 3 -18 -11 -20 -148 l-3 -152 -59 151
c-53 136 -61 151 -83 151 -13 0 -26 -6 -29 -13z"/>
<path d="M6830 3035 c0 -188 1 -195 20 -195 19 0 20 7 21 163 l1 162 34 -160
c18 -88 33 -161 34 -163 0 -2 10 -2 22 0 20 3 25 18 54 149 17 80 34 152 37
160 3 8 6 -59 6 -148 1 -156 2 -163 21 -163 19 0 20 7 20 195 l0 195 -29 0
c-17 0 -33 -4 -36 -10 -3 -5 -21 -74 -40 -152 -18 -79 -34 -140 -34 -135 -1 4
-14 71 -31 149 -16 77 -30 143 -30 145 0 1 -16 3 -35 3 l-35 0 0 -195z"/>
<path d="M7180 3035 l0 -195 89 0 c80 0 89 2 94 20 5 19 0 20 -64 20 l-69 0 0
70 0 70 60 0 c57 0 60 1 60 25 0 24 -3 25 -60 25 l-60 0 0 55 0 54 63 3 c56 3
62 5 65 26 3 21 1 22 -87 22 l-91 0 0 -195z"/>
<path d="M7420 3036 c0 -189 1 -196 20 -196 19 0 20 7 20 158 l1 157 40 -105
c22 -58 49 -129 60 -157 17 -44 25 -53 45 -53 l24 0 0 195 c0 188 -1 195 -20
195 -19 0 -20 -7 -20 -147 l-1 -148 -57 145 c-53 134 -59 145 -85 148 l-27 3
0 -195z"/>
<path d="M7680 3205 c0 -22 4 -25 40 -25 l40 0 0 -171 0 -170 23 3 c22 3 22 5
25 171 l2 167 40 0 c36 0 40 3 40 25 l0 25 -105 0 -105 0 0 -25z"/>
<path d="M797 3193 c-4 -3 -7 -35 -7 -69 0 -50 4 -65 18 -72 9 -5 69 -18 132
-28 l115 -18 -85 -13 c-47 -7 -105 -16 -130 -20 l-45 -8 -3 -73 -3 -72 226 0
225 0 0 45 0 45 -162 1 -163 1 160 23 c88 13 161 24 163 24 2 1 2 20 0 44 l-3
42 -165 25 -165 25 168 3 167 2 0 50 0 50 -218 0 c-120 0 -222 -3 -225 -7z"/>
<path d="M4643 3025 c-55 -24 -73 -66 -73 -172 l0 -93 220 0 220 0 0 50 0 50
-84 0 -84 0 -4 55 c-5 61 -25 90 -75 111 -41 18 -79 17 -120 -1z m98 -95 c12
-7 19 -21 19 -40 0 -30 -1 -30 -55 -30 -54 0 -55 0 -55 30 0 43 46 64 91 40z"/>
<path d="M3960 2929 c0 -22 2 -39 4 -39 20 0 281 -41 285 -45 2 -3 0 -5 -5 -5
-12 0 -164 -27 -231 -41 -51 -10 -53 -12 -53 -44 l0 -33 150 -28 c82 -16 148
-29 147 -30 -1 -1 -58 -10 -127 -19 -177 -23 -170 -20 -170 -67 0 -33 3 -38
18 -34 9 3 96 19 192 36 218 39 222 41 218 82 l-3 33 -135 27 c-74 14 -139 27
-145 28 -5 1 55 14 135 29 l145 27 3 36 c3 32 0 38 -20 43 -13 3 -110 23 -215
44 l-193 38 0 -38z"/>
<path d="M4570 2621 c0 -80 -16 -70 149 -96 52 -8 95 -16 97 -18 2 -2 -43 -9
-99 -16 -159 -19 -147 -12 -147 -92 l0 -69 220 0 220 0 0 46 0 47 -165 -5
c-91 -2 -163 -3 -161 -1 3 3 299 43 319 43 5 0 7 19 5 42 l-3 43 -115 17
c-220 33 -225 36 -47 30 l167 -5 0 51 0 52 -220 0 -220 0 0 -69z"/>
<path d="M307 2646 c-70 -26 -97 -66 -97 -144 0 -73 27 -106 138 -166 100 -55
121 -78 122 -138 0 -57 -34 -91 -94 -92 -42 -1 -51 3 -77 32 -16 18 -29 41
-29 52 0 17 -7 20 -41 20 l-42 0 6 -37 c14 -82 77 -127 177 -127 112 0 180 59
180 156 0 94 -32 134 -157 197 -80 40 -103 65 -103 112 0 54 28 84 78 84 47 0
78 -24 87 -66 6 -26 11 -29 46 -29 46 0 49 12 20 77 -12 25 -32 48 -51 58 -44
23 -118 28 -163 11z"/>
<path d="M755 2648 c-67 -23 -107 -85 -126 -193 -14 -80 -7 -207 16 -281 29
-99 123 -151 222 -125 57 16 87 42 114 103 22 48 24 67 24 198 0 115 -4 155
-18 191 -37 96 -134 141 -232 107z m123 -78 c32 -30 52 -112 52 -211 0 -168
-35 -249 -109 -249 -20 0 -46 7 -58 15 -36 25 -56 106 -56 224 0 121 14 183
48 217 31 31 92 33 123 4z"/>
<path d="M5254 2650 c-29 -12 -54 -49 -54 -80 0 -43 23 -73 80 -105 66 -37 87
-72 68 -112 -10 -22 -21 -29 -51 -31 -33 -3 -39 1 -55 27 -16 28 -52 43 -52
22 0 -27 23 -62 49 -76 85 -43 174 18 157 108 -7 38 -30 62 -98 101 -51 29
-67 60 -49 94 20 37 83 33 96 -7 3 -12 15 -21 26 -21 22 0 24 9 8 43 -19 41
-75 57 -125 37z"/>
<path d="M6735 2638 c-15 -12 -34 -36 -41 -54 -18 -44 -18 -194 0 -238 27 -64
90 -85 140 -45 21 17 26 18 26 5 0 -9 7 -16 15 -16 12 0 15 18 15 100 l0 100
-50 0 c-43 0 -50 -3 -50 -20 0 -16 7 -20 30 -20 29 0 30 -2 30 -43 0 -55 -22
-87 -60 -87 -49 0 -65 37 -65 150 0 118 15 150 71 150 31 0 37 -4 47 -30 7
-18 19 -30 29 -30 28 0 22 38 -11 71 -36 36 -86 39 -126 7z"/>
<path d="M7094 2646 c-2 -6 -3 -119 -2 -251 l3 -240 63 -3 62 -3 0 91 0 90
350 0 350 0 0 75 0 75 -350 0 -350 0 0 91 0 90 -61 -2 c-33 -1 -63 -7 -65 -13z"/>
<path d="M1115 2637 c-3 -7 -4 -140 -3 -297 l3 -285 37 -3 37 -3 3 138 3 138
108 3 107 3 0 29 0 29 -107 3 -108 3 -3 93 -3 92 116 0 115 0 0 35 0 35 -150
0 c-112 0 -152 -3 -155 -13z"/>
<path d="M1472 2618 l3 -33 73 -3 72 -3 0 -265 0 -265 38 3 37 3 0 262 0 263
73 0 72 0 0 35 0 35 -186 0 -185 0 3 -32z"/>
<path d="M1890 2638 c0 -6 28 -141 62 -300 l62 -288 41 0 41 0 47 213 c26 116
47 220 47 230 0 9 5 17 10 17 6 0 10 -7 10 -16 0 -8 20 -110 45 -225 25 -115
45 -212 45 -214 0 -3 19 -5 43 -5 l43 0 64 278 c35 152 65 287 68 300 4 20 0
22 -35 22 l-40 0 -48 -242 -49 -242 -51 239 -51 240 -39 0 -39 0 -48 -210
c-26 -115 -47 -220 -48 -232 0 -44 -17 -22 -24 31 -5 48 -57 334 -71 394 -4
18 -12 22 -45 22 -24 0 -40 -5 -40 -12z"/>
<path d="M2659 2608 c-49 -181 -139 -535 -139 -546 0 -9 12 -12 37 -10 l37 3
21 85 21 85 85 3 86 3 12 -54 c28 -128 28 -127 71 -127 26 0 40 5 40 13 -1 6
-35 140 -78 297 l-77 285 -52 3 -52 3 -12 -43z m96 -178 l32 -130 -63 0 c-45
0 -64 4 -64 13 0 6 11 58 25 115 14 57 25 113 25 124 0 43 14 4 45 -122z"/>
<path d="M3000 2350 l0 -300 40 0 40 0 0 135 0 135 64 0 c100 0 109 -11 117
-151 4 -63 7 -115 8 -116 1 -2 18 -3 39 -3 l39 0 -4 103 c-5 120 -16 162 -49
183 l-23 16 29 24 c36 31 54 83 47 140 -11 101 -68 133 -234 134 l-113 0 0
-300z m239 216 c41 -38 35 -143 -11 -167 -11 -6 -47 -11 -81 -12 l-62 -2 -3
89 c-2 49 0 96 3 104 8 22 127 12 154 -12z"/>
<path d="M3450 2350 l0 -300 154 0 c151 0 154 0 160 23 12 47 12 47 -114 47
l-120 0 0 105 0 104 108 3 107 3 3 33 3 32 -110 0 -111 0 0 90 0 89 113 3 112
3 3 33 3 32 -155 0 -156 0 0 -300z"/>
<path d="M5460 2470 c0 -173 1 -180 20 -180 18 0 20 7 20 85 l0 85 65 0 65 0
0 -85 c0 -78 2 -85 20 -85 19 0 20 7 20 180 0 173 -1 180 -20 180 -18 0 -20
-7 -20 -75 l0 -75 -65 0 -65 0 0 75 c0 68 -2 75 -20 75 -19 0 -20 -7 -20 -180z"/>
<path d="M5805 2638 c-6 -18 -85 -336 -85 -343 0 -3 9 -5 19 -5 20 0 26 10 37
73 l6 37 53 0 52 0 12 -55 c11 -47 16 -55 36 -55 l23 0 -46 180 c-47 179 -47
180 -75 180 -15 0 -30 -6 -32 -12z m37 -196 c-19 -2 -36 -1 -39 2 -3 2 3 42
13 88 l18 83 21 -85 21 -85 -34 -3z"/>
<path d="M6010 2470 c0 -173 1 -180 20 -180 18 0 20 7 20 86 l0 87 41 -6 c23
-3 46 -10 52 -16 6 -6 13 -43 15 -81 4 -62 7 -70 24 -70 19 0 20 5 16 74 -2
53 -8 80 -21 93 -16 19 -16 21 3 38 30 27 28 104 -3 133 -19 18 -35 22 -95 22
l-72 0 0 -180z m132 133 c10 -9 18 -30 18 -46 0 -43 -25 -67 -72 -67 l-38 0 0
65 0 65 37 0 c20 0 45 -7 55 -17z"/>
<path d="M6270 2470 c0 -173 1 -180 20 -180 19 0 20 7 20 180 0 173 -1 180
-20 180 -19 0 -20 -7 -20 -180z"/>
<path d="M6390 2470 c0 -173 1 -180 20 -180 18 0 20 8 22 151 l3 151 61 -148
c55 -136 62 -149 87 -152 l27 -3 0 180 c0 174 -1 181 -20 181 -19 0 -20 -7
-21 -142 -1 -136 -1 -141 -16 -108 -8 19 -35 83 -60 143 -42 101 -46 107 -74
107 l-29 0 0 -180z"/>
<path d="M4049 2501 c-45 -14 -68 -31 -84 -61 -34 -66 -7 -142 61 -175 48 -23
218 -27 276 -7 57 20 88 63 88 124 0 92 -64 129 -225 127 -49 0 -102 -4 -116
-8z m258 -86 c34 -23 27 -56 -17 -77 -45 -23 -185 -25 -235 -4 -29 12 -35 20
-35 45 0 16 5 33 12 37 44 28 232 26 275 -1z"/>
<path d="M4688 2257 c-93 -21 -137 -82 -123 -167 15 -89 98 -126 259 -118 141
8 196 47 196 140 0 68 -22 106 -75 129 -57 25 -182 33 -257 16z m226 -107 c32
-12 34 -45 4 -62 -25 -13 -197 -18 -239 -6 -37 11 -46 38 -19 60 18 15 42 18
125 18 57 0 115 -4 129 -10z"/>
<path d="M4024 2186 c-53 -23 -64 -50 -64 -148 l0 -88 215 0 215 0 0 35 0 34
-92 3 c-91 3 -93 4 -96 28 -5 47 17 62 104 69 l79 6 3 34 3 33 -89 -3 c-72 -3
-94 -8 -112 -24 -20 -18 -22 -18 -31 -3 -5 10 -26 22 -47 28 -46 12 -50 12
-88 -4z m100 -82 c9 -8 16 -31 16 -50 l0 -34 -60 0 -60 0 0 34 c0 42 22 66 60
66 16 0 36 -7 44 -16z"/>
<path d="M8870 1825 l0 -375 65 0 65 0 0 375 0 375 -65 0 -65 0 0 -375z"/>
<path d="M9147 2194 c-4 -4 -7 -173 -7 -376 l0 -368 63 0 62 0 -2 272 -3 273
71 -195 c39 -107 83 -229 97 -270 l27 -75 75 -3 75 -3 -2 373 -3 373 -57 0
-58 0 2 -255 c1 -140 -1 -250 -3 -245 -2 6 -46 120 -97 255 l-92 245 -70 3
c-39 1 -74 0 -78 -4z"/>
<path d="M9690 2140 l0 -60 80 0 80 0 0 -315 0 -315 65 0 65 0 0 315 0 315 80
0 80 0 0 60 0 60 -225 0 -225 0 0 -60z"/>
<path d="M10230 1825 l0 -375 189 0 c211 0 192 -6 206 73 l6 37 -136 0 -135 0
0 110 0 110 120 0 120 0 0 60 0 60 -120 0 -120 0 0 90 0 90 125 0 125 0 0 60
0 60 -190 0 -190 0 0 -375z"/>
<path d="M10728 2194 c-5 -4 -8 -173 -8 -376 l0 -368 65 0 65 0 0 155 c0 175
-1 172 75 161 82 -13 89 -25 96 -177 4 -74 8 -135 8 -136 1 -2 30 -3 66 -3
l64 0 -5 118 c-7 160 -11 177 -46 217 l-30 35 31 29 c40 37 51 69 51 145 0 86
-30 142 -93 175 -42 21 -64 24 -190 29 -78 2 -145 1 -149 -4z m280 -139 c21
-25 24 -36 20 -83 -4 -41 -11 -60 -27 -73 -23 -19 -122 -36 -140 -24 -12 7
-15 197 -3 209 4 4 34 6 66 4 50 -4 63 -9 84 -33z"/>
<path d="M11280 1825 l0 -375 61 0 60 0 -3 269 c-2 148 -2 269 -1 268 1 -1 42
-115 91 -252 50 -138 93 -258 97 -267 6 -15 20 -18 81 -18 l74 0 -2 373 -3
372 -57 3 -58 3 -1 -258 c0 -142 -3 -251 -6 -243 -62 174 -178 478 -185 488
-7 7 -36 12 -79 12 l-69 0 0 -375z"/>
<path d="M11880 1825 l0 -375 195 0 c179 0 195 1 195 18 0 9 3 34 6 55 l7 37
-137 0 -136 0 0 110 0 110 120 0 120 0 0 60 0 60 -120 0 -120 0 0 90 0 90 125
0 125 0 0 60 0 60 -190 0 -190 0 0 -375z"/>
<path d="M12340 2140 l0 -60 80 0 80 0 0 -315 0 -315 65 0 65 0 0 315 0 315
80 0 80 0 0 60 0 60 -225 0 -225 0 0 -60z"/>
<path d="M8580 2075 l0 -95 -75 0 -75 0 0 86 0 85 -42 -3 -43 -3 -3 -82 -3
-83 -64 0 -65 0 0 90 0 90 -40 0 -40 0 0 -135 0 -135 270 0 270 0 0 129 c0 72
-3 132 -7 134 -5 2 -25 7 -45 11 l-38 7 0 -96z"/>
<path d="M5974 2136 c-69 -30 -104 -118 -104 -257 0 -122 15 -184 55 -228 31
-34 37 -36 93 -36 45 0 65 5 81 19 19 17 21 17 21 3 0 -13 10 -17 45 -17 l45
0 0 150 0 150 -86 0 -85 0 3 -47 c3 -41 6 -48 26 -51 21 -3 23 -8 20 -49 -2
-34 -9 -49 -25 -60 -19 -13 -24 -12 -41 5 -34 34 -42 228 -12 306 17 46 67 43
77 -5 5 -28 7 -29 66 -29 l60 0 -6 37 c-8 48 -34 83 -78 105 -40 21 -112 23
-155 4z"/>
<path d="M5210 1880 l0 -260 140 0 140 0 0 50 0 50 -80 0 -80 0 0 210 0 210
-60 0 -60 0 0 -260z"/>
<path d="M5540 1880 l0 -260 139 0 138 0 7 38 c10 64 14 62 -84 62 l-90 0 0
60 0 60 80 0 80 0 0 50 0 50 -80 0 -80 0 0 50 0 49 83 3 82 3 3 48 3 47 -140
0 -141 0 0 -260z"/>
<path d="M6306 1898 c-26 -134 -49 -251 -52 -260 -5 -16 2 -18 55 -18 l60 0 6
38 c13 71 13 72 60 72 47 0 47 -1 60 -72 l6 -38 59 0 c33 0 60 3 60 7 0 7 -85
444 -95 491 -5 21 -10 22 -89 22 l-83 0 -47 -242z m150 -1 l7 -69 -27 4 c-15
2 -27 6 -28 11 0 4 5 49 12 100 12 82 14 88 21 57 4 -19 11 -66 15 -103z"/>
<path d="M6660 1880 l0 -261 138 3 137 3 3 48 3 47 -80 0 -81 0 0 210 0 210
-60 0 -60 0 0 -260z"/>
<path d="M7090 2000 l0 -70 415 0 415 0 0 70 0 70 -415 0 -415 0 0 -70z"/>
<path d="M1856 1939 c-20 -16 -26 -29 -26 -59 0 -41 11 -53 90 -103 58 -38 51
-107 -11 -107 -19 0 -34 8 -45 25 -19 30 -44 33 -44 6 0 -30 47 -61 92 -61 49
0 88 35 88 80 0 46 -15 67 -70 95 -27 14 -54 34 -60 45 -16 29 -3 59 27 66 21
6 31 2 48 -19 24 -32 45 -35 45 -8 0 26 -46 61 -80 61 -15 0 -39 -9 -54 -21z"/>
<path d="M2748 1931 l-33 -29 0 -105 c0 -98 2 -107 24 -131 33 -35 92 -36 126
-1 26 25 34 65 13 65 -7 0 -21 -14 -30 -30 -21 -37 -60 -40 -82 -8 -19 27 -22
168 -5 201 25 47 63 50 87 7 9 -16 23 -30 30 -30 21 0 13 40 -13 65 -33 34
-76 33 -117 -4z"/>
<path d="M810 1795 c0 -131 2 -155 15 -155 13 0 15 24 15 155 0 131 -2 155
-15 155 -13 0 -15 -24 -15 -155z"/>
<path d="M910 1794 c0 -143 1 -155 18 -152 15 3 17 17 15 133 -1 89 2 124 8
110 5 -11 31 -69 57 -130 38 -89 51 -111 70 -113 l22 -3 0 155 c0 152 -1 156
-21 156 -21 0 -21 -2 -14 -121 5 -89 4 -120 -4 -115 -6 4 -11 11 -11 16 0 5
-21 57 -46 115 -40 91 -50 105 -70 105 l-24 0 0 -156z"/>
<path d="M1170 1795 c0 -131 2 -155 15 -155 12 0 15 15 15 75 l0 75 55 0 c42
0 55 3 55 15 0 12 -13 15 -55 15 l-55 0 0 50 0 50 60 0 c47 0 60 3 60 15 0 12
-15 15 -75 15 l-75 0 0 -155z"/>
<path d="M1362 1798 c3 -135 5 -153 20 -156 15 -3 18 7 20 70 3 71 4 73 30 76
44 5 68 -28 68 -93 0 -49 2 -55 21 -55 20 0 21 3 14 68 -4 37 -13 74 -21 83
-13 14 -13 17 0 22 21 8 31 70 15 98 -18 35 -27 39 -102 39 l-68 0 3 -152z
m116 116 c24 -17 30 -62 10 -82 -7 -7 -29 -12 -50 -12 l-38 0 0 48 c0 27 3 52
7 55 11 12 48 7 71 -9z"/>
<path d="M1616 1808 c-41 -160 -42 -168 -21 -168 13 0 35 55 35 88 0 9 13 12
47 10 47 -3 47 -3 58 -48 7 -29 17 -46 28 -48 24 -5 23 5 -20 165 -37 137 -39
143 -64 143 -25 0 -27 -5 -63 -142z m82 34 c16 -73 17 -72 -24 -72 -25 0 -35
4 -31 13 2 6 10 38 17 70 8 32 16 54 20 50 4 -4 12 -32 18 -61z"/>
<path d="M2020 1935 c0 -10 11 -15 35 -15 l34 0 3 -137 c3 -122 5 -138 21
-141 15 -3 17 9 17 137 l0 140 37 3 c20 2 38 9 41 16 3 9 -20 12 -92 12 -79 0
-96 -3 -96 -15z"/>
<path d="M2242 1798 c3 -136 5 -153 21 -156 15 -3 17 6 17 72 l0 76 28 0 c49
0 65 -21 70 -89 4 -53 7 -61 24 -61 16 0 19 5 14 23 -3 12 -6 41 -6 64 0 25
-6 48 -17 58 -10 11 -12 19 -6 23 15 10 33 48 33 70 0 11 -9 31 -21 46 -19 24
-27 26 -90 26 l-70 0 3 -152z m116 116 c24 -17 30 -62 10 -82 -7 -7 -29 -12
-50 -12 l-38 0 0 55 c0 53 1 55 28 55 15 0 38 -7 50 -16z"/>
<path d="M2470 1820 c0 -126 1 -132 25 -155 35 -35 102 -35 135 0 23 24 25 35
28 155 4 125 4 130 -16 130 -19 0 -21 -7 -24 -130 -3 -141 -7 -150 -58 -150
-45 0 -50 15 -50 152 0 121 -1 128 -20 128 -19 0 -20 -7 -20 -130z"/>
<path d="M2920 1935 c0 -10 11 -15 35 -15 l35 0 0 -140 c0 -133 1 -140 20
-140 19 0 20 7 20 140 l0 140 35 0 c24 0 35 5 35 15 0 12 -17 15 -90 15 -73 0
-90 -3 -90 -15z"/>
<path d="M3140 1821 c0 -115 2 -131 21 -155 29 -36 99 -37 134 -1 24 23 25 29
25 155 0 109 -2 130 -15 130 -12 0 -15 -19 -15 -112 0 -132 -10 -162 -56 -166
-51 -5 -59 15 -59 154 0 111 -2 124 -17 124 -16 0 -18 -13 -18 -129z"/>
<path d="M3390 1794 c0 -139 2 -155 16 -152 13 2 17 17 18 73 l1 70 38 -1 c21
-1 41 -5 45 -8 4 -4 9 -35 12 -69 4 -49 9 -63 23 -65 15 -3 17 5 17 55 0 37
-6 67 -16 81 -14 20 -14 24 0 44 22 31 20 84 -4 108 -16 16 -33 20 -85 20
l-65 0 0 -156z m104 126 c21 -8 26 -16 26 -44 0 -40 -13 -53 -60 -58 -35 -3
-35 -3 -38 41 -2 24 -1 50 2 57 6 16 34 18 70 4z"/>
<path d="M3620 1795 l0 -156 77 3 c98 4 114 26 21 30 l-63 3 -3 57 -3 57 57 3
c79 4 84 26 7 30 l-58 3 -3 48 -3 47 60 0 c48 0 61 3 61 15 0 12 -15 15 -75
15 l-75 0 0 -155z"/>
<path d="M4623 1900 c-85 -51 -79 -185 11 -233 36 -19 56 -22 166 -22 101 0
131 3 157 18 43 23 63 64 63 127 0 67 -43 118 -108 127 l-43 6 3 -49 c3 -45 5
-48 36 -56 36 -10 43 -36 16 -59 -18 -15 -199 -20 -245 -7 -48 14 -45 63 4 70
19 3 22 10 25 51 3 46 2 47 -25 47 -15 0 -42 -9 -60 -20z"/>
<path d="M4213 1889 c-18 -5 -37 -18 -43 -30 l-11 -20 -26 21 c-40 32 -107 28
-144 -9 -28 -28 -29 -33 -29 -120 l0 -91 213 2 212 3 -1 87 c-1 116 -22 149
-104 162 -19 2 -50 0 -67 -5z m90 -82 c10 -6 20 -29 24 -50 l6 -37 -72 0 -71
0 0 32 c0 17 7 40 17 50 19 21 71 24 96 5z m-183 -16 c5 -11 10 -31 10 -45 0
-25 -3 -26 -55 -26 l-55 0 0 33 c0 42 15 57 57 57 22 0 36 -6 43 -19z"/>
<path d="M8226 1810 c-73 -23 -96 -71 -96 -200 l0 -100 271 0 270 0 -3 43 -3
42 -112 3 -113 3 0 39 c0 64 15 70 190 83 34 2 35 4 38 45 l3 42 -83 0 c-95 0
-142 -11 -173 -40 -19 -18 -23 -19 -28 -6 -15 37 -105 63 -161 46z m108 -103
c11 -8 20 -31 23 -60 l6 -47 -77 0 -76 0 0 42 c0 24 7 49 17 60 19 21 81 24
107 5z"/>
<path d="M7370 1804 c-137 -27 -206 -69 -246 -151 -26 -52 -28 -67 -32 -205
l-4 -148 416 0 416 0 0 128 c0 168 -15 220 -80 284 -69 67 -144 89 -315 93
-71 2 -141 1 -155 -1z m247 -154 c129 -17 183 -64 183 -159 l0 -41 -290 0
-290 0 0 54 c0 108 74 151 265 154 33 1 93 -3 132 -8z"/>
<path d="M4085 1511 c-51 -13 -75 -34 -103 -91 -25 -51 -27 -64 -27 -180 0
-106 4 -132 22 -172 25 -55 58 -79 117 -85 88 -10 160 40 173 121 l6 36 -46 0
c-41 0 -45 -3 -52 -27 -10 -40 -24 -53 -56 -53 -48 0 -63 36 -68 163 -4 119 7
173 39 202 30 27 71 10 84 -33 8 -30 12 -32 54 -32 l45 0 -6 36 c-14 87 -92
136 -182 115z"/>
<path d="M5252 1510 c-41 -10 -68 -34 -96 -85 -18 -35 -21 -56 -21 -175 0
-117 3 -141 22 -182 26 -58 60 -80 126 -85 69 -5 114 18 147 77 21 38 25 61
28 154 3 64 -1 132 -8 164 -14 65 -58 118 -108 132 -41 11 -44 11 -90 0z m83
-94 c52 -52 46 -312 -9 -348 -20 -14 -53 -8 -71 12 -46 51 -43 303 5 342 30
24 46 23 75 -6z"/>
<path d="M5952 1510 c-83 -20 -125 -107 -125 -260 1 -189 52 -270 170 -270 58
0 104 30 133 86 23 44 25 59 25 179 0 140 -9 179 -54 228 -13 15 -41 32 -60
37 -40 11 -43 11 -89 0z m63 -76 c42 -16 66 -156 46 -273 -12 -73 -33 -103
-69 -99 -42 5 -63 46 -69 135 -8 114 3 190 32 219 25 25 34 28 60 18z"/>
<path d="M6352 1510 c-45 -11 -88 -54 -109 -109 -25 -65 -25 -257 0 -322 28
-72 57 -94 127 -94 42 0 63 5 78 18 17 16 20 16 25 2 4 -9 19 -15 42 -15 l35
0 0 145 0 145 -80 0 -80 0 0 -40 c0 -39 1 -40 36 -40 l36 0 -7 -52 c-8 -63
-28 -88 -66 -88 -48 0 -63 37 -67 160 -5 124 8 183 45 207 22 15 28 15 51 2
14 -8 29 -25 32 -38 5 -21 11 -24 50 -24 43 0 45 1 42 28 -10 87 -95 139 -190
115z"/>
<path d="M3260 1470 l0 -40 55 0 55 0 0 -220 0 -220 50 0 50 0 0 220 0 220 55
0 55 0 0 40 0 40 -160 0 -160 0 0 -40z"/>
<path d="M3630 1250 l0 -260 135 0 135 0 0 24 c0 13 3 31 6 40 5 14 -6 16 -90
16 l-96 0 0 75 0 75 85 0 85 0 0 40 0 40 -85 0 -85 0 0 65 0 65 91 0 90 0 -3
38 -3 37 -132 3 -133 3 0 -261z"/>
<path d="M4330 1250 l0 -260 45 0 45 0 0 115 0 115 65 0 65 0 0 -115 0 -115
45 0 45 0 0 260 0 260 -45 0 -45 0 0 -105 0 -106 -62 3 -63 3 -3 103 -3 102
-44 0 -45 0 0 -260z"/>
<path d="M4737 1503 c-4 -3 -7 -120 -7 -260 l0 -253 46 0 46 0 -4 184 c-2 101
-2 183 0 182 3 -4 132 -358 132 -363 0 -2 23 -3 50 -3 l50 0 0 260 0 260 -40
0 -40 0 0 -172 -1 -173 -40 105 c-22 58 -51 135 -65 173 l-26 67 -47 0 c-26 0
-51 -3 -54 -7z"/>
<path d="M5540 1250 l0 -260 129 0 129 0 6 31 c3 17 6 35 6 40 0 5 -40 9 -90
9 l-90 0 0 220 0 220 -45 0 -45 0 0 -260z"/>
<path d="M6570 1507 c0 -2 29 -75 65 -162 65 -157 65 -157 65 -256 l0 -99 50
0 50 0 0 101 c0 100 0 101 61 247 34 81 64 153 66 160 4 8 -9 12 -45 12 l-49
0 -39 -114 c-21 -63 -40 -113 -42 -111 -2 1 -20 52 -41 112 l-37 108 -52 3
c-29 2 -52 1 -52 -1z"/>
<path d="M8130 1375 l0 -45 203 0 c142 0 209 -4 227 -13 43 -22 40 -95 -5
-115 -17 -8 -94 -12 -225 -12 l-200 0 0 -45 0 -45 215 0 c242 0 271 6 305 62
25 41 28 144 4 189 -30 59 -72 69 -311 69 l-213 0 0 -45z"/>
<path d="M11334 1246 c-42 -18 -98 -87 -114 -138 -35 -117 -30 -324 11 -419
40 -92 120 -137 227 -126 73 8 122 35 155 88 75 122 75 416 -1 524 -42 61 -93
85 -177 84 -38 0 -84 -6 -101 -13z m148 -105 c37 -29 50 -90 50 -226 0 -177
-22 -238 -89 -251 -45 -9 -86 33 -102 104 -14 68 -14 226 0 293 19 89 83 125
141 80z"/>
<path d="M8860 910 l0 -341 58 3 57 3 -1 242 c0 134 1 242 2 240 2 -2 42 -104
90 -227 47 -124 90 -233 95 -242 8 -15 23 -18 79 -18 l70 0 0 340 0 340 -61 0
-60 0 3 -230 c2 -126 1 -226 -3 -222 -3 4 -45 107 -93 230 l-88 222 -74 0 -74
0 0 -340z"/>
<path d="M9450 910 l0 -340 185 0 184 0 6 38 c4 20 7 44 8 52 2 13 -20 15
-131 18 l-133 3 3 97 3 97 118 3 117 3 0 49 0 49 -117 3 -118 3 0 80 0 80 123
3 122 3 0 49 0 50 -185 0 -185 0 0 -340z"/>
<path d="M9890 1200 l0 -50 80 0 80 0 0 -290 0 -290 65 0 65 0 0 290 0 290 80
0 80 0 0 50 0 50 -225 0 -225 0 0 -50z"/>
<path d="M10400 1238 c1 -7 31 -159 68 -338 l67 -325 59 -3 c32 -2 63 1 67 5
4 4 29 111 56 237 l47 229 33 -164 c18 -90 40 -197 49 -236 l16 -73 63 0 63 0
21 93 c12 50 45 202 74 337 l53 245 -60 3 c-33 2 -62 -1 -66 -7 -3 -6 -21
-104 -38 -218 -18 -115 -36 -219 -39 -233 -4 -17 -17 33 -39 145 -18 94 -41
203 -49 243 l-16 72 -59 0 -59 0 -10 -52 c-6 -29 -29 -138 -50 -243 -21 -104
-41 -183 -44 -175 -3 8 -10 56 -16 105 -6 50 -20 152 -32 228 l-22 137 -68 0
c-49 0 -69 -4 -69 -12z"/>
<path d="M11780 910 l0 -340 65 0 65 0 0 145 0 145 55 0 c45 0 60 -5 79 -23
20 -20 23 -36 29 -135 3 -61 8 -116 12 -122 3 -5 33 -10 65 -10 l58 0 -5 118
c-6 136 -15 174 -50 202 l-25 19 35 34 c42 39 51 68 45 147 -5 72 -27 106 -88
138 -40 20 -58 22 -192 22 l-148 0 0 -340z m235 240 c22 -5 45 -17 52 -26 15
-21 17 -98 3 -124 -12 -23 -61 -40 -116 -40 l-44 0 0 93 c0 52 3 97 7 100 9
10 50 8 98 -3z"/>
<path d="M12322 913 l3 -338 63 -3 62 -3 0 114 c0 112 0 114 32 155 18 23 35
39 39 34 4 -4 35 -70 68 -146 33 -76 64 -143 69 -148 5 -5 39 -8 75 -6 l65 3
-95 207 -95 206 84 119 c46 65 87 124 92 131 5 9 -10 12 -68 12 l-74 0 -82
-132 c-46 -73 -89 -140 -96 -148 -12 -12 -14 8 -14 133 l0 147 -65 0 -65 0 2
-337z"/>
<path d="M7097 1164 c-4 -4 -7 -38 -7 -75 l0 -68 328 -3 c351 -3 358 -4 381
-55 22 -48 3 -120 -36 -139 -10 -5 -164 -11 -343 -14 l-325 -5 -3 -72 -3 -73
325 0 c356 0 391 5 450 58 48 45 66 96 66 193 0 76 -4 94 -28 140 -24 45 -37
59 -87 84 l-59 30 -325 3 c-180 2 -330 0 -334 -4z"/>
<path d="M8245 1033 c-73 -16 -110 -52 -121 -121 -12 -78 31 -147 111 -175 63
-22 173 -30 259 -18 130 18 176 61 176 163 0 85 -40 130 -132 152 -28 6 -28 6
-28 -44 0 -41 3 -50 18 -50 32 0 62 -29 62 -60 0 -43 -44 -62 -155 -68 -117
-6 -200 11 -222 44 -22 34 -5 70 39 82 31 8 33 11 33 52 0 45 -6 51 -40 43z"/>
<path d="M4119 732 c-107 -55 -146 -169 -136 -398 6 -151 23 -210 76 -263 45
-45 96 -61 192 -61 124 1 202 54 234 162 24 81 27 78 -80 78 l-95 0 0 -33 c0
-76 -70 -103 -113 -45 -18 24 -21 47 -25 171 -6 208 15 287 78 287 35 0 60
-28 60 -68 l0 -32 96 0 96 0 -7 38 c-24 133 -101 192 -250 192 -60 0 -82 -5
-126 -28z"/>
<path d="M4765 745 c-54 -19 -107 -78 -135 -151 -21 -52 -24 -76 -24 -209 -1
-173 14 -242 67 -302 47 -54 97 -73 193 -73 70 0 89 4 135 28 64 33 105 93
115 164 l7 48 -91 0 -90 0 -7 -39 c-14 -82 -85 -97 -120 -26 -17 35 -20 60
-20 200 0 140 3 165 20 200 21 42 40 51 81 41 18 -5 27 -17 36 -51 l12 -45 88
0 c85 0 88 1 88 23 0 81 -71 175 -147 196 -53 15 -160 13 -208 -4z"/>
<path d="M5925 745 c-73 -26 -125 -105 -125 -190 0 -92 54 -157 188 -224 93
-47 122 -78 122 -132 0 -43 -27 -69 -71 -69 -32 0 -69 41 -69 76 0 24 -2 24
-94 24 l-95 0 6 -38 c13 -82 65 -145 142 -171 44 -14 173 -14 222 1 22 6 57
27 79 45 67 58 88 180 45 264 -22 42 -80 86 -175 134 -116 58 -143 98 -104
153 12 17 24 22 47 20 27 -2 35 -10 52 -45 l19 -43 83 0 83 0 0 28 c0 15 -9
45 -19 67 -38 82 -101 115 -218 115 -43 -1 -96 -7 -118 -15z"/>
<path d="M6540 747 c-68 -22 -130 -111 -130 -188 0 -90 55 -159 173 -219 113
-58 137 -83 137 -136 0 -33 -5 -46 -22 -58 -47 -33 -103 -9 -114 49 l-6 35
-89 0 -89 0 0 -32 c1 -75 59 -150 139 -177 49 -16 180 -14 234 5 138 47 182
232 81 343 -20 23 -76 60 -134 91 -111 58 -117 64 -126 107 -5 24 -1 36 15 52
40 40 91 20 106 -41 7 -28 8 -28 92 -28 l86 0 -5 44 c-13 109 -94 166 -233
165 -44 -1 -96 -6 -115 -12z"/>
<path d="M3476 723 c-3 -16 -37 -175 -76 -354 -38 -179 -70 -331 -70 -337 0
-8 28 -12 89 -12 l89 0 14 78 14 77 72 3 c80 3 70 14 92 -100 l11 -58 95 0
c93 0 94 0 89 23 -3 12 -37 168 -75 347 -39 179 -73 333 -76 343 -5 15 -20 17
-134 17 l-128 0 -6 -27z m158 -253 c9 -63 19 -123 22 -132 5 -16 -2 -18 -46
-18 -47 0 -52 2 -47 19 2 11 13 74 23 140 10 66 21 117 25 113 3 -4 13 -59 23
-122z"/>
<path d="M5240 385 l0 -365 214 0 c243 0 217 -11 231 92 l7 48 -136 0 -136 0
0 85 0 85 120 0 120 0 0 70 0 70 -120 0 -120 0 0 70 0 70 125 0 125 0 0 70 0
70 -215 0 -215 0 0 -365z"/>
<path d="M8580 576 l0 -96 -75 0 -75 0 0 85 0 85 -45 0 -45 0 0 -85 0 -85 -65
0 -65 0 0 90 0 90 -40 0 -40 0 0 -135 0 -135 270 0 270 0 0 129 c0 72 -3 132
-8 135 -4 2 -24 7 -45 11 l-37 7 0 -96z"/>
<path d="M7490 494 c-217 -51 -396 -94 -397 -94 -2 0 -3 -42 -3 -94 0 -82 2
-95 18 -100 24 -7 800 -186 806 -186 3 0 6 33 6 73 l0 73 -102 20 -103 19 -3
96 -3 96 88 17 c134 26 123 17 123 102 0 64 -2 74 -17 73 -10 -1 -196 -43
-413 -95z m90 -192 l0 -69 -157 30 c-87 16 -165 32 -173 34 -12 4 269 67 318
72 8 1 12 -19 12 -67z"/>
<path d="M8429 297 c-19 -12 -48 -47 -66 -77 -53 -92 -71 -110 -108 -110 -39
0 -58 19 -53 57 2 20 12 32 35 43 29 13 33 19 33 58 0 36 -3 42 -21 42 -33 0
-86 -29 -104 -57 -26 -39 -30 -121 -8 -162 29 -55 65 -75 129 -75 80 2 92 12
191 168 23 38 64 52 103 36 55 -23 52 -92 -5 -116 -33 -13 -35 -17 -35 -59 0
-34 4 -45 15 -45 31 0 82 28 108 59 23 28 27 41 27 98 0 78 -22 122 -74 147
-51 24 -126 21 -167 -7z"/>
</g>
</svg>
