<?xml version="1.0" encoding="utf-8"?>
<!-- Generator: Adobe Illustrator 18.0.0, SVG Export Plug-In . SVG Version: 6.00 Build 0)  -->
<!DOCTYPE svg PUBLIC "-//W3C//DTD SVG 1.1//EN" "http://www.w3.org/Graphics/SVG/1.1/DTD/svg11.dtd">
<svg version="1.1" id="Layer_1" xmlns="http://www.w3.org/2000/svg" xmlns:xlink="http://www.w3.org/1999/xlink" x="0px" y="0px"
	 width="1400px" height="980px" viewBox="0 0 1400 980" enable-background="new 0 0 1400 980" xml:space="preserve">
<rect fill="#E6FAFF" width="1400" height="980"/>
<rect x="443.4" y="138.3" fill="#A5CC56" width="31.9" height="29.5"/>
<circle fill="#06BECC" cx="519.8" cy="450.8" r="15.3"/>
<g>
	<path fill="#4D4D4D" d="M516.5,466.4c-1.4,0-2.8-0.2-4.2-0.5c-0.8-0.2-1.3-1-1.1-1.8c0.2-0.8,1-1.3,1.8-1.1c1.6,0.4,3.3,0.5,5,0.3
		l0.3,0c0.8-0.1,1.6,0.5,1.7,1.3c0.1,0.8-0.5,1.6-1.3,1.7l-0.4,0C517.8,466.3,517.2,466.4,516.5,466.4z M524.2,464.3
		c-0.5,0-1-0.3-1.3-0.7c-0.4-0.7-0.2-1.6,0.5-2c1.6-0.9,2.9-2.1,4-3.5c0.5-0.6,1.4-0.8,2.1-0.3c0.6,0.5,0.8,1.4,0.3,2.1
		c-1.3,1.7-3,3.2-4.9,4.2C524.7,464.3,524.4,464.3,524.2,464.3z M507.4,463.4c-0.3,0-0.6-0.1-0.9-0.3c-1.8-1.3-3.2-2.9-4.4-4.8
		c-0.4-0.7-0.2-1.6,0.5-2c0.7-0.4,1.6-0.2,2,0.5c0.9,1.5,2.1,2.9,3.6,3.9c0.7,0.5,0.8,1.4,0.3,2.1
		C508.3,463.1,507.9,463.4,507.4,463.4z M531.3,455.2c-0.1,0-0.3,0-0.4-0.1c-0.8-0.2-1.2-1-1-1.8c0.3-1.2,0.5-2.5,0.5-3.7
		c0-0.5,0-1.1-0.1-1.6c0-0.4-0.1-0.8-0.2-1.2c-0.2-0.8,0.4-1.6,1.2-1.7c0.8-0.2,1.6,0.4,1.7,1.2c0.1,0.5,0.2,0.9,0.2,1.4
		c0.1,0.6,0.1,1.3,0.1,1.9c0,1.5-0.2,3-0.6,4.5C532.5,454.8,531.9,455.2,531.3,455.2z M501.4,453.5c-0.7,0-1.3-0.5-1.5-1.3
		c0-0.2-0.1-0.5-0.1-0.7c-0.1-0.6-0.1-1.3-0.1-1.9c0-1.3,0.1-2.6,0.4-3.8c0.2-0.8,1-1.3,1.8-1.1c0.8,0.2,1.3,1,1.1,1.8
		c-0.2,1-0.4,2.1-0.4,3.1c0,0.5,0,1.1,0.1,1.6c0,0.2,0,0.4,0.1,0.6c0.1,0.8-0.4,1.6-1.2,1.7C501.6,453.5,501.5,453.5,501.4,453.5z
		 M529.3,442.6c-0.5,0-1-0.2-1.2-0.7c-1-1.5-2.3-2.8-3.7-3.8c-0.7-0.5-0.9-1.4-0.4-2.1c0.5-0.7,1.4-0.9,2.1-0.4
		c1.8,1.2,3.3,2.8,4.6,4.6c0.5,0.7,0.3,1.6-0.4,2.1C529.9,442.5,529.6,442.6,529.3,442.6z M504.1,442.2c-0.3,0-0.6-0.1-0.9-0.3
		c-0.7-0.5-0.8-1.4-0.3-2.1c1.3-1.8,2.8-3.3,4.7-4.5c0.7-0.4,1.6-0.2,2,0.5c0.4,0.7,0.2,1.6-0.5,2c-1.5,1-2.8,2.2-3.9,3.7
		C505,442,504.5,442.2,504.1,442.2z M519.7,436.1c-0.1,0-0.2,0-0.3,0c-1.4-0.3-3-0.4-4.4-0.2c-0.3,0-0.6,0.1-0.9,0.1
		c-0.8,0.1-1.6-0.4-1.7-1.2c-0.1-0.8,0.4-1.6,1.2-1.7c0.4-0.1,0.7-0.1,1.1-0.2c1.8-0.2,3.6-0.1,5.4,0.3c0.8,0.2,1.3,1,1.1,1.8
		C521,435.6,520.4,436.1,519.7,436.1z"/>
</g>
<path fill="#A5CC56" d="M498.8,550.8v-3.5c0-0.4,0.2-0.8,0.5-1.1c0.1-0.1,10-8.6,17.7-16.4c7.1-7.3,6.7-12.9,6.7-13c0,0,0,0,0-0.1
	c0,0,0-0.1,0-0.1v-21.8h-4.2c-2.3,0-4.2,1.9-4.2,4.2v11.8v7.2c0,0.8-0.7,1.5-1.5,1.5c-0.8,0-1.5-0.7-1.5-1.5v-7.2V499v-40.4
	c0-2.9-2.4-5.3-5.3-5.3s-5.3,2.4-5.3,5.3v18.8v9.9v3.8c0,0.8-0.7,1.5-1.5,1.5c-0.8,0-1.5-0.7-1.5-1.5v-3.8v-9.9
	c0-2.9-2.4-5.3-5.3-5.3s-5.3,2.4-5.3,5.3v3.3v7.8v2.6c0,0.8-0.7,1.5-1.5,1.5s-1.5-0.7-1.5-1.5v-2.6v-7.8c0-2.9-2.4-5.3-5.3-5.3
	c-2.9,0-5.3,2.4-5.3,5.3V491c0,0.8-0.7,1.5-1.5,1.5c-0.8,0-1.5-0.7-1.5-1.5v-3.9c0-2.9-2.4-5.3-5.3-5.3c-2.9,0-5.3,2.4-5.3,5.3v33.2
	v2.2v6.1c0,0.3-0.1,7.2,7.7,13.4c0.4,0.3,0.6,0.7,0.6,1.2v7.4H498.8z"/>
<g>
	<path fill="#333333" d="M894.1,852.3H541.6c-5.9,0-10.7-4.8-10.7-10.7V602.3c0-5.9,4.8-10.7,10.7-10.7h352.5
		c5.9,0,10.7,4.8,10.7,10.7v239.3C904.8,847.5,900,852.3,894.1,852.3z"/>
	<rect x="544.2" y="607.5" fill="#EFEFEF" width="347.2" height="194.8"/>
	<path fill="#CCCCCC" d="M530.9,817.5v24.1c0,5.9,4.8,10.7,10.7,10.7h352.5c5.9,0,10.7-4.8,10.7-10.7v-24.1H530.9z"/>
	<path fill="#CCCCCC" d="M775.5,891.6h-11.8l-8.3-39.3h-75.2l-8.3,39.3h-11.8c-1.9,0-3.5,1.6-3.5,3.5s1.6,3.5,3.5,3.5h115.4
		c1.9,0,3.5-1.6,3.5-3.5S777.5,891.6,775.5,891.6z"/>
	<polygon fill="#B3B3B3" points="757.9,863.9 755.4,852.3 680.2,852.3 677.8,863.9 	"/>
	<rect x="575.2" y="635.2" fill="#A5CC56" width="191.9" height="27.6"/>
	<rect x="575.2" y="673.3" fill="#808080" width="132" height="4.6"/>
	<rect x="575.2" y="685.8" fill="#808080" width="132" height="4.6"/>
	<rect x="575.2" y="698.4" fill="#808080" width="132" height="4.6"/>
	<rect x="575.2" y="711" fill="#808080" width="132" height="4.6"/>
	<rect x="575.2" y="723.5" fill="#808080" width="132" height="4.6"/>
	<rect x="575.2" y="736.1" fill="#808080" width="132" height="4.6"/>
	<rect x="575.2" y="748.7" fill="#808080" width="132" height="4.6"/>
	<rect x="575.2" y="761.3" fill="#808080" width="132" height="4.6"/>
	<rect x="796.3" y="638.9" fill="#06BECC" width="63" height="126.9"/>
</g>
<g>
	<path fill="#D1D1D1" d="M175.6,834.5H96.7c-5.2,0-9.5-4.2-9.5-9.5V659.8c0-5.2,4.2-9.5,9.5-9.5h78.9c5.2,0,9.5,4.2,9.5,9.5V825
		C185,830.3,180.8,834.5,175.6,834.5z"/>
	<rect x="94.3" y="664.8" fill="#808080" width="83.6" height="144.4"/>
	<g>
		<path fill="#F2F2F2" d="M149.5,659.6h-33.5c-0.8,0-1.4-0.6-1.4-1.4l0,0c0-0.8,0.6-1.4,1.4-1.4h33.5c0.8,0,1.4,0.6,1.4,1.4l0,0
			C151,659,150.3,659.6,149.5,659.6z"/>
		<circle fill="#F2F2F2" cx="155.6" cy="658.2" r="1.9"/>
	</g>
	<circle fill="#F2F2F2" cx="136.1" cy="821.8" r="7.9"/>
</g>
<g>
	<g>
		<g>
			<path fill="#06BECC" d="M282.5,113.2c-1.1,0-2.2-0.4-3.1-1.3c-8.8-8.8-23.1-8.8-31.9,0c-1.7,1.7-4.4,1.7-6.1,0
				c-1.7-1.7-1.7-4.4,0-6.1c12.2-12.2,32-12.2,44.1,0c1.7,1.7,1.7,4.4,0,6.1C284.7,112.8,283.6,113.2,282.5,113.2z"/>
		</g>
		<g>
			<path fill="#06BECC" d="M289.6,101.9c-1.1,0-2.2-0.4-3.1-1.3c-6.2-6.2-14.3-9.6-23.1-9.6c-8.7,0-16.9,3.4-23.1,9.6
				c-1.7,1.7-4.4,1.7-6.1,0c-1.7-1.7-1.7-4.4,0-6.1c7.8-7.8,18.1-12.1,29.2-12.1c11,0,21.4,4.3,29.2,12.1c1.7,1.7,1.7,4.4,0,6.1
				C291.8,101.5,290.7,101.9,289.6,101.9z"/>
		</g>
		<g>
			<path fill="#06BECC" d="M231.1,90.8c-1.1,0-2.2-0.4-3.1-1.3c-1.7-1.7-1.7-4.4,0-6.1c19.5-19.5,51.3-19.5,70.9,0
				c1.7,1.7,1.7,4.4,0,6.1c-1.7,1.7-4.4,1.7-6.1,0c-16.2-16.2-42.5-16.2-58.7,0C233.3,90.4,232.2,90.8,231.1,90.8z"/>
		</g>
		<circle fill="#06BECC" cx="263.5" cy="120.3" r="9.3"/>
	</g>
</g>
<g>
	<path fill="#A5CC56" d="M227.2,545.6c-20.6,0-37.3,16.7-37.3,37.3c0,10.6,4.5,20.2,11.6,26.9l-4.8,18.1l18.1-9.9
		c3.9,1.4,8,2.1,12.4,2.1c20.6,0,37.3-16.7,37.3-37.3C264.5,562.2,247.8,545.6,227.2,545.6z"/>
	<g>
		<g>
			<path fill="#FFFFFF" d="M239.2,593.3c-0.7,0-1.4-0.3-1.9-0.8c-5.6-5.6-14.6-5.5-20.1,0c-1.1,1.1-2.8,1.1-3.9,0
				c-1.1-1.1-1.1-2.8,0-3.9c7.7-7.7,20.2-7.7,27.8,0c1.1,1.1,1.1,2.8,0,3.9C240.6,593.1,239.9,593.3,239.2,593.3z"/>
		</g>
		<g>
			<path fill="#FFFFFF" d="M243.7,586.2c-0.7,0-1.4-0.3-1.9-0.8c-3.9-3.9-9-6-14.5-6c-5.5,0-10.7,2.1-14.5,6c-1.1,1.1-2.8,1.1-3.9,0
				c-1.1-1.1-1.1-2.8,0-3.9c4.9-4.9,11.4-7.6,18.4-7.6c6.9,0,13.5,2.7,18.4,7.6c1.1,1.1,1.1,2.8,0,3.9
				C245.1,586,244.4,586.2,243.7,586.2z"/>
		</g>
		<g>
			<path fill="#FFFFFF" d="M206.8,579.2c-0.7,0-1.4-0.3-1.9-0.8c-1.1-1.1-1.1-2.8,0-3.9c12.3-12.3,32.4-12.3,44.7,0
				c1.1,1.1,1.1,2.8,0,3.9c-1.1,1.1-2.8,1.1-3.9,0c-10.2-10.2-26.8-10.2-37,0C208.2,579,207.5,579.2,206.8,579.2z"/>
		</g>
		<circle fill="#FFFFFF" cx="227.2" cy="597.8" r="5.9"/>
	</g>
</g>
<g>
	<path fill="#4D4D4D" d="M510.9,611.9H325.9c-10,0-18.2-8.2-18.2-18.2c0-1.9,1.5-3.5,3.5-3.5s3.5,1.6,3.5,3.5
		c0,6.2,5,11.3,11.3,11.3h184.9c1.9,0,3.5,1.6,3.5,3.5C514.3,610.3,512.8,611.9,510.9,611.9z"/>
</g>
<path fill="#06BECC" d="M337.3,509.8c0-14.4-11.7-26-26-26c-14.4,0-26,11.7-26,26h0c0,0,0,0.4,0,1.1c0,0.2,0,0.4,0,0.6
	c0.4,6.9,3.5,33.7,26,58.2c22.5-24.5,25.6-51.3,26-58.2c0-0.2,0-0.4,0-0.6C337.3,510.2,337.3,509.8,337.3,509.8L337.3,509.8z
	 M311.2,522.7c-7.2,0-12.9-5.8-12.9-12.9c0-7.2,5.8-12.9,12.9-12.9s12.9,5.8,12.9,12.9C324.2,516.9,318.4,522.7,311.2,522.7z"/>
<path fill="#06BECC" d="M989.1,526.4c-0.1,0-0.1,0-0.2,0c0.1-1,0.2-2.1,0.2-3.1c0-13.4-10.9-24.3-24.3-24.3
	c-10.5,0-19.4,6.6-22.8,15.9c-1.7-0.8-3.6-1.3-5.6-1.3c-7.1,0-12.8,5.7-12.8,12.8c0,1.1,0.2,2.2,0.4,3.2c-10.3,0.8-18.5,9.5-18.5,20
	c0,11.1,9,20.1,20.1,20.1h63.4c12,0,21.7-9.7,21.7-21.7C1010.8,536.1,1001.1,526.4,989.1,526.4z"/>
<path fill="#06BECC" d="M420.8,200.9c-0.1,0-0.1,0-0.2,0c0.1-1,0.2-2.1,0.2-3.1c0-13.4-10.9-24.3-24.3-24.3
	c-10.5,0-19.4,6.6-22.8,15.9c-1.7-0.8-3.6-1.3-5.6-1.3c-7.1,0-12.8,5.7-12.8,12.8c0,1.1,0.2,2.2,0.4,3.2c-10.3,0.8-18.5,9.5-18.5,20
	c0,11.1,9,20.1,20.1,20.1h63.4c12,0,21.7-9.7,21.7-21.7C442.5,210.6,432.8,200.9,420.8,200.9z"/>
<path fill="#06BECC" d="M1338.6,347.1c-0.1,0-0.1,0-0.2,0c0.1-1,0.2-2.1,0.2-3.1c0-13.4-10.9-24.3-24.3-24.3
	c-10.5,0-19.4,6.6-22.8,15.9c-1.7-0.8-3.6-1.3-5.6-1.3c-7.1,0-12.8,5.7-12.8,12.8c0,1.1,0.2,2.2,0.4,3.2c-10.3,0.8-18.5,9.5-18.5,20
	c0,11.1,9,20.1,20.1,20.1h63.4c12,0,21.7-9.7,21.7-21.7C1360.3,356.8,1350.6,347.1,1338.6,347.1z"/>
<g>
	<g id="XMLID_424_">
		<g id="XMLID_445_">
			<path id="XMLID_446_" fill="#A5CC56" d="M767.1,541.1c-9,0-16.3-7.3-16.3-16.3c0-9,7.3-16.3,16.3-16.3c9,0,16.3,7.3,16.3,16.3
				C783.4,533.8,776.1,541.1,767.1,541.1z M767.1,516.4c-4.6,0-8.4,3.8-8.4,8.4c0,4.6,3.8,8.4,8.4,8.4c4.6,0,8.4-3.8,8.4-8.4
				C775.5,520.2,771.7,516.4,767.1,516.4z"/>
		</g>
		<path id="XMLID_444_" fill="#A5CC56" d="M758.7,510.9l-7.1-7.1l-5.6,5.6l7.1,7.1C754.5,514.2,756.5,512.2,758.7,510.9z"/>
		<path id="XMLID_443_" fill="#A5CC56" d="M767.1,508.5c1.4,0,2.7,0.2,3.9,0.5V499h-7.9V509C764.4,508.7,765.7,508.5,767.1,508.5z"
			/>
		<path id="XMLID_442_" fill="#A5CC56" d="M781,516.4l7.1-7.1l-5.6-5.6l-7.1,7.1C777.7,512.2,779.6,514.2,781,516.4z"/>
		<path id="XMLID_441_" fill="#A5CC56" d="M775.4,538.7l7.1,7.1l5.6-5.6l-7.1-7.1C779.6,535.4,777.7,537.3,775.4,538.7z"/>
		<path id="XMLID_431_" fill="#A5CC56" d="M767.1,541.1c-1.4,0-2.7-0.2-3.9-0.5v10.1h7.9v-10.1C769.8,540.9,768.4,541.1,767.1,541.1
			z"/>
		<path id="XMLID_429_" fill="#A5CC56" d="M782.8,520.9c0.3,1.3,0.5,2.6,0.5,3.9s-0.2,2.7-0.5,3.9h10.1v-7.9H782.8z"/>
		<path id="XMLID_427_" fill="#A5CC56" d="M753.2,533.2l-7.1,7.1l5.6,5.6l7.1-7.1C756.5,537.3,754.5,535.4,753.2,533.2z"/>
		<path id="XMLID_425_" fill="#A5CC56" d="M750.8,524.8c0-1.4,0.2-2.7,0.5-3.9h-10.1v7.9h10.1C751,527.5,750.8,526.2,750.8,524.8z"
			/>
	</g>
	<g id="XMLID_1_">
		<g id="XMLID_10_">
			<path id="XMLID_11_" fill="#A5CC56" d="M807.3,551.4c-5.5-1.7-8.6-7.7-6.9-13.2c1.7-5.5,7.7-8.6,13.2-6.9
				c5.5,1.7,8.6,7.7,6.9,13.2C818.8,550.1,812.9,553.2,807.3,551.4z M812.1,536.2c-2.9-0.9-5.9,0.7-6.8,3.5
				c-0.9,2.9,0.7,5.9,3.5,6.8c2.9,0.9,5.9-0.7,6.8-3.5C816.6,540.2,815,537.1,812.1,536.2z"/>
		</g>
		<path id="XMLID_9_" fill="#A5CC56" d="M808,531.2l-3-5.8l-4.5,2.4l3,5.8C804.8,532.4,806.4,531.6,808,531.2z"/>
		<path id="XMLID_8_" fill="#A5CC56" d="M813.7,531.4c0.8,0.3,1.6,0.6,2.3,1.1l2-6.2l-4.9-1.5l-2,6.2
			C812,531,812.8,531.1,813.7,531.4z"/>
		<path id="XMLID_7_" fill="#A5CC56" d="M820.7,539l5.8-3l-2.4-4.5l-5.8,3C819.5,535.7,820.3,537.3,820.7,539z"/>
		<path id="XMLID_6_" fill="#A5CC56" d="M812.9,551.6l3,5.8l4.5-2.4l-3-5.8C816.2,550.4,814.6,551.2,812.9,551.6z"/>
		<path id="XMLID_5_" fill="#A5CC56" d="M807.3,551.4c-0.8-0.3-1.6-0.6-2.3-1.1l-2,6.2l4.9,1.5l2-6.2
			C809,551.9,808.2,551.7,807.3,551.4z"/>
		<path id="XMLID_4_" fill="#A5CC56" d="M821,542c-0.1,0.8-0.2,1.7-0.5,2.5c-0.3,0.8-0.6,1.6-1.1,2.3l6.2,2l1.5-4.9L821,542z"/>
		<path id="XMLID_3_" fill="#A5CC56" d="M800.3,543.9l-5.8,3l2.4,4.5l5.8-3C801.5,547.1,800.7,545.5,800.3,543.9z"/>
		<path id="XMLID_2_" fill="#A5CC56" d="M800.5,538.2c0.3-0.8,0.6-1.6,1.1-2.3l-6.2-2l-1.5,4.9l6.2,2
			C800,539.9,800.2,539.1,800.5,538.2z"/>
	</g>
</g>
<g>
	<g id="XMLID_27_">
		<g id="XMLID_36_">
			<path id="XMLID_37_" fill="#A5CC56" d="M993.6,161.2c-9,0-16.3-7.3-16.3-16.3c0-9,7.3-16.3,16.3-16.3c9,0,16.3,7.3,16.3,16.3
				C1009.9,153.9,1002.6,161.2,993.6,161.2z M993.6,136.5c-4.6,0-8.4,3.8-8.4,8.4c0,4.6,3.8,8.4,8.4,8.4c4.6,0,8.4-3.8,8.4-8.4
				C1002,140.3,998.3,136.5,993.6,136.5z"/>
		</g>
		<path id="XMLID_35_" fill="#A5CC56" d="M985.3,131l-7.1-7.1l-5.6,5.6l7.1,7.1C981.1,134.3,983,132.4,985.3,131z"/>
		<path id="XMLID_34_" fill="#A5CC56" d="M993.6,128.7c1.4,0,2.7,0.2,3.9,0.5v-10.1h-7.9v10.1C991,128.8,992.3,128.7,993.6,128.7z"
			/>
		<path id="XMLID_33_" fill="#A5CC56" d="M1007.6,136.6l7.1-7.1l-5.6-5.6l-7.1,7.1C1004.3,132.4,1006.2,134.3,1007.6,136.6z"/>
		<path id="XMLID_32_" fill="#A5CC56" d="M1002,158.8l7.1,7.1l5.6-5.6l-7.1-7.1C1006.2,155.6,1004.3,157.5,1002,158.8z"/>
		<path id="XMLID_31_" fill="#A5CC56" d="M993.6,161.2c-1.4,0-2.7-0.2-3.9-0.5v10.1h7.9v-10.1C996.3,161,995,161.2,993.6,161.2z"/>
		<path id="XMLID_30_" fill="#A5CC56" d="M1009.4,141c0.3,1.3,0.5,2.6,0.5,3.9c0,1.4-0.2,2.7-0.5,3.9h10.1V141H1009.4z"/>
		<path id="XMLID_29_" fill="#A5CC56" d="M979.7,153.3l-7.1,7.1l5.6,5.6l7.1-7.1C983,157.5,981.1,155.6,979.7,153.3z"/>
		<path id="XMLID_28_" fill="#A5CC56" d="M977.4,144.9c0-1.4,0.2-2.7,0.5-3.9h-10.1v7.9h10.1C977.6,147.6,977.4,146.3,977.4,144.9z"
			/>
	</g>
	<g id="XMLID_14_">
		<g id="XMLID_23_">
			<path id="XMLID_24_" fill="#06BECC" d="M1033.9,171.6c-5.5-1.7-8.6-7.7-6.9-13.2c1.7-5.5,7.7-8.6,13.2-6.9
				c5.5,1.7,8.6,7.7,6.9,13.2C1045.3,170.2,1039.4,173.3,1033.9,171.6z M1038.7,156.3c-2.9-0.9-5.9,0.7-6.8,3.5
				c-0.9,2.9,0.7,5.9,3.5,6.8c2.9,0.9,5.9-0.7,6.8-3.5C1043.1,160.3,1041.5,157.2,1038.7,156.3z"/>
		</g>
		<path id="XMLID_22_" fill="#06BECC" d="M1034.6,151.3l-3-5.8l-4.5,2.4l3,5.8C1031.4,152.5,1032.9,151.7,1034.6,151.3z"/>
		<path id="XMLID_21_" fill="#06BECC" d="M1040.2,151.5c0.8,0.3,1.6,0.6,2.3,1.1l2-6.2l-4.9-1.5l-2,6.2
			C1038.5,151.1,1039.4,151.2,1040.2,151.5z"/>
		<path id="XMLID_20_" fill="#06BECC" d="M1047.3,159.1l5.8-3l-2.4-4.5l-5.8,3C1046,155.8,1046.9,157.4,1047.3,159.1z"/>
		<path id="XMLID_19_" fill="#06BECC" d="M1039.5,171.8l3,5.8l4.5-2.4l-3-5.8C1042.7,170.5,1041.2,171.3,1039.5,171.8z"/>
		<path id="XMLID_18_" fill="#06BECC" d="M1033.9,171.6c-0.8-0.3-1.6-0.6-2.3-1.1l-2,6.2l4.9,1.5l2-6.2
			C1035.6,172,1034.7,171.8,1033.9,171.6z"/>
		<path id="XMLID_17_" fill="#06BECC" d="M1047.5,162.2c-0.1,0.8-0.2,1.7-0.5,2.5c-0.3,0.8-0.6,1.6-1.1,2.3l6.2,2l1.5-4.9
			L1047.5,162.2z"/>
		<path id="XMLID_16_" fill="#06BECC" d="M1026.8,164l-5.8,3l2.4,4.5l5.8-3C1028,167.2,1027.2,165.7,1026.8,164z"/>
		<path id="XMLID_15_" fill="#06BECC" d="M1027,158.4c0.3-0.8,0.6-1.6,1.1-2.3l-6.2-2l-1.5,4.9l6.2,2
			C1026.6,160.1,1026.7,159.2,1027,158.4z"/>
	</g>
</g>
<g>
	<g>
		<path fill="#4D4D4D" d="M311.2,459.9c-1.9,0-3.5-1.5-3.5-3.5v-5.9c0-1.9,1.5-3.5,3.5-3.5s3.5,1.5,3.5,3.5v5.9
			C314.7,458.3,313.1,459.9,311.2,459.9z"/>
	</g>
	<g>
		<path fill="#4D4D4D" d="M311.2,442.8c-1.9,0-3.5-1.5-3.5-3.5v-11.2c0-1.9,1.5-3.5,3.5-3.5s3.5,1.5,3.5,3.5v11.2
			C314.7,441.2,313.1,442.8,311.2,442.8z M311.2,420.3c-1.9,0-3.5-1.5-3.5-3.5v-11.2c0-1.9,1.5-3.5,3.5-3.5s3.5,1.5,3.5,3.5v11.2
			C314.7,418.8,313.1,420.3,311.2,420.3z M311.2,397.9c-1.9,0-3.5-1.5-3.5-3.5v-11.2c0-1.9,1.5-3.5,3.5-3.5s3.5,1.5,3.5,3.5v11.2
			C314.7,396.4,313.1,397.9,311.2,397.9z M311.2,375.5c-1.9,0-3.5-1.5-3.5-3.5v-11.2c0-1.9,1.5-3.5,3.5-3.5s3.5,1.5,3.5,3.5V372
			C314.7,373.9,313.1,375.5,311.2,375.5z M311.2,353.1c-1.9,0-3.5-1.5-3.5-3.5v-11.2c0-1.9,1.5-3.5,3.5-3.5s3.5,1.5,3.5,3.5v11.2
			C314.7,351.5,313.1,353.1,311.2,353.1z M311.2,330.7c-1.9,0-3.5-1.5-3.5-3.5V316c0-1.9,1.5-3.5,3.5-3.5s3.5,1.5,3.5,3.5v11.2
			C314.7,329.1,313.1,330.7,311.2,330.7z M311.2,308.2c-1.9,0-3.5-1.5-3.5-3.5v-11.2c0-1.9,1.5-3.5,3.5-3.5s3.5,1.5,3.5,3.5v11.2
			C314.7,306.7,313.1,308.2,311.2,308.2z"/>
	</g>
	<g>
		<path fill="#4D4D4D" d="M311.2,285.8c-1.9,0-3.5-1.5-3.5-3.5v-5.9c0-1.9,1.5-3.5,3.5-3.5s3.5,1.5,3.5,3.5v5.9
			C314.7,284.3,313.1,285.8,311.2,285.8z"/>
	</g>
</g>
<g>
	<path fill="#4D4D4D" d="M958.2,622.8h-1.9c-1.9,0-3.5-1.6-3.5-3.5c0-1.3,0.8-2.5,1.9-3.1v-6.9c0-1.9,1.6-3.5,3.5-3.5
		c1.9,0,3.5,1.6,3.5,3.5v10C961.6,621.2,960.1,622.8,958.2,622.8z M944.4,622.8h-11.9c-1.9,0-3.5-1.6-3.5-3.5s1.6-3.5,3.5-3.5h11.9
		c1.9,0,3.5,1.6,3.5,3.5S946.3,622.8,944.4,622.8z M958.2,600.9c-1.9,0-3.5-1.6-3.5-3.5v-11.9c0-1.9,1.6-3.5,3.5-3.5
		c1.9,0,3.5,1.6,3.5,3.5v11.9C961.6,599.4,960.1,600.9,958.2,600.9z"/>
</g>
<g>
	<path fill="#4D4D4D" d="M958.2,487.2c-1.9,0-3.5-1.5-3.5-3.5V304.1c0-1.9,1.6-3.5,3.5-3.5c1.9,0,3.5,1.5,3.5,3.5v179.6
		C961.6,485.7,960.1,487.2,958.2,487.2z"/>
</g>
<g>
	<path fill="#4D4D4D" d="M989.7,275.4h-63c-1.9,0-3.5-1.5-3.5-3.5v-63c0-1.9,1.6-3.5,3.5-3.5h63c1.9,0,3.5,1.5,3.5,3.5v63
		C993.2,273.8,991.6,275.4,989.7,275.4z M930.1,268.5h56.1v-56.1h-56.1V268.5z"/>
</g>
<g>
	<path fill="#4D4D4D" d="M989.7,275.4c-0.9,0-1.8-0.4-2.4-1l-29.1-29.1l-29.1,29.1c-1.4,1.4-3.5,1.4-4.9,0c-1.4-1.4-1.4-3.5,0-4.9
		l29.1-29.1l-29.1-29.1c-1.4-1.4-1.4-3.5,0-4.9c1.4-1.4,3.5-1.4,4.9,0l29.1,29.1l29.1-29.1c1-1,2.5-1.3,3.8-0.7
		c1.3,0.5,2.1,1.8,2.1,3.2v63c0,1.4-0.8,2.7-2.1,3.2C990.6,275.3,990.1,275.4,989.7,275.4z M963.1,240.4l23.2,23.2v-46.3
		L963.1,240.4z"/>
</g>
<path fill="#414042" d="M523.8,517.1v-23.2c0-0.8-0.7-1.5-1.5-1.5h-5.7c-1.6,0-3,0.5-4.2,1.4v-34.6c0-4.6-3.7-8.3-8.3-8.3
	c-4.6,0-8.3,3.7-8.3,8.3v12.4c-1.4-1.2-3.3-1.9-5.3-1.9c-3.6,0-6.7,2.4-7.9,5.6c-1.5-1.5-3.5-2.3-5.8-2.3c-4.6,0-8.3,3.7-8.3,8.3
	v0.1c-1.4-1.2-3.3-1.9-5.3-1.9c-4.6,0-8.3,3.7-8.3,8.3v35.5c0,0,0,0,0,0l0,6.1c0,0.3-0.2,8.3,8.3,15.3v9.4c0,0.8,0.7,1.5,1.5,1.5
	c0.8,0,1.5-0.7,1.5-1.5v-10.1c0-0.5-0.2-0.9-0.6-1.2c-7.9-6.1-7.8-13-7.7-13.4v-6.1v-2.2v-33.2c0-2.9,2.4-5.3,5.3-5.3
	c2.9,0,5.3,2.4,5.3,5.3v3.9c0,0.8,0.7,1.5,1.5,1.5c0.8,0,1.5-0.7,1.5-1.5v-10.3c0-2.9,2.4-5.3,5.3-5.3c2.9,0,5.3,2.4,5.3,5.3v7.8
	v2.6c0,0.8,0.7,1.5,1.5,1.5s1.5-0.7,1.5-1.5v-2.6v-7.8v-3.3c0-2.9,2.4-5.3,5.3-5.3s5.3,2.4,5.3,5.3v9.9v3.8c0,0.8,0.7,1.5,1.5,1.5
	s1.5-0.7,1.5-1.5v-3.8v-9.9v-18.8c0-2.9,2.4-5.3,5.3-5.3s5.3,2.4,5.3,5.3v40.4v11.8v7.2c0,0.8,0.7,1.5,1.5,1.5
	c0.8,0,1.5-0.7,1.5-1.5v-7.2v-11.8c0-2.3,1.9-4.2,4.2-4.2h4.2v21.8c0,0,0,0.1,0,0.1c0,0,0,0,0,0.1c0,0.1,0.4,5.7-6.7,13
	c-7.7,7.8-17.6,16.3-17.7,16.4c-0.3,0.3-0.5,0.7-0.5,1.1v7.9c0,0.8,0.7,1.5,1.5,1.5s1.5-0.7,1.5-1.5v-7.3
	c2.2-1.9,10.6-9.2,17.4-16.1C524,524.4,523.8,518,523.8,517.1z"/>
<g>
	<path fill="#4D4D4D" d="M516.5,416.4c-1.9,0-3.5-1.5-3.5-3.5v-62.5c0-27.5,22.3-49.8,49.8-49.8h155c1.9,0,3.5,1.5,3.5,3.5
		s-1.6,3.5-3.5,3.5h-155c-23.6,0-42.9,19.2-42.9,42.9v62.5C520,414.8,518.5,416.4,516.5,416.4z"/>
</g>
<g>
	<g id="XMLID_42_">
		<path id="XMLID_43_" fill="#06BECC" d="M824.9,306.4h-63.7c-3.5,0-6.5-2.5-7.1-5.9l-7.1-40.8h-18.2c-2.3,0-4.5-1.6-4.9-3.9
			c-0.6-3.1,1.8-5.9,4.8-5.9h20.7c3.4,0,6.3,2.4,6.9,5.8l7.2,40.9H825c3,0,5.4,2.8,4.8,5.9C829.3,304.8,827.2,306.4,824.9,306.4z"/>
	</g>
	<circle id="XMLID_44_" fill="#06BECC" cx="773.4" cy="312.9" r="7.6"/>
	<circle id="XMLID_46_" fill="#06BECC" cx="810.9" cy="312.9" r="7.6"/>
	<path fill="#06BECC" d="M761.8,259.3l5.3,33.6h55.6l4.5-33.6H761.8z M814.6,286c0,0.4-0.3,0.7-0.7,0.7h-38.3
		c-0.4,0-0.7-0.3-0.7-0.7v-1.5c0-0.4,0.3-0.7,0.7-0.7h38.3c0.4,0,0.7,0.3,0.7,0.7V286z M814.6,276.9c0,0.4-0.3,0.7-0.7,0.7h-38.3
		c-0.4,0-0.7-0.3-0.7-0.7v-1.5c0-0.4,0.3-0.7,0.7-0.7h38.3c0.4,0,0.7,0.3,0.7,0.7V276.9z M814.6,268.2c0,0.4-0.3,0.7-0.7,0.7h-38.3
		c-0.4,0-0.7-0.3-0.7-0.7v-1.5c0-0.4,0.3-0.7,0.7-0.7h38.3c0.4,0,0.7,0.3,0.7,0.7V268.2z"/>
</g>
<g>
	<g id="XMLID_220_">
		<path id="XMLID_285_" fill="#414042" d="M672.6,452h-26.7c-1,0-1.8-0.8-1.9-1.7c0,0,0,0,0,0c0,0-0.3-2.2-3.3-6.3l-0.5-0.7
			c-3.4-4.8-9.2-12.8-9.2-23.4c0-0.1,0-0.3,0-0.4c0-0.3,0-0.6,0-0.9c0-15.6,12.7-28.2,28.2-28.2c15.6,0,28.2,12.7,28.2,28.2
			c0,0.3,0,0.6,0,0.9c0,0.1,0,0.2,0,0.4c0,10.6-5.8,18.6-9.2,23.4l-0.5,0.7c-3,4.1-3.3,6.4-3.3,6.4C674.4,451.3,673.6,452,672.6,452
			z M647.4,448.2h23.8c0.5-1.4,1.5-3.6,3.6-6.5l0.5-0.7c3.3-4.6,8.3-11.6,8.5-20.7c0-0.2-0.1-0.4-0.1-0.5l0-0.5c0-0.2,0-0.5,0-0.7
			c0-13.5-10.9-24.4-24.4-24.4c-13.5,0-24.4,10.9-24.4,24.4c0,0.2,0,0.5,0,0.7l0,0.5c0,0.2,0,0.4-0.1,0.6c0.2,9.1,5.2,16.1,8.5,20.7
			l0.5,0.7C645.9,444.7,646.9,446.8,647.4,448.2z"/>
	</g>
	<g id="XMLID_127_">
		<path id="XMLID_282_" fill="#414042" d="M672.2,458.9h-25.9c-2.9,0-5.3-2.4-5.3-5.3c0-2.9,2.4-5.3,5.3-5.3h25.9
			c2.9,0,5.3,2.4,5.3,5.3C677.5,456.5,675.1,458.9,672.2,458.9z M646.3,452c-0.8,0-1.5,0.7-1.5,1.5c0,0.8,0.7,1.5,1.5,1.5h25.9
			c0.8,0,1.5-0.7,1.5-1.5c0-0.8-0.7-1.5-1.5-1.5H646.3z"/>
	</g>
	<g id="XMLID_221_">
		<path id="XMLID_277_" fill="#414042" d="M672.2,465.7h-25.9c-2.9,0-5.3-2.4-5.3-5.3c0-2.9,2.4-5.3,5.3-5.3h25.9
			c2.9,0,5.3,2.4,5.3,5.3C677.5,463.4,675.1,465.7,672.2,465.7z M646.3,458.9c-0.8,0-1.5,0.7-1.5,1.5c0,0.8,0.7,1.5,1.5,1.5h25.9
			c0.8,0,1.5-0.7,1.5-1.5c0-0.8-0.7-1.5-1.5-1.5H646.3z"/>
	</g>
	<g id="XMLID_222_">
		<path id="XMLID_233_" fill="#414042" d="M672.2,472.6h-25.9c-2.9,0-5.3-2.4-5.3-5.3c0-2.9,2.4-5.3,5.3-5.3h25.9
			c2.9,0,5.3,2.4,5.3,5.3C677.5,470.2,675.1,472.6,672.2,472.6z M646.3,465.7c-0.8,0-1.5,0.7-1.5,1.5s0.7,1.5,1.5,1.5h25.9
			c0.8,0,1.5-0.7,1.5-1.5s-0.7-1.5-1.5-1.5H646.3z"/>
	</g>
	<path id="XMLID_305_" fill="#499DD0" d="M673.7,453.6c0,0.8-0.7,1.5-1.5,1.5h-25.9c-0.8,0-1.5-0.7-1.5-1.5c0-0.8,0.7-1.5,1.5-1.5
		h25.9C673,452,673.7,452.7,673.7,453.6z"/>
	<path id="XMLID_307_" fill="#499DD0" d="M673.7,460.4c0,0.8-0.7,1.5-1.5,1.5h-25.9c-0.8,0-1.5-0.7-1.5-1.5c0-0.8,0.7-1.5,1.5-1.5
		h25.9C673,458.9,673.7,459.6,673.7,460.4z"/>
	<path id="XMLID_308_" fill="#499DD0" d="M672.2,468.8h-25.9c-0.8,0-1.5-0.7-1.5-1.5s0.7-1.5,1.5-1.5h25.9c0.8,0,1.5,0.7,1.5,1.5
		S673,468.8,672.2,468.8z"/>
	<path id="XMLID_309_" fill="#06BECC" d="M683.7,420.3c-0.2,9.1-5.2,16.1-8.5,20.7l-0.5,0.7c-2.1,2.9-3.1,5.1-3.6,6.5h-23.8
		c-0.5-1.4-1.5-3.6-3.6-6.5l-0.5-0.7c-3.3-4.6-8.3-11.6-8.5-20.7c0-0.2,0.1-0.4,0.1-0.6l0-0.5c0-0.2,0-0.5,0-0.7
		c0-13.5,10.9-24.4,24.4-24.4c13.5,0,24.4,10.9,24.4,24.4c0,0.3,0,0.5,0,0.7l0,0.5C683.6,420,683.6,420.2,683.7,420.3z"/>
	<g id="XMLID_223_">
		<path id="XMLID_302_" fill="#414042" d="M651.8,451.2C651.8,451.2,651.7,451.2,651.8,451.2c-1.1,0-1.9-0.9-1.9-2
			c0.2-9.5-5.3-25.1-5.3-25.2c-0.4-1,0.2-2.1,1.2-2.4c1-0.4,2.1,0.2,2.4,1.2c0.2,0.7,5.8,16.4,5.6,26.6
			C653.7,450.4,652.8,451.2,651.8,451.2z"/>
	</g>
	<g id="XMLID_217_">
		<path id="XMLID_301_" fill="#414042" d="M666.9,451.2c-1,0-1.9-0.8-1.9-1.9c-0.2-10.2,5.3-25.9,5.6-26.6c0.4-1,1.4-1.5,2.4-1.2
			c1,0.4,1.5,1.4,1.2,2.4c-0.1,0.2-5.6,15.7-5.3,25.2C668.9,450.3,668,451.2,666.9,451.2C667,451.2,666.9,451.2,666.9,451.2z"/>
	</g>
	<g id="XMLID_228_">
		<path id="XMLID_300_" fill="#414042" d="M659.3,387.3c-1.1,0-1.9-0.9-1.9-1.9v-8.5c0-1.1,0.9-1.9,1.9-1.9c1.1,0,1.9,0.9,1.9,1.9
			v8.5C661.2,386.5,660.3,387.3,659.3,387.3z"/>
	</g>
	<g id="XMLID_250_">
		<g id="XMLID_262_">
			<path id="XMLID_299_" fill="#414042" d="M623,423.5h-8.5c-1.1,0-1.9-0.9-1.9-1.9c0-1.1,0.9-1.9,1.9-1.9h8.5
				c1.1,0,1.9,0.9,1.9,1.9C624.9,422.7,624.1,423.5,623,423.5z"/>
		</g>
		<g id="XMLID_260_">
			<path id="XMLID_298_" fill="#414042" d="M704,423.5h-8.5c-1.1,0-1.9-0.9-1.9-1.9c0-1.1,0.9-1.9,1.9-1.9h8.5
				c1.1,0,1.9,0.9,1.9,1.9C705.9,422.7,705,423.5,704,423.5z"/>
		</g>
	</g>
	<g id="XMLID_267_">
		<path id="XMLID_297_" fill="#414042" d="M627.6,455.2c-0.5,0-1-0.2-1.3-0.6c-0.7-0.7-0.7-2,0-2.7l6-6c0.7-0.7,2-0.7,2.7,0
			c0.7,0.7,0.7,2,0,2.7l-6,6C628.6,455,628.1,455.2,627.6,455.2z"/>
	</g>
	<g id="XMLID_266_">
		<path id="XMLID_296_" fill="#414042" d="M684.9,397.9c-0.5,0-1-0.2-1.3-0.6c-0.7-0.7-0.7-2,0-2.7l6-6c0.7-0.7,2-0.7,2.7,0
			c0.7,0.7,0.7,2,0,2.7l-6,6C685.9,397.7,685.4,397.9,684.9,397.9z"/>
	</g>
	<g id="XMLID_270_">
		<path id="XMLID_295_" fill="#414042" d="M690.9,455.2c-0.5,0-1-0.2-1.3-0.6l-6-6c-0.7-0.7-0.7-2,0-2.7c0.7-0.7,2-0.7,2.7,0l6,6
			c0.7,0.7,0.7,2,0,2.7C691.8,455,691.4,455.2,690.9,455.2z"/>
	</g>
	<g id="XMLID_269_">
		<path id="XMLID_294_" fill="#414042" d="M633.6,397.9c-0.5,0-1-0.2-1.3-0.6l-6-6c-0.7-0.7-0.7-2,0-2.7c0.7-0.7,2-0.7,2.7,0l6,6
			c0.7,0.7,0.7,2,0,2.7C634.6,397.7,634.1,397.9,633.6,397.9z"/>
	</g>
	<g id="XMLID_271_">
		<g id="XMLID_273_">
			<path id="XMLID_293_" fill="#414042" d="M700.3,441.2c-0.3,0-0.5,0-0.8-0.2l-7.8-3.3c-1-0.4-1.4-1.5-1-2.5c0.4-1,1.5-1.4,2.5-1
				l7.8,3.3c1,0.4,1.4,1.5,1,2.5C701.8,440.7,701.1,441.2,700.3,441.2z"/>
		</g>
		<g id="XMLID_272_">
			<path id="XMLID_292_" fill="#414042" d="M626,409.3c-0.3,0-0.5,0-0.8-0.2l-7.8-3.3c-1-0.4-1.4-1.5-1-2.5c0.4-1,1.5-1.4,2.5-1
				l7.8,3.3c1,0.4,1.4,1.5,1,2.5C627.4,408.8,626.7,409.3,626,409.3z"/>
		</g>
	</g>
	<g id="XMLID_274_">
		<g id="XMLID_276_">
			<path id="XMLID_291_" fill="#414042" d="M618.2,441.2c-0.7,0-1.4-0.4-1.8-1.2c-0.4-1,0-2.1,1-2.5l7.8-3.3c1-0.4,2.1,0,2.5,1
				c0.4,1,0,2.1-1,2.5l-7.8,3.3C618.7,441.1,618.4,441.2,618.2,441.2z"/>
		</g>
		<g id="XMLID_275_">
			<path id="XMLID_290_" fill="#414042" d="M692.6,409.3c-0.7,0-1.4-0.4-1.8-1.2c-0.4-1,0-2.1,1-2.5l7.8-3.3c1-0.4,2.1,0,2.5,1
				c0.4,1,0,2.1-1,2.5l-7.8,3.3C693.1,409.2,692.8,409.3,692.6,409.3z"/>
		</g>
	</g>
	<g id="XMLID_278_">
		<path id="XMLID_289_" fill="#414042" d="M673.2,390.1c-0.2,0-0.5,0-0.7-0.1c-1-0.4-1.4-1.5-1-2.5l3.3-7.8c0.4-1,1.5-1.4,2.5-1
			c1,0.4,1.4,1.5,1,2.5l-3.3,7.8C674.7,389.7,674,390.1,673.2,390.1z"/>
	</g>
	<g id="XMLID_281_">
		<path id="XMLID_288_" fill="#414042" d="M645.3,390.1c-0.7,0-1.5-0.4-1.8-1.2l-3.3-7.8c-0.4-1,0.1-2.1,1-2.5c1-0.4,2.1,0.1,2.5,1
			l3.3,7.8c0.4,1-0.1,2.1-1,2.5C645.8,390.1,645.5,390.1,645.3,390.1z"/>
	</g>
</g>
<g>
	<path fill="#A5CC56" d="M1215.7,638.7h-128c-4,0-7.3-3.3-7.3-7.3V450.1c0-4,3.3-7.3,7.3-7.3h128c4,0,7.3,3.3,7.3,7.3v181.3
		C1223,635.5,1219.7,638.7,1215.7,638.7z"/>
	<rect x="1091.2" y="453.4" fill="#EFEFEF" width="120.9" height="159.1"/>
	<circle fill="#EFEFEF" cx="1151.7" cy="625.4" r="8.4"/>
	<g>
		<g>
			<polygon fill="#06BECC" points="1199.7,582.1 1108.3,582.1 1108.3,492.8 1115,492.8 1115,575.4 1199.7,575.4 			"/>
		</g>
		<polygon fill="#06BECC" points="1129.1,543.6 1124.4,541.8 1124.4,572.1 1134,572.1 1134,542.1 		"/>
		<polygon fill="#06BECC" points="1140.2,540.2 1140.2,572.1 1149.8,572.1 1149.8,537.3 		"/>
		<polygon fill="#06BECC" points="1162.4,533.5 1156,535.5 1156,572.1 1165.6,572.1 1165.6,531.3 		"/>
		<polygon fill="#06BECC" points="1171.8,527 1171.8,572.1 1181.4,572.1 1181.4,520.2 		"/>
		<polygon fill="#06BECC" points="1185,508.2 1159.1,526.4 1129.4,535.4 1120.4,532 1118.6,535.5 1129.1,539.5 1162.4,529.5 
			1189.2,510.6 		"/>
		<polygon fill="#06BECC" points="1181.4,507.2 1189.2,514.4 1191.8,504.9 		"/>
	</g>
</g>
<g>
	<path fill="#4D4D4D" d="M1104.2,855.7H1050c-23.6,0-42.7-19.2-42.7-42.7c0-19.8-16.1-35.9-35.9-35.9h-44.7c-1.9,0-3.5-1.6-3.5-3.5
		s1.6-3.5,3.5-3.5h44.7c23.6,0,42.9,19.2,42.9,42.9c0,19.7,16.1,35.8,35.8,35.8h54.1c25.3,0,45.9-20.6,45.9-45.9V662.8
		c0-1.9,1.6-3.5,3.5-3.5c1.9,0,3.5,1.6,3.5,3.5v140.1C1157,832,1133.3,855.7,1104.2,855.7z"/>
</g>
<g>
	<path fill="#06BECC" d="M1235.3,451.4c-1.7,0-3-1.3-3-3c0-7.3-6-13.3-13.3-13.3c-1.7,0-3-1.3-3-3s1.3-3,3-3
		c10.7,0,19.3,8.7,19.3,19.3C1238.3,450,1236.9,451.4,1235.3,451.4z"/>
</g>
<g>
	<path fill="#06BECC" d="M1247.4,451.4c-1.7,0-3-1.3-3-3c0-14-11.4-25.4-25.4-25.4c-1.7,0-3-1.3-3-3s1.3-3,3-3
		c17.3,0,31.4,14.1,31.4,31.4C1250.4,450,1249.1,451.4,1247.4,451.4z"/>
</g>
<g>
	<polygon fill="#E6E6E6" points="1313.3,53.8 1182,53.8 1182,285.1 1348.6,285.1 1348.6,84.6 1319,69.2 	"/>
	<polygon fill="#B3B3B3" points="1313.3,53.8 1313.3,84.6 1348.6,84.6 	"/>
	<rect x="1201.6" y="84.6" fill="#06BECC" width="90.5" height="15.1"/>
	<rect x="1201.6" y="118" fill="#808080" width="127.8" height="4.9"/>
	<rect x="1201.6" y="130.6" fill="#808080" width="127.8" height="4.9"/>
	<rect x="1201.6" y="143.3" fill="#808080" width="127.8" height="4.9"/>
	<rect x="1201.6" y="155.9" fill="#808080" width="127.8" height="4.9"/>
	<rect x="1201.6" y="168.5" fill="#808080" width="127.8" height="4.9"/>
	<rect x="1201.6" y="181.2" fill="#808080" width="127.8" height="4.9"/>
	<rect x="1201.6" y="193.8" fill="#808080" width="127.8" height="4.9"/>
	<rect x="1201.6" y="206.5" fill="#808080" width="127.8" height="4.9"/>
	<rect x="1201.6" y="219.1" fill="#808080" width="127.8" height="4.9"/>
	<rect x="1201.6" y="231.8" fill="#808080" width="127.8" height="4.9"/>
	<rect x="1201.6" y="244.4" fill="#808080" width="127.8" height="4.9"/>
</g>
<g>
	<g>
		<path fill="#4D4D4D" d="M438.4,155.7c-1.4,0-2.5-1.1-2.5-2.5v-10.1c0-1.4,1.1-2.5,2.5-2.5h10.1c1.4,0,2.5,1.1,2.5,2.5
			s-1.1,2.5-2.5,2.5h-7.7v7.6C440.8,154.5,439.7,155.7,438.4,155.7z"/>
	</g>
	<g>
		<path fill="#4D4D4D" d="M471.6,155.7c-1.4,0-2.5-1.1-2.5-2.5v-7.7h-7.6c-1.4,0-2.5-1.1-2.5-2.5c0-1.4,1.1-2.5,2.5-2.5h10.1
			c1.4,0,2.5,1.1,2.5,2.5v10.1C474,154.6,472.9,155.7,471.6,155.7z"/>
	</g>
	<g>
		<path fill="#4D4D4D" d="M471.6,175.9h-10.1c-1.4,0-2.5-1.1-2.5-2.5c0-1.4,1.1-2.5,2.5-2.5h7.7v-7.6c0-1.4,1.1-2.5,2.5-2.5
			c1.4,0,2.5,1.1,2.5,2.5v10.1C474,174.8,472.9,175.9,471.6,175.9z"/>
	</g>
	<g>
		<path fill="#4D4D4D" d="M448.4,176h-10.1c-1.4,0-2.5-1.1-2.5-2.5v-10.1c0-1.4,1.1-2.5,2.5-2.5s2.5,1.1,2.5,2.5v7.7h7.6
			c1.4,0,2.5,1.1,2.5,2.5C450.9,174.9,449.8,176,448.4,176z"/>
	</g>
</g>
<g>
	<path fill="#4D4D4D" d="M166.9,543.2H68.2c-1.9,0-3.5-1.6-3.5-3.5v-75.5c0-1.9,1.5-3.5,3.5-3.5h98.7c1.9,0,3.5,1.5,3.5,3.5v75.5
		C170.4,541.7,168.8,543.2,166.9,543.2z M71.6,536.3h91.8v-68.6H71.6V536.3z"/>
</g>
<g>
	<path fill="#4D4D4D" d="M117.5,511.5c-0.8,0-1.6-0.3-2.3-0.9l-49.4-43.7c-1.4-1.3-1.6-3.5-0.3-4.9c1.3-1.4,3.5-1.6,4.9-0.3
		l47.1,41.7l47.1-41.7c1.4-1.3,3.6-1.1,4.9,0.3c1.3,1.4,1.1,3.6-0.3,4.9l-49.4,43.7C119.2,511.2,118.4,511.5,117.5,511.5z"/>
</g>
<g>
	<path fill="#4D4D4D" d="M68.2,543.2c-0.9,0-1.8-0.3-2.5-1c-1.3-1.4-1.3-3.5,0-4.9l40.1-40c1.4-1.3,3.5-1.3,4.9,0
		c1.3,1.4,1.3,3.5,0,4.9l-40.1,40C70,542.9,69.1,543.2,68.2,543.2z"/>
</g>
<g>
	<path fill="#4D4D4D" d="M166.9,543.2c-0.9,0-1.8-0.3-2.4-1l-40.1-40c-1.4-1.4-1.4-3.5,0-4.9s3.5-1.4,4.9,0l40.1,40
		c1.4,1.4,1.4,3.5,0,4.9C168.7,542.9,167.8,543.2,166.9,543.2z"/>
</g>
<g>
	<path fill="#4D4D4D" d="M1091.2,422.3c-1.9,0-3.5-1.5-3.5-3.5V407c0-1.9,1.6-3.5,3.5-3.5c1.9,0,3.5,1.5,3.5,3.5v11.9
		C1094.7,420.8,1093.1,422.3,1091.2,422.3z M1091.2,398.6c-1.9,0-3.5-1.5-3.5-3.5v-11.9c0-1.9,1.6-3.5,3.5-3.5
		c1.9,0,3.5,1.5,3.5,3.5v11.9C1094.7,397,1093.1,398.6,1091.2,398.6z M1091.2,374.8c-1.9,0-3.5-1.5-3.5-3.5v-11.9
		c0-1.9,1.6-3.5,3.5-3.5c1.9,0,3.5,1.5,3.5,3.5v11.9C1094.7,373.3,1093.1,374.8,1091.2,374.8z M1091.2,351.1c-1.9,0-3.5-1.5-3.5-3.5
		v-11.9c0-1.9,1.6-3.5,3.5-3.5c1.9,0,3.5,1.5,3.5,3.5v11.9C1094.7,349.6,1093.1,351.1,1091.2,351.1z M1091.2,327.4
		c-1.9,0-3.5-1.5-3.5-3.5V312c0-1.9,1.6-3.5,3.5-3.5c1.9,0,3.5,1.5,3.5,3.5v11.9C1094.7,325.8,1093.1,327.4,1091.2,327.4z
		 M1091.2,303.6c-1.9,0-3.5-1.5-3.5-3.5v-11.9c0-1.9,1.6-3.5,3.5-3.5c1.9,0,3.5,1.5,3.5,3.5v11.9
		C1094.7,302.1,1093.1,303.6,1091.2,303.6z M1091.2,279.9c-1.9,0-3.5-1.5-3.5-3.5v-5.6c0-1.9,1.6-3.5,3.5-3.5h6.3
		c1.9,0,3.5,1.5,3.5,3.5s-1.6,3.5-3.5,3.5h-2.8v2.1C1094.7,278.3,1093.1,279.9,1091.2,279.9z M1143.3,274.3h-10.2
		c-1.9,0-3.5-1.5-3.5-3.5s1.6-3.5,3.5-3.5h10.2c1.9,0,3.5,1.5,3.5,3.5S1145.2,274.3,1143.3,274.3z M1121.2,274.3h-11.9
		c-1.9,0-3.5-1.5-3.5-3.5s1.6-3.5,3.5-3.5h11.9c1.9,0,3.5,1.5,3.5,3.5S1123.1,274.3,1121.2,274.3z"/>
</g>
<g>
	<path fill="#4D4D4D" d="M119.5,432.5c-1.9,0-3.5-1.5-3.5-3.5V278.6c0-44.1,35.9-80,80-80h107.3c1.9,0,3.5,1.5,3.5,3.5
		c0,1.9-1.5,3.5-3.5,3.5H196.1c-40.3,0-73,32.8-73,73V429C123,430.9,121.5,432.5,119.5,432.5z"/>
</g>
<g>
	<path fill="#4D4D4D" d="M256.1,360.5h-70.4c-1.1,0-2-0.9-2-2s0.9-2,2-2h70.4c1.1,0,2,0.9,2,2S257.2,360.5,256.1,360.5z"/>
</g>
<g>
	<path fill="#4D4D4D" d="M256.1,380.1h-70.4c-1.1,0-2-0.9-2-2s0.9-2,2-2h70.4c1.1,0,2,0.9,2,2S257.2,380.1,256.1,380.1z"/>
</g>
<g>
	<path fill="#4D4D4D" d="M256.1,400.6h-70.4c-1.1,0-2-0.9-2-2s0.9-2,2-2h70.4c1.1,0,2,0.9,2,2S257.2,400.6,256.1,400.6z"/>
</g>
<g>
	<path fill="#4D4D4D" d="M166.9,363.3C166.8,363.3,166.8,363.3,166.9,363.3c-0.5,0-0.9-0.2-1.2-0.6l-4.5-5.7
		c-0.5-0.6-0.4-1.6,0.3-2.1c0.6-0.5,1.6-0.4,2.1,0.3l3.4,4.3l10.3-12.2c0.5-0.6,1.5-0.7,2.1-0.2c0.6,0.5,0.7,1.5,0.2,2.1L168,362.8
		C167.7,363.1,167.3,363.3,166.9,363.3z"/>
</g>
<g>
	<path fill="#4D4D4D" d="M166.9,384.7C166.8,384.7,166.8,384.7,166.9,384.7c-0.5,0-0.9-0.2-1.2-0.6l-4.5-5.7
		c-0.5-0.6-0.4-1.6,0.3-2.1c0.6-0.5,1.6-0.4,2.1,0.3l3.4,4.3l10.3-12.2c0.5-0.6,1.5-0.7,2.1-0.2c0.6,0.5,0.7,1.5,0.2,2.1L168,384.2
		C167.7,384.5,167.3,384.7,166.9,384.7z"/>
</g>
<g>
	<path fill="#4D4D4D" d="M166.9,404.2C166.8,404.2,166.8,404.2,166.9,404.2c-0.5,0-0.9-0.2-1.2-0.6l-4.5-5.7
		c-0.5-0.6-0.4-1.6,0.3-2.1c0.6-0.5,1.6-0.4,2.1,0.3l3.4,4.3l10.3-12.2c0.5-0.6,1.5-0.7,2.1-0.2c0.6,0.5,0.7,1.5,0.2,2.1L168,403.7
		C167.7,404,167.3,404.2,166.9,404.2z"/>
</g>
<g>
	<path fill="#4D4D4D" d="M665.2,222.3h-11.9c-1.9,0-3.5-1.5-3.5-3.5c0-1.9,1.5-3.5,3.5-3.5h11.9c1.9,0,3.5,1.5,3.5,3.5
		C668.6,220.8,667.1,222.3,665.2,222.3z M641.4,222.3h-11.9c-1.9,0-3.5-1.5-3.5-3.5c0-1.9,1.5-3.5,3.5-3.5h11.9
		c1.9,0,3.5,1.5,3.5,3.5C644.9,220.8,643.3,222.3,641.4,222.3z M617.7,222.3h-11.9c-1.9,0-3.5-1.5-3.5-3.5c0-1.9,1.5-3.5,3.5-3.5
		h11.9c1.9,0,3.5,1.5,3.5,3.5C621.2,220.8,619.6,222.3,617.7,222.3z M594,222.3h-11.9c-1.9,0-3.5-1.5-3.5-3.5c0-1.9,1.5-3.5,3.5-3.5
		H594c1.9,0,3.5,1.5,3.5,3.5C597.4,220.8,595.9,222.3,594,222.3z M570.2,222.3h-11.9c-1.9,0-3.5-1.5-3.5-3.5c0-1.9,1.5-3.5,3.5-3.5
		h11.9c1.9,0,3.5,1.5,3.5,3.5C573.7,220.8,572.1,222.3,570.2,222.3z M546.5,222.3h-11.9c-1.9,0-3.5-1.5-3.5-3.5
		c0-1.9,1.5-3.5,3.5-3.5h11.9c1.9,0,3.5,1.5,3.5,3.5C549.9,220.8,548.4,222.3,546.5,222.3z M522.7,222.3h-11.9
		c-1.9,0-3.5-1.5-3.5-3.5c0-1.9,1.5-3.5,3.5-3.5h11.9c1.9,0,3.5,1.5,3.5,3.5C526.2,220.8,524.7,222.3,522.7,222.3z M671.1,216.4
		c-1.9,0-3.5-1.5-3.5-3.5v-11.9c0-1.9,1.5-3.5,3.5-3.5c1.9,0,3.5,1.5,3.5,3.5V213C674.6,214.9,673,216.4,671.1,216.4z M671.1,192.7
		c-1.9,0-3.5-1.5-3.5-3.5v-11.9c0-1.9,1.5-3.5,3.5-3.5c1.9,0,3.5,1.5,3.5,3.5v11.9C674.6,191.1,673,192.7,671.1,192.7z M671.1,168.9
		c-1.9,0-3.5-1.5-3.5-3.5v-11.9c0-1.9,1.5-3.5,3.5-3.5c1.9,0,3.5,1.5,3.5,3.5v11.9C674.6,167.4,673,168.9,671.1,168.9z M924.1,149
		h-11.9c-1.9,0-3.5-1.5-3.5-3.5c0-1.9,1.6-3.5,3.5-3.5h11.9c1.9,0,3.5,1.5,3.5,3.5C927.6,147.4,926,149,924.1,149z M900.4,149h-11.9
		c-1.9,0-3.5-1.5-3.5-3.5c0-1.9,1.6-3.5,3.5-3.5h11.9c1.9,0,3.5,1.5,3.5,3.5C903.8,147.4,902.3,149,900.4,149z M876.7,149h-11.9
		c-1.9,0-3.5-1.5-3.5-3.5c0-1.9,1.6-3.5,3.5-3.5h11.9c1.9,0,3.5,1.5,3.5,3.5C880.1,147.4,878.6,149,876.7,149z M852.9,149H841
		c-1.9,0-3.5-1.5-3.5-3.5c0-1.9,1.6-3.5,3.5-3.5h11.9c1.9,0,3.5,1.5,3.5,3.5C856.4,147.4,854.8,149,852.9,149z M829.2,149h-11.9
		c-1.9,0-3.5-1.5-3.5-3.5c0-1.9,1.6-3.5,3.5-3.5h11.9c1.9,0,3.5,1.5,3.5,3.5C832.6,147.4,831.1,149,829.2,149z M805.4,149h-11.9
		c-1.9,0-3.5-1.5-3.5-3.5c0-1.9,1.6-3.5,3.5-3.5h11.9c1.9,0,3.5,1.5,3.5,3.5C808.9,147.4,807.4,149,805.4,149z M781.7,149h-11.9
		c-1.9,0-3.5-1.5-3.5-3.5c0-1.9,1.6-3.5,3.5-3.5h11.9c1.9,0,3.5,1.5,3.5,3.5C785.2,147.4,783.6,149,781.7,149z M758,149h-11.9
		c-1.9,0-3.5-1.5-3.5-3.5c0-1.9,1.6-3.5,3.5-3.5H758c1.9,0,3.5,1.5,3.5,3.5C761.4,147.4,759.9,149,758,149z M734.2,149h-11.9
		c-1.9,0-3.5-1.5-3.5-3.5c0-1.9,1.6-3.5,3.5-3.5h11.9c1.9,0,3.5,1.5,3.5,3.5C737.7,147.4,736.1,149,734.2,149z M710.5,149h-11.9
		c-1.9,0-3.5-1.5-3.5-3.5c0-1.9,1.6-3.5,3.5-3.5h11.9c1.9,0,3.5,1.5,3.5,3.5C714,147.4,712.4,149,710.5,149z M686.8,149h-11.9
		c-1.9,0-3.5-1.5-3.5-3.5c0-1.9,1.5-3.5,3.5-3.5h11.9c1.9,0,3.5,1.5,3.5,3.5C690.2,147.4,688.7,149,686.8,149z"/>
</g>
<g>
	<circle id="XMLID_459_" fill="#06BECC" cx="386.7" cy="802.3" r="16.1"/>
	<g id="XMLID_588_">
		<path id="XMLID_597_" fill="#414042" d="M373.1,803.3h-3.8c-0.5,0-1-0.4-1-1c0-0.5,0.4-1,1-1h3.8c0.5,0,1,0.4,1,1
			C374,802.8,373.6,803.3,373.1,803.3z"/>
	</g>
	<g id="XMLID_589_">
		<path id="XMLID_596_" fill="#414042" d="M404,803.3h-3.8c-0.5,0-1-0.4-1-1c0-0.5,0.4-1,1-1h3.8c0.5,0,1,0.4,1,1
			C405,802.8,404.6,803.3,404,803.3z"/>
	</g>
	<g id="XMLID_590_">
		<path id="XMLID_595_" fill="#414042" d="M386.7,820.7c-0.5,0-1-0.4-1-1v-3.8c0-0.5,0.4-1,1-1c0.5,0,1,0.4,1,1v3.8
			C387.6,820.2,387.2,820.7,386.7,820.7z"/>
	</g>
	<g id="XMLID_587_">
		<path id="XMLID_594_" fill="#414042" d="M386.7,789.7c-0.5,0-1-0.4-1-1v-3.8c0-0.5,0.4-1,1-1c0.5,0,1,0.4,1,1v3.8
			C387.6,789.2,387.2,789.7,386.7,789.7z"/>
	</g>
	<g id="XMLID_592_">
		<path id="XMLID_593_" fill="#414042" d="M396.1,808.8c-0.2,0-0.3,0-0.5-0.1l-9.5-5.5c-0.1-0.1-0.2-0.1-0.3-0.3l-4.8-6.2
			c-0.3-0.4-0.3-1.1,0.2-1.4c0.4-0.3,1.1-0.3,1.4,0.2l4.7,6l9.3,5.4c0.5,0.3,0.6,0.9,0.4,1.4C396.8,808.6,396.5,808.8,396.1,808.8z"
			/>
	</g>
</g>
<g>
	<circle id="XMLID_76_" fill="#06BECC" cx="1108.3" cy="95" r="16.1"/>
	<g id="XMLID_74_">
		<path id="XMLID_75_" fill="#414042" d="M1094.7,96h-3.8c-0.5,0-1-0.4-1-1s0.4-1,1-1h3.8c0.5,0,1,0.4,1,1S1095.2,96,1094.7,96z"/>
	</g>
	<g id="XMLID_72_">
		<path id="XMLID_73_" fill="#414042" d="M1125.6,96h-3.8c-0.5,0-1-0.4-1-1s0.4-1,1-1h3.8c0.5,0,1,0.4,1,1S1126.2,96,1125.6,96z"/>
	</g>
	<g id="XMLID_70_">
		<path id="XMLID_71_" fill="#414042" d="M1108.3,113.4c-0.5,0-1-0.4-1-1v-3.8c0-0.5,0.4-1,1-1s1,0.4,1,1v3.8
			C1109.3,112.9,1108.8,113.4,1108.3,113.4z"/>
	</g>
	<g id="XMLID_68_">
		<path id="XMLID_69_" fill="#414042" d="M1108.3,82.4c-0.5,0-1-0.4-1-1v-3.8c0-0.5,0.4-1,1-1s1,0.4,1,1v3.8
			C1109.3,82,1108.8,82.4,1108.3,82.4z"/>
	</g>
	<g id="XMLID_66_">
		<path id="XMLID_67_" fill="#414042" d="M1117.7,101.5c-0.2,0-0.3,0-0.5-0.1l-9.5-5.5c-0.1-0.1-0.2-0.1-0.3-0.3l-4.8-6.2
			c-0.3-0.4-0.3-1.1,0.2-1.4c0.4-0.3,1.1-0.3,1.4,0.2l4.7,6.1l9.3,5.4c0.5,0.3,0.6,0.9,0.4,1.4
			C1118.4,101.3,1118.1,101.5,1117.7,101.5z"/>
	</g>
</g>
<g>
	<rect id="XMLID_544_" x="103.8" y="171.8" fill="#A5CC56" width="21.9" height="21.3"/>
	<g id="XMLID_533_">
		<path id="XMLID_545_" fill="#414042" d="M122.6,200.4h-5.1c-0.8,0-1.5-0.7-1.5-1.5c0-0.8,0.7-1.5,1.5-1.5l3.6,0
			c0-0.8,0.7-1.5,1.5-1.5c0.8,0,1.5,0.7,1.5,1.5v1.5C124.1,199.7,123.5,200.4,122.6,200.4z M112.4,200.4h-5.1
			c-0.8,0-1.5-0.7-1.5-1.5c0-0.8,0.7-1.5,1.5-1.5h5.1c0.8,0,1.5,0.7,1.5,1.5C114,199.7,113.3,200.4,112.4,200.4z M102.3,200.4h-2.9
			c-0.8,0-1.5-0.7-1.5-1.5v-2.2c0-0.8,0.7-1.5,1.5-1.5c0.8,0,1.5,0.7,1.5,1.5v0.6h1.4c0.8,0,1.5,0.7,1.5,1.5
			C103.8,199.7,103.1,200.4,102.3,200.4z M122.6,193.7c-0.8,0-1.5-0.7-1.5-1.5v-5.1c0-0.8,0.7-1.5,1.5-1.5c0.8,0,1.5,0.7,1.5,1.5
			v5.1C124.1,193.1,123.5,193.7,122.6,193.7z M99.3,193.1c-0.8,0-1.5-0.7-1.5-1.5v-5.1c0-0.8,0.7-1.5,1.5-1.5c0.8,0,1.5,0.7,1.5,1.5
			v5.1C100.9,192.4,100.2,193.1,99.3,193.1z M122.6,183.6c-0.8,0-1.5-0.7-1.5-1.5V177c0-0.8,0.7-1.5,1.5-1.5c0.8,0,1.5,0.7,1.5,1.5
			v5.1C124.1,182.9,123.5,183.6,122.6,183.6z M99.3,183c-0.8,0-1.5-0.7-1.5-1.5v-5.1c0-0.8,0.7-1.5,1.5-1.5c0.8,0,1.5,0.7,1.5,1.5
			v5.1C100.9,182.3,100.2,183,99.3,183z M118.9,177.1h-5.1c-0.8,0-1.5-0.7-1.5-1.5c0-0.8,0.7-1.5,1.5-1.5h5.1c0.8,0,1.5,0.7,1.5,1.5
			C120.4,176.4,119.8,177.1,118.9,177.1z M108.7,177.1h-5.1c-0.8,0-1.5-0.7-1.5-1.5c0-0.8,0.7-1.5,1.5-1.5h5.1
			c0.8,0,1.5,0.7,1.5,1.5C110.3,176.4,109.6,177.1,108.7,177.1z"/>
	</g>
</g>
<path id="XMLID_561_" fill="#414042" d="M946.3,932c-0.4,0-0.8-0.2-1.1-0.4l-6.7-6.9l-6.7,6.5c-0.2,0.3-0.4,0.6-0.8,0.7
	c-0.6,0.2-1.2,0.1-1.6-0.3l-6.6-6.7l-6.5,6.3c-0.2,0.3-0.4,0.5-0.8,0.7c-0.6,0.2-1.2,0.1-1.6-0.3l-6.5-6.7l-6.5,6.3
	c-0.2,0.3-0.4,0.5-0.8,0.7c-0.6,0.2-1.2,0.1-1.6-0.3l-7.6-7.8c-0.6-0.6-0.6-1.5,0-2.1c0.6-0.6,1.5-0.6,2.1,0l6.5,6.7l6.5-6.3
	c0.2-0.3,0.4-0.5,0.8-0.7c0.6-0.2,1.2-0.1,1.6,0.3l6.5,6.7l6.2-6c0.1-0.3,0.2-0.6,0.4-0.8c0.6-0.6,1.5-0.6,2.1,0l0.2,0.2
	c0,0,0,0,0.1,0.1l6.5,6.6l6.7-6.5c0.2-0.3,0.4-0.6,0.8-0.7c0.6-0.2,1.2-0.1,1.6,0.3l6.7,6.9l7-6.8c0.6-0.6,1.5-0.6,2.1,0
	c0.6,0.6,0.6,1.5,0,2.1l-7.7,7.5c-0.2,0.3-0.4,0.6-0.8,0.7C946.7,932,946.5,932,946.3,932z"/>
<g>
	<path fill="#4D4D4D" d="M650.2,877.4h-8.9c-1.1,0-2-0.9-2-2c0-1.1,0.9-2,2-2h8.9c1.1,0,2,0.9,2,2
		C652.2,876.5,651.3,877.4,650.2,877.4z M632.4,877.4h-8.9c-1.1,0-2-0.9-2-2c0-1.1,0.9-2,2-2h8.9c1.1,0,2,0.9,2,2
		C634.4,876.5,633.5,877.4,632.4,877.4z M614.6,877.4h-8.9c-1.1,0-2-0.9-2-2c0-1.1,0.9-2,2-2h8.9c1.1,0,2,0.9,2,2
		C616.6,876.5,615.7,877.4,614.6,877.4z M596.8,877.4h-8.9c-1.1,0-2-0.9-2-2c0-1.1,0.9-2,2-2h8.9c1.1,0,2,0.9,2,2
		C598.8,876.5,597.9,877.4,596.8,877.4z M579,877.4h-8.9c-1.1,0-2-0.9-2-2c0-1.1,0.9-2,2-2h8.9c1.1,0,2,0.9,2,2
		C581,876.5,580.1,877.4,579,877.4z M561.2,877.4h-8.9c-1.1,0-2-0.9-2-2c0-1.1,0.9-2,2-2h8.9c1.1,0,2,0.9,2,2
		C563.2,876.5,562.3,877.4,561.2,877.4z M543.4,877c-0.1,0-0.2,0-0.3,0c-3.1-0.4-6.1-1.2-9.1-2.3c-1-0.4-1.5-1.5-1.1-2.6
		c0.4-1,1.5-1.5,2.6-1.1c2.6,1,5.4,1.7,8.1,2.1c1.1,0.1,1.8,1.1,1.7,2.2C545.2,876.3,544.4,877,543.4,877z M527,870.6
		c-0.4,0-0.8-0.1-1.1-0.4c-2.6-1.8-4.9-3.9-7-6.2c-0.7-0.8-0.7-2.1,0.2-2.8c0.8-0.7,2.1-0.6,2.8,0.2c1.9,2.1,4,4,6.3,5.6
		c0.9,0.6,1.1,1.9,0.5,2.8C528.2,870.3,527.6,870.6,527,870.6z M515.3,857.5c-0.7,0-1.4-0.4-1.7-1c-1.5-2.8-2.6-5.7-3.4-8.7
		c-0.3-1.1,0.4-2.1,1.4-2.4c1.1-0.3,2.1,0.4,2.4,1.4c0.7,2.7,1.7,5.4,3,7.8c0.5,1,0.1,2.2-0.8,2.7
		C515.9,857.4,515.6,857.5,515.3,857.5z M510.9,840.4c-1.1,0-2-0.9-2-2l0-0.6v-8.3c0-1.1,0.9-2,2-2s2,0.9,2,2l0,8.9
		C512.9,839.5,512,840.4,510.9,840.4C510.9,840.4,510.9,840.4,510.9,840.4z M510.9,822.6c-1.1,0-2-0.9-2-2v-8.9c0-1.1,0.9-2,2-2
		s2,0.9,2,2v8.9C512.9,821.7,512,822.6,510.9,822.6z M510.9,804.8c-1.1,0-2-0.9-2-2v-8.9c0-1.1,0.9-2,2-2s2,0.9,2,2v8.9
		C512.9,803.9,512,804.8,510.9,804.8z M510.9,787c-1.1,0-2-0.9-2-2v-8.9c0-1.1,0.9-2,2-2s2,0.9,2,2v8.9
		C512.9,786.1,512,787,510.9,787z M510.9,769.2c-1.1,0-2-0.9-2-2v-8.9c0-1.1,0.9-2,2-2s2,0.9,2,2v8.9
		C512.9,768.3,512,769.2,510.9,769.2z M510.9,751.4c-1.1,0-2-0.9-2-2v-8.9c0-1.1,0.9-2,2-2s2,0.9,2,2v8.9
		C512.9,750.5,512,751.4,510.9,751.4z M510.9,733.6c-1.1,0-2-0.9-2-2v-8.9c0-1.1,0.9-2,2-2s2,0.9,2,2v8.9
		C512.9,732.7,512,733.6,510.9,733.6z M510.9,715.8c-1.1,0-2-0.9-2-2v-8.9c0-1.1,0.9-2,2-2s2,0.9,2,2v8.9
		C512.9,714.9,512,715.8,510.9,715.8z"/>
</g>
<g>
	<path fill="#4D4D4D" d="M806.4,900.5c-1.1,0-2-0.9-2-2v-8.9c0-1.1,0.9-2,2-2c1.1,0,2,0.9,2,2v8.9
		C808.4,899.6,807.5,900.5,806.4,900.5z M806.4,882.7c-1.1,0-2-0.9-2-2v-5.3c0-1.1,0.9-2,2-2h3.6c1.1,0,2,0.9,2,2c0,1.1-0.9,2-2,2
		h-1.6v3.4C808.4,881.8,807.5,882.7,806.4,882.7z M881.2,877.4h-8.9c-1.1,0-2-0.9-2-2c0-1.1,0.9-2,2-2h8.9c1.1,0,2,0.9,2,2
		C883.2,876.5,882.3,877.4,881.2,877.4z M863.4,877.4h-8.9c-1.1,0-2-0.9-2-2c0-1.1,0.9-2,2-2h8.9c1.1,0,2,0.9,2,2
		C865.4,876.5,864.5,877.4,863.4,877.4z M845.6,877.4h-8.9c-1.1,0-2-0.9-2-2c0-1.1,0.9-2,2-2h8.9c1.1,0,2,0.9,2,2
		C847.6,876.5,846.7,877.4,845.6,877.4z M827.8,877.4h-8.9c-1.1,0-2-0.9-2-2c0-1.1,0.9-2,2-2h8.9c1.1,0,2,0.9,2,2
		C829.8,876.5,828.9,877.4,827.8,877.4z M890.1,877.2c-1,0-1.9-0.8-2-1.8c-0.1-1.1,0.7-2,1.8-2.1c2.8-0.3,5.6-0.8,8.3-1.7
		c1-0.3,2.2,0.2,2.5,1.3c0.3,1-0.2,2.2-1.3,2.5c-3,1-6,1.6-9.1,1.9C890.2,877.2,890.2,877.2,890.1,877.2z M906.9,871.8
		c-0.7,0-1.3-0.3-1.7-1c-0.6-0.9-0.2-2.2,0.7-2.7c2.4-1.4,4.7-3.1,6.7-5.1c0.8-0.7,2-0.7,2.8,0.1c0.7,0.8,0.7,2-0.1,2.8
		c-2.3,2.1-4.8,4-7.4,5.6C907.6,871.7,907.3,871.8,906.9,871.8z M919.8,859.7c-0.4,0-0.8-0.1-1.1-0.3c-0.9-0.6-1.1-1.8-0.5-2.7
		c1.6-2.3,2.9-4.8,3.9-7.5c0.4-1,1.5-1.5,2.6-1.1c1,0.4,1.5,1.5,1.1,2.6c-1.1,2.9-2.6,5.7-4.3,8.2
		C921,859.4,920.4,859.7,919.8,859.7z M926.2,843.3c-0.1,0-0.2,0-0.3,0c-1.1-0.2-1.8-1.2-1.7-2.3c0.3-1.9,0.4-3.8,0.4-5.8v-2.8
		c0-1.1,0.9-2,2-2c1.1,0,2,0.9,2,2v2.8c0,2.1-0.2,4.3-0.5,6.4C928,842.6,927.2,843.3,926.2,843.3z M926.7,825.5c-1.1,0-2-0.9-2-2
		v-8.9c0-1.1,0.9-2,2-2c1.1,0,2,0.9,2,2v8.9C928.6,824.6,927.7,825.5,926.7,825.5z M926.7,807.7c-1.1,0-2-0.9-2-2v-3.4
		c0-1.1,0.9-2,2-2c1.1,0,2,0.9,2,2v3.4C928.6,806.8,927.7,807.7,926.7,807.7z"/>
</g>
<g>
	<path fill="#4D4D4D" d="M1203.3,660.8h-8.9c-1.1,0-2-0.9-2-2c0-1.1,0.9-2,2-2h8.9c1.1,0,2,0.9,2,2
		C1205.3,659.9,1204.4,660.8,1203.3,660.8z M1185.5,660.8h-8.9c-1.1,0-2-0.9-2-2c0-1.1,0.9-2,2-2h8.9c1.1,0,2,0.9,2,2
		C1187.5,659.9,1186.6,660.8,1185.5,660.8z M1212.2,660.7c-1,0-1.9-0.8-2-1.8c-0.1-1.1,0.7-2.1,1.8-2.2c2.8-0.3,5.5-0.9,8-2
		c1-0.4,2.2,0,2.6,1c0.4,1,0,2.2-1,2.6c-2.9,1.2-6,2-9.2,2.3C1212.3,660.7,1212.2,660.7,1212.2,660.7z M1228.3,653.9
		c-0.6,0-1.1-0.2-1.5-0.7c-0.7-0.8-0.6-2.1,0.2-2.8c2.1-1.8,3.9-3.9,5.4-6.3c0.6-0.9,1.8-1.2,2.7-0.6c0.9,0.6,1.2,1.8,0.6,2.7
		c-1.7,2.7-3.8,5.1-6.2,7.2C1229.2,653.7,1228.8,653.9,1228.3,653.9z M1237.6,639c-0.2,0-0.3,0-0.5-0.1c-1.1-0.3-1.7-1.3-1.4-2.4
		c0.5-2.2,0.8-4.4,0.8-6.7v-1.7c0-1.1,0.9-2,2-2c1.1,0,2,0.9,2,2v1.7c0,2.6-0.3,5.1-0.9,7.6C1239.3,638.4,1238.5,639,1237.6,639z
		 M1238.5,621.3c-1.1,0-2-0.9-2-2v-8.9c0-1.1,0.9-2,2-2c1.1,0,2,0.9,2,2v8.9C1240.4,620.4,1239.6,621.3,1238.5,621.3z M1238.5,603.5
		c-1.1,0-2-0.9-2-2v-8.9c0-1.1,0.9-2,2-2c1.1,0,2,0.9,2,2v8.9C1240.4,602.6,1239.6,603.5,1238.5,603.5z M1238.5,585.7
		c-1.1,0-2-0.9-2-2v-8.9c0-1.1,0.9-2,2-2c1.1,0,2,0.9,2,2v8.9C1240.4,584.8,1239.6,585.7,1238.5,585.7z M1238.5,567.9
		c-1.1,0-2-0.9-2-2V557c0-1.1,0.9-2,2-2c1.1,0,2,0.9,2,2v8.9C1240.4,567,1239.6,567.9,1238.5,567.9z M1238.5,550.1c-1.1,0-2-0.9-2-2
		v-8.9c0-1.1,0.9-2,2-2c1.1,0,2,0.9,2,2v8.9C1240.4,549.2,1239.6,550.1,1238.5,550.1z M1238.5,532.3c-1.1,0-2-0.9-2-2v-8.9
		c0-1.1,0.9-2,2-2c1.1,0,2,0.9,2,2v8.9C1240.4,531.4,1239.6,532.3,1238.5,532.3z M1238.5,514.5c-1.1,0-2-0.9-2-2v-8.7
		c0-1.1,0.9-2,2-2c1.1,0,2,0.9,2,2v8.7C1240.4,513.6,1239.6,514.5,1238.5,514.5z"/>
</g>
<path id="XMLID_560_" fill="#414042" d="M790,443.3c-0.4,0-0.7-0.1-1-0.4l-4.8-4.9l-4.8,4.7c-0.2,0.2-0.4,0.4-0.6,0.5
	c-0.6,0.2-1.2,0.1-1.6-0.3l-4.7-4.8l-4.6,4.5c-0.2,0.2-0.4,0.4-0.6,0.5c-0.6,0.2-1.2,0.1-1.6-0.3l-4.6-4.8l-4.7,4.6
	c-0.2,0.2-0.4,0.4-0.6,0.5c-0.6,0.2-1.2,0.1-1.6-0.3l-5.7-5.9c-0.6-0.6-0.6-1.5,0-2.1c0.6-0.6,1.5-0.6,2.1,0l4.6,4.8l4.7-4.6
	c0.2-0.2,0.4-0.4,0.6-0.5c0.6-0.2,1.2-0.1,1.6,0.3l4.6,4.8l4.3-4.2c0.1-0.3,0.2-0.5,0.4-0.7c0.6-0.6,1.5-0.6,2.1,0l0.1,0.2
	c0,0,0,0,0,0l4.6,4.7l4.8-4.7c0.2-0.2,0.4-0.4,0.6-0.5c0.6-0.2,1.2-0.1,1.6,0.3l4.8,4.9l5-4.9c0.6-0.6,1.5-0.6,2.1,0
	c0.6,0.6,0.6,1.5,0,2.1l-5.9,5.7c-0.2,0.2-0.4,0.4-0.6,0.5C790.4,443.3,790.2,443.3,790,443.3z"/>
<path id="XMLID_492_" fill="#414042" d="M824.7,455.3c-0.4,0-0.7-0.1-1-0.4l-4.8-4.9l-4.8,4.7c-0.2,0.2-0.4,0.4-0.6,0.5
	c-0.6,0.2-1.2,0.1-1.6-0.3l-4.7-4.8l-4.6,4.5c-0.2,0.2-0.4,0.4-0.6,0.5c-0.6,0.2-1.2,0.1-1.6-0.3l-4.6-4.8l-4.7,4.6
	c-0.2,0.2-0.4,0.4-0.6,0.5c-0.6,0.2-1.2,0.1-1.6-0.3l-5.7-5.9c-0.6-0.6-0.6-1.5,0-2.1c0.6-0.6,1.5-0.6,2.1,0l4.6,4.8l4.7-4.6
	c0.2-0.2,0.4-0.4,0.6-0.5c0.6-0.2,1.2-0.1,1.6,0.3l4.6,4.8l4.3-4.2c0.1-0.3,0.2-0.5,0.4-0.7c0.6-0.6,1.5-0.6,2.1,0l0.1,0.2
	c0,0,0,0,0,0l4.6,4.7l4.8-4.7c0.2-0.2,0.4-0.4,0.6-0.5c0.6-0.2,1.2-0.1,1.6,0.3l4.8,4.9l5-4.9c0.6-0.6,1.5-0.6,2.1,0
	c0.6,0.6,0.6,1.5,0,2.1l-5.9,5.7c-0.2,0.2-0.4,0.4-0.6,0.5C825.1,455.2,824.9,455.3,824.7,455.3z"/>
<path id="XMLID_342_" fill="#414042" d="M883.5,455.3c-0.4,0-0.7-0.1-1-0.4l-4.8-4.9l-4.8,4.7c-0.2,0.2-0.4,0.4-0.6,0.5
	c-0.6,0.2-1.2,0.1-1.6-0.3l-4.7-4.8l-4.6,4.5c-0.2,0.2-0.4,0.4-0.6,0.5c-0.6,0.2-1.2,0.1-1.6-0.3l-4.6-4.8l-4.7,4.6
	c-0.2,0.2-0.4,0.4-0.6,0.5c-0.6,0.2-1.2,0.1-1.6-0.3l-5.7-5.9c-0.6-0.6-0.6-1.5,0-2.1c0.6-0.6,1.5-0.6,2.1,0l4.6,4.8l4.7-4.6
	c0.2-0.2,0.4-0.4,0.6-0.5c0.6-0.2,1.2-0.1,1.6,0.3l4.6,4.8l4.3-4.2c0.1-0.3,0.2-0.5,0.4-0.7c0.6-0.6,1.5-0.6,2.1,0l0.1,0.2
	c0,0,0,0,0,0l4.6,4.7l4.8-4.7c0.2-0.2,0.4-0.4,0.6-0.5c0.6-0.2,1.2-0.1,1.6,0.3l4.8,4.9l5-4.9c0.6-0.6,1.5-0.6,2.1,0
	c0.6,0.6,0.6,1.5,0,2.1l-5.9,5.7c-0.2,0.2-0.4,0.4-0.6,0.5C883.9,455.2,883.7,455.3,883.5,455.3z"/>
<path id="XMLID_423_" fill="#414042" d="M151.9,95.8c-7.4,0-13.4-6-13.4-13.4c0-5.8-4.7-10.5-10.5-10.5c-5.8,0-10.5,4.7-10.5,10.5
	c0,7.4-6,13.4-13.4,13.4c-7.4,0-13.4-6-13.4-13.4c0-5.8-4.7-10.5-10.5-10.5c-5.8,0-10.5,4.7-10.5,10.5c0,0.8-0.7,1.5-1.5,1.5
	s-1.5-0.7-1.5-1.5c0-7.4,6-13.4,13.4-13.4c7.4,0,13.4,6,13.4,13.4c0,5.8,4.7,10.5,10.5,10.5c5.8,0,10.5-4.7,10.5-10.5
	c0-7.4,6-13.4,13.4-13.4c7.4,0,13.4,6,13.4,13.4c0,5.8,4.7,10.5,10.5,10.5c5.8,0,10.5-4.7,10.5-10.5c0-0.8,0.7-1.5,1.5-1.5
	s1.5,0.7,1.5,1.5C165.3,89.8,159.3,95.8,151.9,95.8z"/>
<path id="XMLID_118_" fill="#414042" d="M1187.5,926.6c-7.4,0-13.4-6-13.4-13.4c0-5.8-4.7-10.5-10.5-10.5s-10.5,4.7-10.5,10.5
	c0,7.4-6,13.4-13.4,13.4s-13.4-6-13.4-13.4c0-5.8-4.7-10.5-10.5-10.5c-5.8,0-10.5,4.7-10.5,10.5c0,0.8-0.7,1.5-1.5,1.5
	c-0.8,0-1.5-0.7-1.5-1.5c0-7.4,6-13.4,13.4-13.4c7.4,0,13.4,6,13.4,13.4c0,5.8,4.7,10.5,10.5,10.5s10.5-4.7,10.5-10.5
	c0-7.4,6-13.4,13.4-13.4s13.4,6,13.4,13.4c0,5.8,4.7,10.5,10.5,10.5c5.8,0,10.5-4.7,10.5-10.5c0-0.8,0.7-1.5,1.5-1.5
	c0.8,0,1.5,0.7,1.5,1.5C1200.9,920.5,1194.9,926.6,1187.5,926.6z"/>
<g id="XMLID_506_">
	<g id="XMLID_509_">
		<path id="XMLID_510_" fill="#414042" d="M340.3,169.9h-15.5c-0.5,0-1-0.4-1-1c0-0.5,0.4-1,1-1h15.5c0.5,0,1,0.4,1,1
			C341.3,169.5,340.9,169.9,340.3,169.9z"/>
	</g>
	<g id="XMLID_507_">
		<path id="XMLID_508_" fill="#414042" d="M332.6,177.7c-0.5,0-1-0.4-1-1v-15.5c0-0.5,0.4-1,1-1s1,0.4,1,1v15.5
			C333.6,177.2,333.1,177.7,332.6,177.7z"/>
	</g>
</g>
<g id="XMLID_40_">
	<g id="XMLID_47_">
		<path id="XMLID_48_" fill="#414042" d="M469.2,729.1h-15.5c-0.5,0-1-0.4-1-1c0-0.5,0.4-1,1-1h15.5c0.5,0,1,0.4,1,1
			C470.2,728.7,469.8,729.1,469.2,729.1z"/>
	</g>
	<g id="XMLID_41_">
		<path id="XMLID_45_" fill="#414042" d="M461.5,736.8c-0.5,0-1-0.4-1-1v-15.5c0-0.5,0.4-1,1-1s1,0.4,1,1v15.5
			C462.5,736.4,462,736.8,461.5,736.8z"/>
	</g>
</g>
<g id="XMLID_49_">
	<g id="XMLID_52_">
		<path id="XMLID_53_" fill="#414042" d="M849.1,240.6h-15.5c-0.5,0-1-0.4-1-1c0-0.5,0.4-1,1-1h15.5c0.5,0,1,0.4,1,1
			C850,240.2,849.6,240.6,849.1,240.6z"/>
	</g>
	<g id="XMLID_50_">
		<path id="XMLID_51_" fill="#414042" d="M841.4,248.3c-0.5,0-1-0.4-1-1v-15.5c0-0.5,0.4-1,1-1s1,0.4,1,1v15.5
			C842.3,247.9,841.9,248.3,841.4,248.3z"/>
	</g>
</g>
<g id="XMLID_134_">
	<g id="XMLID_137_">
		<path id="XMLID_138_" fill="#414042" d="M1287.4,512.4h-15.5c-0.5,0-1-0.4-1-1c0-0.5,0.4-1,1-1h15.5c0.5,0,1,0.4,1,1
			C1288.3,512,1287.9,512.4,1287.4,512.4z"/>
	</g>
	<g id="XMLID_135_">
		<path id="XMLID_136_" fill="#414042" d="M1279.7,520.2c-0.5,0-1-0.4-1-1v-15.5c0-0.5,0.4-1,1-1s1,0.4,1,1v15.5
			C1280.6,519.7,1280.2,520.2,1279.7,520.2z"/>
	</g>
</g>
<g id="XMLID_54_">
	<g id="XMLID_57_">
		<path id="XMLID_58_" fill="#414042" d="M1061.5,791.1H1046c-0.5,0-1-0.4-1-1c0-0.5,0.4-1,1-1h15.5c0.5,0,1,0.4,1,1
			C1062.4,790.7,1062,791.1,1061.5,791.1z"/>
	</g>
	<g id="XMLID_55_">
		<path id="XMLID_56_" fill="#414042" d="M1053.8,798.8c-0.5,0-1-0.4-1-1v-15.5c0-0.5,0.4-1,1-1s1,0.4,1,1v15.5
			C1054.7,798.4,1054.3,798.8,1053.8,798.8z"/>
	</g>
</g>
<path id="XMLID_557_" fill="#414042" d="M601.3,90.7h-0.2c-0.8,0-1.5-0.7-1.5-1.5c0-0.8,0.7-1.5,1.5-1.5h0.2c0.8,0,1.5,0.7,1.5,1.5
	C602.8,90,602.2,90.7,601.3,90.7z M593.2,90.7h-7.9c-0.8,0-1.5-0.7-1.5-1.5c0-0.8,0.7-1.5,1.5-1.5h7.9c0.8,0,1.5,0.7,1.5,1.5
	C594.7,90,594,90.7,593.2,90.7z M577.4,90.7h-7.9c-0.8,0-1.5-0.7-1.5-1.5c0-0.8,0.7-1.5,1.5-1.5h7.9c0.8,0,1.5,0.7,1.5,1.5
	C578.9,90,578.2,90.7,577.4,90.7z M561.5,90.7h-7.9c-0.8,0-1.5-0.7-1.5-1.5c0-0.8,0.7-1.5,1.5-1.5h7.9c0.8,0,1.5,0.7,1.5,1.5
	C563,90,562.4,90.7,561.5,90.7z M545.7,90.7h-7.9c-0.8,0-1.5-0.7-1.5-1.5c0-0.8,0.7-1.5,1.5-1.5h7.9c0.8,0,1.5,0.7,1.5,1.5
	C547.2,90,546.5,90.7,545.7,90.7z M529.9,90.7H522c-0.8,0-1.5-0.7-1.5-1.5c0-0.8,0.7-1.5,1.5-1.5h7.9c0.8,0,1.5,0.7,1.5,1.5
	C531.4,90,530.7,90.7,529.9,90.7z M514.1,90.7h-7.9c-0.8,0-1.5-0.7-1.5-1.5c0-0.8,0.7-1.5,1.5-1.5h7.9c0.8,0,1.5,0.7,1.5,1.5
	C515.6,90,514.9,90.7,514.1,90.7z M498.2,90.7h-7.9c-0.8,0-1.5-0.7-1.5-1.5c0-0.8,0.7-1.5,1.5-1.5h7.9c0.8,0,1.5,0.7,1.5,1.5
	C499.7,90,499.1,90.7,498.2,90.7z M482.4,90.7h-7.9c-0.8,0-1.5-0.7-1.5-1.5c0-0.8,0.7-1.5,1.5-1.5h7.9c0.8,0,1.5,0.7,1.5,1.5
	C483.9,90,483.2,90.7,482.4,90.7z"/>
<path id="XMLID_59_" fill="#414042" d="M797,90.7h-7.6c-0.8,0-1.5-0.7-1.5-1.5c0-0.8,0.7-1.5,1.5-1.5h7.6c0.8,0,1.5,0.7,1.5,1.5
	C798.5,90,797.8,90.7,797,90.7z M771.6,90.7h-17.8c-0.8,0-1.5-0.7-1.5-1.5c0-0.8,0.7-1.5,1.5-1.5h17.8c0.8,0,1.5,0.7,1.5,1.5
	C773.1,90,772.4,90.7,771.6,90.7z M736,90.7h-17.8c-0.8,0-1.5-0.7-1.5-1.5c0-0.8,0.7-1.5,1.5-1.5H736c0.8,0,1.5,0.7,1.5,1.5
	C737.5,90,736.8,90.7,736,90.7z M700.4,90.7h-17.8c-0.8,0-1.5-0.7-1.5-1.5c0-0.8,0.7-1.5,1.5-1.5h17.8c0.8,0,1.5,0.7,1.5,1.5
	C701.8,90,701.2,90.7,700.4,90.7z M664.8,90.7H647c-0.8,0-1.5-0.7-1.5-1.5c0-0.8,0.7-1.5,1.5-1.5h17.8c0.8,0,1.5,0.7,1.5,1.5
	C666.2,90,665.6,90.7,664.8,90.7z M629.2,90.7h-17.8c-0.8,0-1.5-0.7-1.5-1.5c0-0.8,0.7-1.5,1.5-1.5h17.8c0.8,0,1.5,0.7,1.5,1.5
	C630.6,90,630,90.7,629.2,90.7z"/>
<path id="XMLID_343_" fill="#414042" d="M1007.6,694.5h-31.1c-0.8,0-1.5-0.7-1.5-1.5c0-0.8,0.7-1.5,1.5-1.5h31.1
	c0.8,0,1.5,0.7,1.5,1.5C1009.1,693.9,1008.4,694.5,1007.6,694.5z"/>
<path id="XMLID_345_" fill="#414042" d="M1033,694.5h-15.5c-0.8,0-1.5-0.7-1.5-1.5c0-0.8,0.7-1.5,1.5-1.5h15.5
	c0.8,0,1.5,0.7,1.5,1.5C1034.5,693.9,1033.8,694.5,1033,694.5z"/>
<path id="XMLID_346_" fill="#414042" d="M1057.9,694.5h-15.5c-0.8,0-1.5-0.7-1.5-1.5c0-0.8,0.7-1.5,1.5-1.5h15.5
	c0.8,0,1.5,0.7,1.5,1.5C1059.4,693.9,1058.7,694.5,1057.9,694.5z"/>
<path id="XMLID_350_" fill="#414042" d="M970,699.1c-0.3,0-0.7-0.1-0.9-0.3l-5.7-4.6c-0.4-0.3-0.6-0.7-0.6-1.2
	c0-0.5,0.2-0.9,0.6-1.2l5.7-4.5c0.6-0.5,1.6-0.4,2.1,0.2c0.5,0.6,0.4,1.6-0.2,2.1l-4.3,3.4l4.3,3.4c0.6,0.5,0.7,1.4,0.2,2.1
	C970.9,698.9,970.5,699.1,970,699.1z"/>
<path id="XMLID_349_" fill="#414042" d="M970,713.2h-11.7c-0.8,0-1.5-0.7-1.5-1.5c0-0.8,0.7-1.5,1.5-1.5H970c0.8,0,1.5,0.7,1.5,1.5
	C971.5,712.5,970.9,713.2,970,713.2z"/>
<path id="XMLID_348_" fill="#414042" d="M1014.8,713.2h-36.2c-0.8,0-1.5-0.7-1.5-1.5c0-0.8,0.7-1.5,1.5-1.5h36.2
	c0.8,0,1.5,0.7,1.5,1.5C1016.3,712.5,1015.6,713.2,1014.8,713.2z"/>
<path id="XMLID_381_" fill="#414042" d="M1037.4,713.2h-12.1c-0.8,0-1.5-0.7-1.5-1.5c0-0.8,0.7-1.5,1.5-1.5h12.1
	c0.8,0,1.5,0.7,1.5,1.5C1038.9,712.5,1038.2,713.2,1037.4,713.2z"/>
<path id="XMLID_355_" fill="#414042" d="M951.8,717.8c-0.3,0-0.7-0.1-0.9-0.3l-5.7-4.6c-0.4-0.3-0.6-0.7-0.6-1.2
	c0-0.5,0.2-0.9,0.6-1.2l5.7-4.5c0.6-0.5,1.6-0.4,2.1,0.2c0.5,0.6,0.4,1.6-0.2,2.1l-4.3,3.4l4.3,3.4c0.6,0.5,0.7,1.4,0.2,2.1
	C952.7,717.6,952.3,717.8,951.8,717.8z"/>
<g id="XMLID_311_">
	<path id="XMLID_312_" fill="#414042" d="M75.2,615.3H61.1c-1.6,0-2.8-1.3-2.8-2.8c0-1.6,1.3-2.8,2.8-2.8h14.1
		c1.6,0,2.8,1.3,2.8,2.8C78.1,614,76.8,615.3,75.2,615.3z"/>
</g>
<g id="XMLID_60_">
	<path id="XMLID_61_" fill="#414042" d="M589.7,546.7h-14.1c-1.6,0-2.8-1.3-2.8-2.8c0-1.6,1.3-2.8,2.8-2.8h14.1
		c1.6,0,2.8,1.3,2.8,2.8C592.5,545.4,591.2,546.7,589.7,546.7z"/>
</g>
<g id="XMLID_62_">
	<path id="XMLID_63_" fill="#414042" d="M409.6,338.3h-14.1c-1.6,0-2.8-1.3-2.8-2.8s1.3-2.8,2.8-2.8h14.1c1.6,0,2.8,1.3,2.8,2.8
		S411.2,338.3,409.6,338.3z"/>
</g>
<g id="XMLID_64_">
	<path id="XMLID_65_" fill="#414042" d="M1030.8,341.1h-14.1c-1.6,0-2.8-1.3-2.8-2.8s1.3-2.8,2.8-2.8h14.1c1.6,0,2.8,1.3,2.8,2.8
		S1032.4,341.1,1030.8,341.1z"/>
</g>
<g id="XMLID_487_">
	<path id="XMLID_634_" fill="#414042" d="M417,454.8h-5.9c-0.8,0-1.5-0.7-1.5-1.5c0-0.8,0.7-1.5,1.5-1.5h4.5v-4.5
		c0-0.8,0.7-1.5,1.5-1.5s1.5,0.7,1.5,1.5v5.9C418.5,454.1,417.9,454.8,417,454.8z"/>
	<path id="XMLID_633_" fill="#414042" d="M394.1,454.8h-5.9c-0.8,0-1.5-0.7-1.5-1.5v-5.9c0-0.8,0.7-1.5,1.5-1.5
		c0.8,0,1.5,0.7,1.5,1.5v4.5h4.5c0.8,0,1.5,0.7,1.5,1.5C395.6,454.1,394.9,454.8,394.1,454.8z"/>
	<path id="XMLID_632_" fill="#414042" d="M388.1,431.8c-0.8,0-1.5-0.7-1.5-1.5v-5.9c0-0.8,0.7-1.5,1.5-1.5h5.9
		c0.8,0,1.5,0.7,1.5,1.5c0,0.8-0.7,1.5-1.5,1.5h-4.5v4.5C389.6,431.2,389,431.8,388.1,431.8z"/>
	<path id="XMLID_636_" fill="#414042" d="M417,431.8c-0.8,0-1.5-0.7-1.5-1.5v-4.5h-4.5c-0.8,0-1.5-0.7-1.5-1.5
		c0-0.8,0.7-1.5,1.5-1.5h5.9c0.8,0,1.5,0.7,1.5,1.5v5.9C418.5,431.2,417.9,431.8,417,431.8z"/>
</g>
<g id="XMLID_129_">
	<path id="XMLID_133_" fill="#414042" d="M1355.1,633h-5.9c-0.8,0-1.5-0.7-1.5-1.5c0-0.8,0.7-1.5,1.5-1.5h4.5v-4.5
		c0-0.8,0.7-1.5,1.5-1.5c0.8,0,1.5,0.7,1.5,1.5v5.9C1356.6,632.3,1355.9,633,1355.1,633z"/>
	<path id="XMLID_132_" fill="#414042" d="M1332.1,633h-5.9c-0.8,0-1.5-0.7-1.5-1.5v-5.9c0-0.8,0.7-1.5,1.5-1.5
		c0.8,0,1.5,0.7,1.5,1.5v4.5h4.5c0.8,0,1.5,0.7,1.5,1.5C1333.6,632.3,1332.9,633,1332.1,633z"/>
	<path id="XMLID_131_" fill="#414042" d="M1326.2,610c-0.8,0-1.5-0.7-1.5-1.5v-5.9c0-0.8,0.7-1.5,1.5-1.5h5.9c0.8,0,1.5,0.7,1.5,1.5
		c0,0.8-0.7,1.5-1.5,1.5h-4.5v4.5C1327.7,609.3,1327,610,1326.2,610z"/>
	<path id="XMLID_130_" fill="#414042" d="M1355.1,610c-0.8,0-1.5-0.7-1.5-1.5v-4.5h-4.5c-0.8,0-1.5-0.7-1.5-1.5
		c0-0.8,0.7-1.5,1.5-1.5h5.9c0.8,0,1.5,0.7,1.5,1.5v5.9C1356.6,609.3,1355.9,610,1355.1,610z"/>
</g>
<g id="XMLID_100_">
	<path id="XMLID_104_" fill="#414042" d="M881,103.6h-5.9c-0.8,0-1.5-0.7-1.5-1.5c0-0.8,0.7-1.5,1.5-1.5h4.5v-4.5
		c0-0.8,0.7-1.5,1.5-1.5s1.5,0.7,1.5,1.5v5.9C882.5,103,881.8,103.6,881,103.6z"/>
	<path id="XMLID_103_" fill="#414042" d="M858,103.6h-5.9c-0.8,0-1.5-0.7-1.5-1.5v-5.9c0-0.8,0.7-1.5,1.5-1.5c0.8,0,1.5,0.7,1.5,1.5
		v4.5h4.5c0.8,0,1.5,0.7,1.5,1.5C859.5,103,858.9,103.6,858,103.6z"/>
	<path id="XMLID_102_" fill="#414042" d="M852.1,80.7c-0.8,0-1.5-0.7-1.5-1.5v-5.9c0-0.8,0.7-1.5,1.5-1.5h5.9c0.8,0,1.5,0.7,1.5,1.5
		c0,0.8-0.7,1.5-1.5,1.5h-4.5v4.5C853.6,80,852.9,80.7,852.1,80.7z"/>
	<path id="XMLID_101_" fill="#414042" d="M881,80.7c-0.8,0-1.5-0.7-1.5-1.5v-4.5h-4.5c-0.8,0-1.5-0.7-1.5-1.5c0-0.8,0.7-1.5,1.5-1.5
		h5.9c0.8,0,1.5,0.7,1.5,1.5v5.9C882.5,80,881.8,80.7,881,80.7z"/>
</g>
<g id="XMLID_329_">
	<path id="XMLID_340_" fill="#414042" d="M1290.1,797.8h-41.4c-1.1,0-2-0.9-2-2c0-1.1,0.9-2,2-2h41.4c1.1,0,2,0.9,2,2
		C1292.2,796.9,1291.2,797.8,1290.1,797.8z"/>
</g>
<g id="XMLID_330_">
	<path id="XMLID_339_" fill="#414042" d="M1290.1,806.3h-41.4c-1.1,0-2-0.9-2-2c0-1.1,0.9-2,2-2h41.4c1.1,0,2,0.9,2,2
		C1292.2,805.4,1291.2,806.3,1290.1,806.3z"/>
</g>
<g id="XMLID_328_">
	<path id="XMLID_338_" fill="#414042" d="M1230.5,803.7c-0.5,0-0.9-0.2-1.3-0.5l-5-4.2c-0.9-0.7-1-2-0.2-2.9c0.7-0.9,2-1,2.9-0.2
		l3.4,2.9l5.9-7c0.7-0.9,2-1,2.9-0.2c0.9,0.7,1,2,0.2,2.9l-7.3,8.5C1231.6,803.4,1231.1,803.7,1230.5,803.7z"/>
</g>
<g id="XMLID_334_">
	<path id="XMLID_337_" fill="#414042" d="M1290.1,818.2h-41.4c-1.1,0-2-0.9-2-2c0-1.1,0.9-2,2-2h41.4c1.1,0,2,0.9,2,2
		C1292.2,817.2,1291.2,818.2,1290.1,818.2z"/>
</g>
<g id="XMLID_333_">
	<path id="XMLID_336_" fill="#414042" d="M1290.1,826.6h-41.4c-1.1,0-2-0.9-2-2c0-1.1,0.9-2,2-2h41.4c1.1,0,2,0.9,2,2
		C1292.2,825.7,1291.2,826.6,1290.1,826.6z"/>
</g>
<g id="XMLID_332_">
	<path id="XMLID_335_" fill="#414042" d="M1230.5,824c-0.5,0-0.9-0.2-1.3-0.5l-5-4.2c-0.9-0.7-1-2-0.2-2.9c0.7-0.9,2-1,2.9-0.2
		l3.4,2.9l5.9-7c0.7-0.9,2-1,2.9-0.2c0.9,0.7,1,2,0.2,2.9l-7.3,8.5C1231.6,823.8,1231.1,824,1230.5,824z"/>
</g>
<g id="XMLID_105_">
	<g id="XMLID_114_">
		<path id="XMLID_115_" fill="#EFEFEF" d="M1308.5,373.2c-6.9,0-12.5-5.6-12.5-12.5c0-6.9,5.6-12.5,12.5-12.5
			c6.9,0,12.5,5.6,12.5,12.5C1321,367.6,1315.4,373.2,1308.5,373.2z M1308.5,354.3c-3.6,0-6.5,2.9-6.5,6.5c0,3.6,2.9,6.5,6.5,6.5
			c3.6,0,6.5-2.9,6.5-6.5C1315,357.2,1312.1,354.3,1308.5,354.3z"/>
	</g>
	<path id="XMLID_113_" fill="#EFEFEF" d="M1302.1,350l-5.5-5.5l-4.3,4.3l5.5,5.5C1298.9,352.6,1300.3,351.1,1302.1,350z"/>
	<path id="XMLID_112_" fill="#EFEFEF" d="M1308.5,348.2c1,0,2.1,0.1,3,0.4v-7.8h-6.1v7.8C1306.4,348.4,1307.5,348.2,1308.5,348.2z"
		/>
	<path id="XMLID_111_" fill="#EFEFEF" d="M1319.2,354.3l5.5-5.5l-4.3-4.3l-5.5,5.5C1316.7,351.1,1318.2,352.6,1319.2,354.3z"/>
	<path id="XMLID_110_" fill="#EFEFEF" d="M1314.9,371.4l5.5,5.5l4.3-4.3l-5.5-5.5C1318.2,368.9,1316.7,370.4,1314.9,371.4z"/>
	<path id="XMLID_109_" fill="#EFEFEF" d="M1308.5,373.2c-1,0-2.1-0.1-3-0.4v7.8h6.1v-7.8C1310.6,373.1,1309.6,373.2,1308.5,373.2z"
		/>
	<path id="XMLID_108_" fill="#EFEFEF" d="M1320.6,357.7c0.2,1,0.4,2,0.4,3c0,1-0.1,2.1-0.4,3h7.8v-6.1H1320.6z"/>
	<path id="XMLID_107_" fill="#EFEFEF" d="M1297.8,367.2l-5.5,5.5l4.3,4.3l5.5-5.5C1300.3,370.4,1298.9,368.9,1297.8,367.2z"/>
	<path id="XMLID_106_" fill="#EFEFEF" d="M1296,360.7c0-1,0.1-2.1,0.4-3h-7.8v6.1h7.8C1296.1,362.8,1296,361.8,1296,360.7z"/>
</g>
<g id="XMLID_77_">
	<g id="XMLID_86_">
		<path id="XMLID_87_" fill="#A5CC56" d="M1293,743.8c-8.1,0-14.7-6.6-14.7-14.7c0-8.1,6.6-14.7,14.7-14.7c8.1,0,14.7,6.6,14.7,14.7
			C1307.7,737.2,1301.1,743.8,1293,743.8z M1293,721.5c-4.2,0-7.6,3.4-7.6,7.6c0,4.2,3.4,7.6,7.6,7.6c4.2,0,7.6-3.4,7.6-7.6
			C1300.5,724.9,1297.1,721.5,1293,721.5z"/>
	</g>
	<path id="XMLID_85_" fill="#A5CC56" d="M1285.4,716.5l-6.4-6.4l-5,5l6.4,6.4C1281.6,719.5,1283.3,717.8,1285.4,716.5z"/>
	<path id="XMLID_84_" fill="#A5CC56" d="M1293,714.4c1.2,0,2.4,0.2,3.6,0.5v-9.1h-7.1v9.1C1290.5,714.6,1291.7,714.4,1293,714.4z"/>
	<path id="XMLID_83_" fill="#A5CC56" d="M1305.5,721.6l6.4-6.4l-5-5l-6.4,6.4C1302.6,717.8,1304.3,719.5,1305.5,721.6z"/>
	<path id="XMLID_82_" fill="#A5CC56" d="M1300.5,741.7l6.4,6.4l5-5l-6.4-6.4C1304.3,738.7,1302.6,740.5,1300.5,741.7z"/>
	<path id="XMLID_81_" fill="#A5CC56" d="M1293,743.8c-1.2,0-2.4-0.2-3.6-0.5v9.1h7.1v-9.1C1295.4,743.6,1294.2,743.8,1293,743.8z"/>
	<path id="XMLID_80_" fill="#A5CC56" d="M1307.2,725.6c0.3,1.1,0.5,2.3,0.5,3.6c0,1.2-0.2,2.4-0.5,3.6h9.1v-7.1H1307.2z"/>
	<path id="XMLID_79_" fill="#A5CC56" d="M1280.4,736.7l-6.4,6.4l5,5l6.4-6.4C1283.3,740.5,1281.6,738.7,1280.4,736.7z"/>
	<path id="XMLID_78_" fill="#A5CC56" d="M1278.3,729.1c0-1.2,0.2-2.4,0.5-3.6h-9.1v7.1h9.1C1278.4,731.5,1278.3,730.3,1278.3,729.1z
		"/>
</g>
<path id="XMLID_90_" fill="#414042" d="M290.6,903.2h-0.2c-0.8,0-1.5-0.7-1.5-1.5s0.7-1.5,1.5-1.5h0.2c0.8,0,1.5,0.7,1.5,1.5
	S291.4,903.2,290.6,903.2z M282.5,903.2h-7.9c-0.8,0-1.5-0.7-1.5-1.5s0.7-1.5,1.5-1.5h7.9c0.8,0,1.5,0.7,1.5,1.5
	S283.3,903.2,282.5,903.2z M266.7,903.2h-7.9c-0.8,0-1.5-0.7-1.5-1.5s0.7-1.5,1.5-1.5h7.9c0.8,0,1.5,0.7,1.5,1.5
	S267.5,903.2,266.7,903.2z M250.8,903.2h-7.9c-0.8,0-1.5-0.7-1.5-1.5s0.7-1.5,1.5-1.5h7.9c0.8,0,1.5,0.7,1.5,1.5
	S251.6,903.2,250.8,903.2z M235,903.2h-7.9c-0.8,0-1.5-0.7-1.5-1.5s0.7-1.5,1.5-1.5h7.9c0.8,0,1.5,0.7,1.5,1.5
	S235.8,903.2,235,903.2z M219.2,903.2h-7.9c-0.8,0-1.5-0.7-1.5-1.5s0.7-1.5,1.5-1.5h7.9c0.8,0,1.5,0.7,1.5,1.5
	S220,903.2,219.2,903.2z M203.4,903.2h-7.9c-0.8,0-1.5-0.7-1.5-1.5s0.7-1.5,1.5-1.5h7.9c0.8,0,1.5,0.7,1.5,1.5
	S204.2,903.2,203.4,903.2z M187.5,903.2h-7.9c-0.8,0-1.5-0.7-1.5-1.5s0.7-1.5,1.5-1.5h7.9c0.8,0,1.5,0.7,1.5,1.5
	S188.3,903.2,187.5,903.2z M171.7,903.2h-7.9c-0.8,0-1.5-0.7-1.5-1.5s0.7-1.5,1.5-1.5h7.9c0.8,0,1.5,0.7,1.5,1.5
	S172.5,903.2,171.7,903.2z"/>
<circle id="XMLID_543_" fill="#A5CC56" cx="336.3" cy="901" r="12.1"/>
<g id="XMLID_534_">
	<path id="XMLID_535_" fill="#414042" d="M331,913.5c-0.1,0-0.1,0-0.2,0c-1.9-0.3-3.7-0.9-5.4-1.9c-0.7-0.4-0.9-1.4-0.5-2.1
		c0.4-0.7,1.4-0.9,2.1-0.5c1.3,0.8,2.7,1.3,4.1,1.5c0.8,0.1,1.4,0.9,1.3,1.7C332.4,913,331.7,913.5,331,913.5z M336,913.1
		c-0.7,0-1.3-0.4-1.5-1.1c-0.2-0.8,0.2-1.7,1-1.9c1.4-0.4,2.7-1.2,3.8-2.1c0.6-0.6,1.6-0.5,2.2,0.1c0.6,0.6,0.5,1.6-0.1,2.2
		c-1.5,1.3-3.1,2.2-5,2.8C336.3,913.1,336.1,913.1,336,913.1z M322.6,908.3c-0.5,0-1-0.2-1.3-0.7c-1.1-1.6-1.8-3.4-2.1-5.3
		c-0.1-0.8,0.4-1.6,1.3-1.7c0.8-0.1,1.6,0.4,1.7,1.3c0.2,1.5,0.8,2.8,1.6,4.1c0.5,0.7,0.3,1.6-0.4,2.1
		C323.2,908.2,322.9,908.3,322.6,908.3z M343.4,906.6c-0.2,0-0.4,0-0.6-0.1c-0.8-0.3-1.1-1.3-0.8-2c0.6-1.4,0.9-2.8,0.9-4.3
		c0-1.1-0.2-2.2-0.5-3.3c-0.3-0.8,0.2-1.7,1-1.9c0.8-0.3,1.7,0.2,1.9,1c0.5,1.4,0.7,2.8,0.7,4.3c0,1.9-0.4,3.8-1.2,5.6
		C344.6,906.3,344,906.6,343.4,906.6z M321,898.6c-0.1,0-0.3,0-0.4-0.1c-0.8-0.2-1.3-1.1-1.1-1.9c0.5-1.9,1.4-3.6,2.6-5.1
		c0.5-0.6,1.5-0.7,2.1-0.2c0.6,0.5,0.7,1.5,0.2,2.1c-1,1.2-1.6,2.5-2,3.9C322.3,898.1,321.7,898.6,321,898.6z M341.3,893.6
		c-0.4,0-0.8-0.2-1.1-0.5c-1-1.1-2.3-2-3.6-2.5c-0.8-0.3-1.1-1.2-0.8-2c0.3-0.8,1.2-1.1,2-0.8c1.8,0.7,3.4,1.9,4.7,3.3
		c0.6,0.6,0.5,1.6-0.1,2.2C342,893.4,341.7,893.6,341.3,893.6z M327.3,891c-0.6,0-1.1-0.3-1.4-0.9c-0.4-0.8-0.1-1.7,0.7-2
		c1.7-0.8,3.6-1.3,5.5-1.4c0,0,0,0,0,0c0.8,0,1.5,0.7,1.5,1.5c0,0.8-0.6,1.5-1.5,1.6c-1.5,0-2.9,0.4-4.3,1.1
		C327.7,890.9,327.5,891,327.3,891z"/>
</g>
<g id="XMLID_119_">
	<path id="XMLID_120_" fill="#414042" d="M1300.4,913.5c-0.1,0-0.1,0-0.2,0c-1.9-0.3-3.7-0.9-5.4-1.9c-0.7-0.4-0.9-1.4-0.5-2.1
		c0.4-0.7,1.4-0.9,2.1-0.5c1.3,0.8,2.7,1.3,4.1,1.5c0.8,0.1,1.4,0.9,1.3,1.7C1301.8,913,1301.2,913.5,1300.4,913.5z M1305.5,913.1
		c-0.7,0-1.3-0.4-1.5-1.1c-0.2-0.8,0.2-1.7,1-1.9c1.4-0.4,2.7-1.2,3.8-2.1c0.6-0.6,1.6-0.5,2.2,0.1c0.6,0.6,0.5,1.6-0.1,2.2
		c-1.5,1.3-3.1,2.2-5,2.8C1305.8,913.1,1305.6,913.1,1305.5,913.1z M1292.1,908.3c-0.5,0-1-0.2-1.3-0.7c-1.1-1.6-1.8-3.4-2.1-5.3
		c-0.1-0.8,0.4-1.6,1.3-1.7c0.8-0.1,1.6,0.4,1.7,1.3c0.2,1.5,0.8,2.8,1.6,4.1c0.5,0.7,0.3,1.6-0.4,2.1
		C1292.6,908.2,1292.3,908.3,1292.1,908.3z M1312.9,906.6c-0.2,0-0.4,0-0.6-0.1c-0.8-0.3-1.1-1.3-0.8-2c0.6-1.4,0.9-2.8,0.9-4.3
		c0-1.1-0.2-2.2-0.5-3.3c-0.3-0.8,0.2-1.7,1-1.9c0.8-0.3,1.7,0.2,1.9,1c0.5,1.4,0.7,2.8,0.7,4.3c0,1.9-0.4,3.8-1.2,5.6
		C1314,906.3,1313.5,906.6,1312.9,906.6z M1290.5,898.6c-0.1,0-0.3,0-0.4-0.1c-0.8-0.2-1.3-1.1-1.1-1.9c0.5-1.9,1.4-3.6,2.6-5.1
		c0.5-0.6,1.5-0.7,2.1-0.2c0.6,0.5,0.7,1.5,0.2,2.1c-1,1.2-1.6,2.5-2,3.9C1291.8,898.1,1291.1,898.6,1290.5,898.6z M1310.8,893.6
		c-0.4,0-0.8-0.2-1.1-0.5c-1-1.1-2.3-2-3.6-2.5c-0.8-0.3-1.1-1.2-0.8-2c0.3-0.8,1.2-1.1,2-0.8c1.8,0.7,3.4,1.9,4.7,3.3
		c0.6,0.6,0.5,1.6-0.1,2.2C1311.5,893.4,1311.1,893.6,1310.8,893.6z M1296.8,891c-0.6,0-1.1-0.3-1.4-0.9c-0.4-0.8-0.1-1.7,0.7-2
		c1.7-0.8,3.6-1.3,5.5-1.4c0,0,0,0,0,0c0.8,0,1.5,0.7,1.5,1.5c0,0.8-0.6,1.5-1.5,1.6c-1.5,0-2.9,0.4-4.3,1.1
		C1297.2,890.9,1297,891,1296.8,891z"/>
</g>
<path fill="#4D4D4D" d="M508.8,675.5H349c-32.5,0-58.9,26.4-58.9,58.9v30.1c0,33-26.8,59.8-59.8,59.8h-23.1c-1.9,0-3.5,1.5-3.5,3.5
	l0,0c0,1.9,1.5,3.5,3.5,3.5h23.1c36.8,0,66.7-29.9,66.7-66.7v-30.1c0-28.7,23.3-52,52-52h159.7c1.7,0,3.2-1.1,3.5-2.7
	C512.7,677.4,511,675.5,508.8,675.5z"/>
</svg>
